<svg width="108.093750" height="69.519409" viewBox="0 0 108.094 69.5194" fill="none" xmlns="http://www.w3.org/2000/svg" xmlns:xlink="http://www.w3.org/1999/xlink">
	<desc>
			Created with Pixso.
	</desc>
	<defs>
		<linearGradient x1="56.000000" y1="-3.839966" x2="56.000000" y2="92.160034" id="paint_linear_197_32_0" gradientUnits="userSpaceOnUse">
			<stop stop-color="#EAC86B"/>
			<stop offset="1.000000" stop-color="#FFEFC1"/>
		</linearGradient>
		<linearGradient x1="56.000000" y1="-3.839966" x2="56.000000" y2="92.160034" id="paint_linear_197_32_1" gradientUnits="userSpaceOnUse">
			<stop stop-color="#10142C"/>
			<stop offset="1.000000" stop-color="#0424BF"/>
		</linearGradient>
	</defs>
	<path id="14%" d="M65.12 64.51C64.35 63.55 63.97 62.24 63.97 60.57L63.97 51.45L73.47 51.45L73.47 49.82L63.97 49.82L63.97 3.05e-5L63.01 3.05e-5L30.46 49.82L30.46 51.45L60.13 51.45L60.13 60.57C60.13 62.24 59.55 63.55 58.4 64.51Q58.05 64.8 57.68 65.06Q56.22 66.1 54.46 66.72C52.99 67.16 51.58 67.45 50.24 67.58Q48.32 67.68 47.74 67.68L47.74 68.16L72.51 68.16L72.51 67.68C72.13 67.68 71.46 67.64 70.5 67.58C69.6 67.45 68.67 67.16 67.71 66.72Q66.27 65.95 65.12 64.51ZM18.04 60.57L18.04 0.96L17.85 0.96L0 17.08L0.96 18.14L9.6 10.36C10.62 9.4 11.52 8.92 12.28 8.92C12.99 8.92 13.47 9.34 13.72 10.17C14.04 11 14.2 11.93 14.2 12.96L14.2 60.57C14.2 62.24 13.63 63.55 12.48 64.51Q12.12 64.8 11.75 65.06Q10.3 66.1 8.54 66.72C7.07 67.16 5.66 67.45 4.32 67.58Q2.4 67.68 1.82 67.68L1.82 68.16L30.43 68.16L30.43 67.68C30.04 67.68 29.18 67.64 27.84 67.58C26.56 67.45 25.18 67.16 23.71 66.72Q21.95 66.1 20.49 65.06Q20.12 64.8 19.77 64.51C18.62 63.55 18.04 62.24 18.04 60.57ZM32.67 49.82L60.03 8.16L60.13 8.25L60.13 49.82L32.67 49.82Z" fill="url(#paint_linear_197_32_0)" fill-opacity="1.000000" fill-rule="evenodd"/>
	<path id="14%" d="M80.95 68.62L82.35 69.51L102.84 39.56L101.48 38.62L80.95 68.62ZM86.45 39.93Q85.05 39.33 83.39 39.33Q81.01 39.33 79.39 40.43Q78.18 41.24 77.39 42.66Q76.31 44.53 76.31 47.06Q76.31 50.94 78.24 53.01Q78.88 53.7 79.73 54.19Q80.21 54.45 80.72 54.64Q81.9 55.08 83.25 55.08Q85.6 55.08 87.22 53.99Q88.47 53.15 89.29 51.66Q90.32 49.73 90.32 47.2Q90.32 43.26 88.35 41.24Q87.61 40.47 86.57 39.98Q86.51 39.95 86.45 39.93ZM84.38 53.91Q83.91 54.13 83.34 54.14Q82.43 54.14 81.77 53.73Q80.66 53.05 80.25 51.23Q79.92 49.69 79.92 47.2Q79.92 41.53 81.93 40.55Q82.54 40.26 83.29 40.26Q84.14 40.26 84.77 40.63Q85.91 41.31 86.34 43.22Q86.67 44.72 86.67 47.06Q86.63 52.87 84.38 53.91ZM104.21 53.47Q102.81 52.87 101.15 52.87Q98.78 52.87 97.15 53.97Q95.95 54.79 95.15 56.2Q94.07 58.08 94.07 60.61Q94.07 64.48 96.01 66.56Q96.64 67.24 97.5 67.73Q97.97 68 98.48 68.19Q99.67 68.62 101.01 68.62Q103.36 68.62 104.99 67.53Q106.24 66.69 107.06 65.2Q108.09 63.28 108.09 60.75Q108.09 56.81 106.12 54.79Q105.37 54.02 104.34 53.53Q104.28 53.5 104.21 53.47ZM102.15 67.46Q101.67 67.68 101.1 67.69Q100.19 67.69 99.53 67.28Q98.42 66.6 98.01 64.78Q97.68 63.23 97.68 60.75Q97.68 55.08 99.7 54.09Q100.31 53.81 101.06 53.81Q101.9 53.81 102.53 54.18Q103.68 54.86 104.1 56.76Q104.43 58.26 104.43 60.61Q104.39 66.42 102.15 67.46Z" fill="url(#paint_linear_197_32_1)" fill-opacity="1.000000" fill-rule="evenodd"/>
	<path id="14%" d="M80.95 68.62L82.35 69.51L102.84 39.56L101.48 38.62L80.95 68.62ZM86.45 39.93Q85.05 39.33 83.39 39.33Q81.01 39.33 79.39 40.43Q78.18 41.24 77.39 42.66Q76.31 44.53 76.31 47.06Q76.31 50.94 78.24 53.01Q78.88 53.7 79.73 54.19Q80.21 54.45 80.72 54.64Q81.9 55.08 83.25 55.08Q85.6 55.08 87.22 53.99Q88.47 53.15 89.29 51.66Q90.32 49.73 90.32 47.2Q90.32 43.26 88.35 41.24Q87.61 40.47 86.57 39.98Q86.51 39.95 86.45 39.93ZM84.38 53.91Q83.91 54.13 83.34 54.14Q82.43 54.14 81.77 53.73Q80.66 53.05 80.25 51.23Q79.92 49.69 79.92 47.2Q79.92 41.53 81.93 40.55Q82.54 40.26 83.29 40.26Q84.14 40.26 84.77 40.63Q85.91 41.31 86.34 43.22Q86.67 44.72 86.67 47.06Q86.63 52.87 84.38 53.91ZM104.21 53.47Q102.81 52.87 101.15 52.87Q98.78 52.87 97.15 53.97Q95.95 54.79 95.15 56.2Q94.07 58.08 94.07 60.61Q94.07 64.48 96.01 66.56Q96.64 67.24 97.5 67.73Q97.97 68 98.48 68.19Q99.67 68.62 101.01 68.62Q103.36 68.62 104.99 67.53Q106.24 66.69 107.06 65.2Q108.09 63.28 108.09 60.75Q108.09 56.81 106.12 54.79Q105.37 54.02 104.34 53.53Q104.28 53.5 104.21 53.47ZM102.15 67.46Q101.67 67.68 101.1 67.69Q100.19 67.69 99.53 67.28Q98.42 66.6 98.01 64.78Q97.68 63.23 97.68 60.75Q97.68 55.08 99.7 54.09Q100.31 53.81 101.06 53.81Q101.9 53.81 102.53 54.18Q103.68 54.86 104.1 56.76Q104.43 58.26 104.43 60.61Q104.39 66.42 102.15 67.46Z" fill="#FFFFFF" fill-opacity="1.000000" fill-rule="evenodd"/>
</svg>
