<svg width="158.531250" height="73.728027" viewBox="0 0 158.531 73.728" fill="none" xmlns="http://www.w3.org/2000/svg" xmlns:xlink="http://www.w3.org/1999/xlink">
	<desc>
			Created with Pixso.
	</desc>
	<defs>
		<linearGradient x1="81.000000" y1="-3.839966" x2="81.000000" y2="92.160034" id="paint_linear_197_43_0" gradientUnits="userSpaceOnUse">
			<stop stop-color="#EAC86B"/>
			<stop offset="1.000000" stop-color="#FFEFC1"/>
		</linearGradient>
		<linearGradient x1="81.000000" y1="-3.839966" x2="81.000000" y2="92.160034" id="paint_linear_197_43_1" gradientUnits="userSpaceOnUse">
			<stop stop-color="#10142C"/>
			<stop offset="1.000000" stop-color="#0424BF"/>
		</linearGradient>
	</defs>
	<path id="2,71%" d="M14.49 2.88C16.16 2.24 18.36 1.92 21.12 1.92C22.78 1.92 24.57 2.24 26.49 2.88Q27.21 3.09 27.89 3.38Q29.97 4.24 31.77 5.76C33.43 7.1 34.78 8.89 35.8 11.13C36.89 13.31 37.43 16.03 37.43 19.29C37.43 22.56 36.73 25.63 35.32 28.51Q33.31 32.83 29.08 37.91Q24.86 42.91 18.43 49.24Q12.09 55.48 3.45 64.32L0 67.58L0 68.16L43.2 68.16L43.2 57.88L42.72 57.88C42.72 58.14 42.68 58.62 42.62 59.32C42.56 60.03 42.33 60.76 41.95 61.53Q41.47 62.59 40.51 63.45Q40.5 63.46 40.49 63.46Q39.54 64.32 37.82 64.32L5.47 64.32Q13.15 57.21 19.68 51.36Q26.2 45.5 31 40.22Q35.8 34.94 38.49 29.85Q40.34 26.47 40.96 22.87Q41.28 21.06 41.28 19.2C41.28 15.23 40.57 12 39.16 9.5Q37.15 5.76 34.08 3.64C32.03 2.24 29.82 1.28 27.45 0.76C25.15 0.25 23.04 3.05e-5 21.12 3.05e-5C18.3 3.05e-5 15.77 0.38 13.53 1.15C11.29 1.92 9.34 2.94 7.68 4.22Q5.28 6.04 3.84 8.35Q2.4 10.56 2.01 12.86C1.88 13.5 1.95 14.27 2.2 15.16C2.52 16 3.16 16.48 4.12 16.6C4.96 16.67 5.69 16.41 6.33 15.84C6.97 15.26 7.45 13.92 7.77 11.8C7.96 10.72 8.22 9.6 8.54 8.44L8.54 8.44Q9.12 6.72 10.56 5.28C11.52 4.32 12.83 3.52 14.49 2.88ZM74.37 68.16L93.48 4.7L93.48 0.96L57 0.96L57 11.32L57.57 11.32C57.57 11.07 57.6 10.59 57.67 9.88C57.73 9.18 57.92 8.48 58.24 7.77C58.56 7 59.04 6.33 59.68 5.76C60.32 5.18 61.22 4.89 62.37 4.89L92.04 4.7L69.57 68.16L74.37 68.16ZM111.51 60.57L111.51 0.96L111.32 0.96L93.46 17.08L94.42 18.14L103.06 10.36C104.09 9.4 104.98 8.92 105.75 8.92C106.46 8.92 106.94 9.34 107.19 10.17C107.51 11 107.67 11.93 107.67 12.96L107.67 60.57C107.67 62.24 107.1 63.55 105.94 64.51C104.79 65.47 103.48 66.2 102.01 66.72C100.54 67.16 99.13 67.45 97.78 67.58Q95.86 67.68 95.29 67.68L95.29 68.16L123.9 68.16L123.9 67.68Q123.32 67.68 121.3 67.58C120.02 67.45 118.65 67.16 117.18 66.72C115.7 66.2 114.39 65.47 113.24 64.51C112.09 63.55 111.51 62.24 111.51 60.57ZM48.4 62.97C46.48 62.97 45.52 63.87 45.52 65.66C45.52 67.45 46.48 68.35 48.4 68.35C48.72 68.35 48.97 68.32 49.17 68.25C49.36 68.25 49.58 68.22 49.84 68.16C50.22 68.03 50.41 68.12 50.41 68.44C50.48 68.83 50.35 69.28 50.03 69.79C49.77 70.36 49.36 70.97 48.78 71.61C48.27 72.25 47.66 72.8 46.96 73.24L47.34 73.72C49.01 72.7 50.19 71.61 50.89 70.46C51.6 69.37 51.95 68.16 51.95 66.81C51.95 65.72 51.66 64.83 51.09 64.12C50.51 63.36 49.61 62.97 48.4 62.97Z" fill="url(#paint_linear_197_43_0)" fill-opacity="1.000000" fill-rule="evenodd"/>
	<path id="2,71%" d="M131.39 68.62L132.79 69.51L153.28 39.56L151.92 38.62L131.39 68.62ZM136.89 39.93Q135.48 39.33 133.82 39.33Q131.45 39.33 129.82 40.43Q128.62 41.24 127.82 42.66Q126.75 44.53 126.75 47.06Q126.75 50.94 128.68 53.01Q129.32 53.7 130.17 54.19Q130.64 54.45 131.15 54.64Q132.34 55.08 133.68 55.08Q136.04 55.08 137.66 53.99Q138.91 53.15 139.73 51.66Q140.76 49.73 140.76 47.2Q140.76 43.26 138.79 41.24Q138.04 40.47 137.01 39.98Q136.95 39.95 136.89 39.93ZM134.82 53.91Q134.35 54.13 133.78 54.14Q132.87 54.14 132.2 53.73Q131.09 53.05 130.68 51.23Q130.35 49.69 130.35 47.2Q130.35 41.53 132.37 40.55Q132.98 40.26 133.73 40.26Q134.57 40.26 135.2 40.63Q136.35 41.31 136.78 43.22Q137.1 44.72 137.1 47.06Q137.07 52.87 134.82 53.91ZM154.65 53.47Q153.25 52.87 151.59 52.87Q149.22 52.87 147.59 53.97Q146.39 54.79 145.59 56.2Q144.51 58.08 144.51 60.61Q144.51 64.48 146.44 66.56Q147.08 67.24 147.93 67.73Q148.41 68 148.92 68.19Q150.1 68.62 151.45 68.62Q153.8 68.62 155.42 67.53Q156.68 66.69 157.5 65.2Q158.53 63.28 158.53 60.75Q158.53 56.81 156.56 54.79Q155.81 54.02 154.78 53.53Q154.71 53.5 154.65 53.47ZM152.58 67.46Q152.11 67.68 151.54 67.69Q150.63 67.69 149.97 67.28Q148.86 66.6 148.45 64.78Q148.12 63.23 148.12 60.75Q148.12 55.08 150.14 54.09Q150.75 53.81 151.5 53.81Q152.34 53.81 152.97 54.18Q154.12 54.86 154.54 56.76Q154.87 58.26 154.87 60.61Q154.83 66.42 152.58 67.46Z" fill="url(#paint_linear_197_43_1)" fill-opacity="1.000000" fill-rule="evenodd"/>
	<path id="2,71%" d="M131.39 68.62L132.79 69.51L153.28 39.56L151.92 38.62L131.39 68.62ZM136.89 39.93Q135.48 39.33 133.82 39.33Q131.45 39.33 129.82 40.43Q128.62 41.24 127.82 42.66Q126.75 44.53 126.75 47.06Q126.75 50.94 128.68 53.01Q129.32 53.7 130.17 54.19Q130.64 54.45 131.15 54.64Q132.34 55.08 133.68 55.08Q136.04 55.08 137.66 53.99Q138.91 53.15 139.73 51.66Q140.76 49.73 140.76 47.2Q140.76 43.26 138.79 41.24Q138.04 40.47 137.01 39.98Q136.95 39.95 136.89 39.93ZM134.82 53.91Q134.35 54.13 133.78 54.14Q132.87 54.14 132.2 53.73Q131.09 53.05 130.68 51.23Q130.35 49.69 130.35 47.2Q130.35 41.53 132.37 40.55Q132.98 40.26 133.73 40.26Q134.57 40.26 135.2 40.63Q136.35 41.31 136.78 43.22Q137.1 44.72 137.1 47.06Q137.07 52.87 134.82 53.91ZM154.65 53.47Q153.25 52.87 151.59 52.87Q149.22 52.87 147.59 53.97Q146.39 54.79 145.59 56.2Q144.51 58.08 144.51 60.61Q144.51 64.48 146.44 66.56Q147.08 67.24 147.93 67.73Q148.41 68 148.92 68.19Q150.1 68.62 151.45 68.62Q153.8 68.62 155.42 67.53Q156.68 66.69 157.5 65.2Q158.53 63.28 158.53 60.75Q158.53 56.81 156.56 54.79Q155.81 54.02 154.78 53.53Q154.71 53.5 154.65 53.47ZM152.58 67.46Q152.11 67.68 151.54 67.69Q150.63 67.69 149.97 67.28Q148.86 66.6 148.45 64.78Q148.12 63.23 148.12 60.75Q148.12 55.08 150.14 54.09Q150.75 53.81 151.5 53.81Q152.34 53.81 152.97 54.18Q154.12 54.86 154.54 56.76Q154.87 58.26 154.87 60.61Q154.83 66.42 152.58 67.46Z" fill="#FFFFFF" fill-opacity="1.000000" fill-rule="evenodd"/>
</svg>
