<svg width="115.500000" height="69.519409" viewBox="0 0 115.5 69.5194" fill="none" xmlns="http://www.w3.org/2000/svg" xmlns:xlink="http://www.w3.org/1999/xlink">
	<desc>
			Created with Pixso.
	</desc>
	<defs>
		<linearGradient x1="59.500000" y1="-3.839966" x2="59.500000" y2="92.160034" id="paint_linear_197_34_0" gradientUnits="userSpaceOnUse">
			<stop stop-color="#EAC86B"/>
			<stop offset="1.000000" stop-color="#FFEFC1"/>
		</linearGradient>
		<linearGradient x1="59.500000" y1="-3.839966" x2="59.500000" y2="92.160034" id="paint_linear_197_34_1" gradientUnits="userSpaceOnUse">
			<stop stop-color="#10142C"/>
			<stop offset="1.000000" stop-color="#0424BF"/>
		</linearGradient>
	</defs>
	<path id="70%" d="M67.47 2.59C64.78 0.86 61.84 3.05e-5 58.64 3.05e-5C55.44 3.05e-5 52.46 0.86 49.71 2.59Q45.68 5.08 42.7 9.69Q39.82 14.3 38.1 20.64C37.01 24.86 36.46 29.5 36.46 34.56C36.46 39.61 37.01 44.25 38.1 48.48C39.25 52.7 40.78 56.35 42.7 59.42Q45.68 64.03 49.71 66.62Q51.85 67.91 54.16 68.53Q56.32 69.12 58.64 69.12Q61.23 69.12 63.6 68.39Q65.62 67.77 67.47 66.62C70.22 64.89 72.59 62.49 74.58 59.42C76.56 56.35 78.1 52.7 79.18 48.48C80.34 44.25 80.91 39.61 80.91 34.56C80.91 29.5 80.34 24.86 79.18 20.64C78.1 16.41 76.56 12.76 74.58 9.69C72.59 6.62 70.22 4.25 67.47 2.59ZM17.37 68.16L36.48 4.7L36.48 0.96L0 0.96L0 11.32L0.57 11.32C0.57 11.07 0.6 10.59 0.67 9.88C0.73 9.18 0.92 8.48 1.24 7.77C1.56 7 2.04 6.33 2.68 5.76C3.32 5.18 4.22 4.89 5.37 4.89L35.04 4.7L12.57 68.16L17.37 68.16ZM65.94 64.99C63.7 66.78 61.26 67.68 58.64 67.68C56.02 67.68 53.58 66.78 51.34 64.99C49.1 63.13 47.15 60.67 45.49 57.6C43.89 54.52 42.61 51 41.65 47.04C40.75 43 40.3 38.84 40.3 34.56C40.3 30.2 40.75 26.04 41.65 22.08C42.61 18.11 43.89 14.59 45.49 11.52C47.15 8.44 49.1 6.01 51.34 4.22C53.58 2.36 56.02 1.44 58.64 1.44C61.26 1.44 63.7 2.36 65.94 4.22C68.24 6.01 70.19 8.44 71.79 11.52Q74.29 16.12 75.63 22.08C76.59 26.04 77.07 30.2 77.07 34.56C77.07 38.84 76.59 43 75.63 47.04Q74.29 52.99 71.79 57.6C70.19 60.67 68.24 63.13 65.94 64.99Z" fill="url(#paint_linear_197_34_0)" fill-opacity="1.000000" fill-rule="evenodd"/>
	<path id="70%" d="M88.35 68.62L89.76 69.51L110.25 39.56L108.89 38.62L88.35 68.62ZM93.85 39.93Q92.45 39.33 90.79 39.33Q88.42 39.33 86.79 40.43Q85.59 41.24 84.79 42.66Q83.71 44.53 83.71 47.06Q83.71 50.94 85.65 53.01Q86.29 53.7 87.14 54.19Q87.61 54.45 88.12 54.64Q89.31 55.08 90.65 55.08Q93 55.08 94.63 53.99Q95.88 53.15 96.7 51.66Q97.73 49.73 97.73 47.2Q97.73 43.26 95.76 41.24Q95.01 40.47 93.98 39.98Q93.92 39.95 93.85 39.93ZM91.79 53.91Q91.31 54.13 90.75 54.14Q89.83 54.14 89.17 53.73Q88.06 53.05 87.65 51.23Q87.32 49.69 87.32 47.2Q87.32 41.53 89.34 40.55Q89.95 40.26 90.7 40.26Q91.54 40.26 92.17 40.63Q93.32 41.31 93.75 43.22Q94.07 44.72 94.07 47.06Q94.03 52.87 91.79 53.91ZM111.62 53.47Q110.22 52.87 108.56 52.87Q106.19 52.87 104.56 53.97Q103.35 54.79 102.56 56.2Q101.48 58.08 101.48 60.61Q101.48 64.48 103.41 66.56Q104.05 67.24 104.9 67.73Q105.38 68 105.89 68.19Q107.07 68.62 108.42 68.62Q110.77 68.62 112.39 67.53Q113.65 66.69 114.46 65.2Q115.5 63.28 115.5 60.75Q115.5 56.81 113.53 54.79Q112.78 54.02 111.75 53.53Q111.68 53.5 111.62 53.47ZM109.55 67.46Q109.08 67.68 108.51 67.69Q107.6 67.69 106.94 67.28Q105.83 66.6 105.42 64.78Q105.09 63.23 105.09 60.75Q105.09 55.08 107.1 54.09Q107.71 53.81 108.46 53.81Q109.31 53.81 109.94 54.18Q111.09 54.86 111.51 56.76Q111.84 58.26 111.84 60.61Q111.8 66.42 109.55 67.46Z" fill="url(#paint_linear_197_34_1)" fill-opacity="1.000000" fill-rule="evenodd"/>
	<path id="70%" d="M88.35 68.62L89.76 69.51L110.25 39.56L108.89 38.62L88.35 68.62ZM93.85 39.93Q92.45 39.33 90.79 39.33Q88.42 39.33 86.79 40.43Q85.59 41.24 84.79 42.66Q83.71 44.53 83.71 47.06Q83.71 50.94 85.65 53.01Q86.29 53.7 87.14 54.19Q87.61 54.45 88.12 54.64Q89.31 55.08 90.65 55.08Q93 55.08 94.63 53.99Q95.88 53.15 96.7 51.66Q97.73 49.73 97.73 47.2Q97.73 43.26 95.76 41.24Q95.01 40.47 93.98 39.98Q93.92 39.95 93.85 39.93ZM91.79 53.91Q91.31 54.13 90.75 54.14Q89.83 54.14 89.17 53.73Q88.06 53.05 87.65 51.23Q87.32 49.69 87.32 47.2Q87.32 41.53 89.34 40.55Q89.95 40.26 90.7 40.26Q91.54 40.26 92.17 40.63Q93.32 41.31 93.75 43.22Q94.07 44.72 94.07 47.06Q94.03 52.87 91.79 53.91ZM111.62 53.47Q110.22 52.87 108.56 52.87Q106.19 52.87 104.56 53.97Q103.35 54.79 102.56 56.2Q101.48 58.08 101.48 60.61Q101.48 64.48 103.41 66.56Q104.05 67.24 104.9 67.73Q105.38 68 105.89 68.19Q107.07 68.62 108.42 68.62Q110.77 68.62 112.39 67.53Q113.65 66.69 114.46 65.2Q115.5 63.28 115.5 60.75Q115.5 56.81 113.53 54.79Q112.78 54.02 111.75 53.53Q111.68 53.5 111.62 53.47ZM109.55 67.46Q109.08 67.68 108.51 67.69Q107.6 67.69 106.94 67.28Q105.83 66.6 105.42 64.78Q105.09 63.23 105.09 60.75Q105.09 55.08 107.1 54.09Q107.71 53.81 108.46 53.81Q109.31 53.81 109.94 54.18Q111.09 54.86 111.51 56.76Q111.84 58.26 111.84 60.61Q111.8 66.42 109.55 67.46Z" fill="#FFFFFF" fill-opacity="1.000000" fill-rule="evenodd"/>
</svg>
