<svg width="178.212891" height="73.728027" viewBox="0 0 178.213 73.728" fill="none" xmlns="http://www.w3.org/2000/svg" xmlns:xlink="http://www.w3.org/1999/xlink">
	<desc>
			Created with Pixso.
	</desc>
	<defs>
		<linearGradient x1="91.500000" y1="-3.839966" x2="91.500000" y2="92.160034" id="paint_linear_197_40_0" gradientUnits="userSpaceOnUse">
			<stop stop-color="#EAC86B"/>
			<stop offset="1.000000" stop-color="#FFEFC1"/>
		</linearGradient>
		<linearGradient x1="91.500000" y1="-3.839966" x2="91.500000" y2="92.160034" id="paint_linear_197_40_1" gradientUnits="userSpaceOnUse">
			<stop stop-color="#10142C"/>
			<stop offset="1.000000" stop-color="#0424BF"/>
		</linearGradient>
	</defs>
	<path id="9,9млн" d="M41.28 32.83C41.47 29.24 41.4 25.72 41.08 22.27C40.38 15.23 38.27 9.76 34.75 5.85Q33.23 4.13 31.37 2.92Q26.92 3.05e-5 20.54 3.05e-5Q16.37 3.05e-5 12.71 1.37Q12.49 1.45 12.28 1.53C9.79 2.49 7.61 3.93 5.76 5.85Q3.07 8.73 1.53 12.86Q0 16.99 0 22.27Q0 27.55 1.53 31.68Q3.07 35.8 5.76 38.68Q6.98 39.95 8.39 40.95Q10.18 42.24 12.28 43.1Q16.12 44.54 20.54 44.54Q22.94 44.54 25.44 43.77C27.1 43.2 28.67 42.36 30.14 41.28C31.68 40.19 33.08 38.88 34.36 37.34C35.64 35.74 36.67 33.95 37.43 31.96L37.53 31.96C37.53 33.18 37.4 34.88 37.15 37.05C36.96 39.23 36.51 41.63 35.8 44.25C35.1 46.81 34.04 49.47 32.64 52.22C31.29 54.91 29.47 57.37 27.16 59.61Q23.71 62.97 18.62 65.28C15.23 66.75 11.16 67.55 6.43 67.68L6.43 69.12C11.61 68.99 16.09 68.22 19.87 66.81Q25.63 64.6 29.66 61.15Q32.28 58.9 34.22 56.16Q35.25 54.69 36.09 53.08Q37.35 50.76 38.29 48.31Q39.22 45.9 39.84 43.39C40.67 39.93 41.15 36.41 41.28 32.83ZM96.12 32.83C96.31 29.24 96.25 25.72 95.93 22.27C95.22 15.23 93.11 9.76 89.59 5.85Q88.07 4.13 86.22 2.92Q81.76 3.05e-5 75.38 3.05e-5C72.44 3.05e-5 69.69 0.51 67.13 1.53C64.63 2.49 62.45 3.93 60.6 5.85C58.81 7.77 57.4 10.11 56.37 12.86C55.35 15.61 54.84 18.75 54.84 22.27C54.84 25.79 55.35 28.92 56.37 31.68C57.4 34.43 58.81 36.76 60.6 38.68Q61.82 39.95 63.23 40.95Q65.03 42.24 67.13 43.1C69.69 44.06 72.44 44.54 75.38 44.54C76.98 44.54 78.61 44.28 80.28 43.77C81.94 43.2 83.51 42.36 84.98 41.28C86.52 40.19 87.93 38.88 89.21 37.34Q89.4 37.1 89.58 36.85Q91.24 34.64 92.28 31.96L92.37 31.96C92.37 33.18 92.25 34.88 91.99 37.05C91.8 39.23 91.35 41.63 90.65 44.25C89.94 46.81 88.89 49.47 87.48 52.22C86.13 54.91 84.31 57.37 82.01 59.61Q78.55 62.97 73.46 65.28C70.07 66.75 66.01 67.55 61.27 67.68L61.27 69.12C66.45 68.99 70.93 68.22 74.71 66.81C78.55 65.34 81.81 63.45 84.5 61.15Q87.13 58.9 89.06 56.16Q90.1 54.69 90.93 53.08Q92.2 50.76 93.14 48.31Q94.06 45.9 94.68 43.39C95.51 39.93 95.99 36.41 96.12 32.83ZM22.14 43Q21.34 43.1 20.54 43.1Q20.13 43.1 19.73 43.07Q16.98 42.9 14.3 41.56C12.32 40.54 10.56 39.13 9.02 37.34Q6.72 34.56 5.28 30.72C4.32 28.16 3.84 25.34 3.84 22.27Q3.84 17.66 5.28 13.82C6.24 11.26 7.48 9.08 9.02 7.29Q11.23 4.62 14.05 3.1Q14.18 3.03 14.3 2.97C16.35 1.95 18.43 1.44 20.54 1.44C22.65 1.44 24.7 1.95 26.68 2.97Q27.32 3.29 27.92 3.66Q30.23 5.08 32.06 7.29C33.59 9.08 34.84 11.26 35.8 13.82Q37.24 17.66 37.24 22.27Q37.24 26.88 35.8 30.72C34.84 33.28 33.59 35.48 32.06 37.34Q30.46 39.2 28.5 40.51Q27.63 41.09 26.68 41.56Q24.46 42.71 22.14 43ZM81.53 41.56C79.54 42.59 77.49 43.1 75.38 43.1C73.27 43.1 71.19 42.59 69.14 41.56C67.16 40.54 65.4 39.13 63.86 37.34Q61.56 34.56 60.12 30.72C59.16 28.16 58.68 25.34 58.68 22.27Q58.68 17.66 60.12 13.82C61.08 11.26 62.33 9.08 63.86 7.29C65.4 5.44 67.16 4 69.14 2.97C71.19 1.95 73.27 1.44 75.38 1.44C77.49 1.44 79.54 1.95 81.53 2.97Q82.16 3.29 82.76 3.66Q85.07 5.08 86.9 7.29C88.44 9.08 89.69 11.26 90.65 13.82C91.61 16.38 92.09 19.2 92.09 22.27C92.09 25.34 91.61 28.16 90.65 30.72C89.69 33.28 88.44 35.48 86.9 37.34Q85.31 39.2 83.34 40.51Q82.47 41.09 81.53 41.56ZM46.24 62.97C44.32 62.97 43.36 63.87 43.36 65.66C43.36 67.45 44.32 68.35 46.24 68.35C46.56 68.35 46.82 68.32 47.01 68.25C47.2 68.25 47.43 68.22 47.68 68.16C48.07 68.03 48.26 68.12 48.26 68.44C48.32 68.83 48.19 69.28 47.87 69.79C47.62 70.36 47.2 70.97 46.63 71.61C46.11 72.25 45.51 72.8 44.8 73.24L45.19 73.72C46.85 72.7 48.03 71.61 48.74 70.46C49.44 69.37 49.79 68.16 49.79 66.81C49.79 65.72 49.51 64.83 48.93 64.12C48.35 63.36 47.46 62.97 46.24 62.97Z" fill="url(#paint_linear_197_40_0)" fill-opacity="1.000000" fill-rule="evenodd"/>
	<path id="9,9млн" d="M102.81 43.68L100.37 43.68L100.37 68.16L102.19 68.16L102.19 45.74Q102.24 45.84 102.48 46.36L103.01 47.42C103.2 47.8 103.37 48.17 103.53 48.52C103.69 48.84 103.77 49.02 103.77 49.05L110.69 62.01L112.37 62.01L119.23 49.15C119.26 49.12 119.36 48.94 119.52 48.62C119.68 48.27 119.85 47.88 120.05 47.47C120.24 47.05 120.41 46.68 120.57 46.36C120.73 46.01 120.83 45.8 120.86 45.74L120.86 68.16L122.69 68.16L122.69 43.68L120.24 43.68L111.6 60.19L102.81 43.68ZM129.52 66.33Q128.89 66.33 128.27 66.04L128.27 68.35C128.5 68.41 128.69 68.44 128.85 68.44C129.01 68.48 129.22 68.49 129.47 68.49C130.72 68.49 131.76 68.11 132.59 67.34C133.46 66.57 134.14 65.34 134.66 63.64C135.2 61.95 135.58 59.77 135.81 57.12C136.06 54.43 136.19 51.18 136.19 47.37L136.19 45.36L148.1 45.36L148.1 68.16L149.92 68.16L149.92 43.68L134.42 43.68L134.42 45.98C134.42 49.85 134.32 53.1 134.13 55.72Q133.89 59.61 133.31 61.96C132.93 63.53 132.42 64.65 131.78 65.32C131.17 66 130.42 66.33 129.52 66.33ZM160.74 43.68L158.91 43.68L158.91 68.16L160.74 68.16L160.74 56.4L176.38 56.4L176.38 68.16L178.21 68.16L178.21 43.68L176.38 43.68L176.38 54.72L160.74 54.72L160.74 43.68Z" fill="url(#paint_linear_197_40_1)" fill-opacity="1.000000" fill-rule="evenodd"/>
	<path id="9,9млн" d="M102.81 43.68L100.37 43.68L100.37 68.16L102.19 68.16L102.19 45.74Q102.24 45.84 102.48 46.36L103.01 47.42C103.2 47.8 103.37 48.17 103.53 48.52C103.69 48.84 103.77 49.02 103.77 49.05L110.69 62.01L112.37 62.01L119.23 49.15C119.26 49.12 119.36 48.94 119.52 48.62C119.68 48.27 119.85 47.88 120.05 47.47C120.24 47.05 120.41 46.68 120.57 46.36C120.73 46.01 120.83 45.8 120.86 45.74L120.86 68.16L122.69 68.16L122.69 43.68L120.24 43.68L111.6 60.19L102.81 43.68ZM129.52 66.33Q128.89 66.33 128.27 66.04L128.27 68.35C128.5 68.41 128.69 68.44 128.85 68.44C129.01 68.48 129.22 68.49 129.47 68.49C130.72 68.49 131.76 68.11 132.59 67.34C133.46 66.57 134.14 65.34 134.66 63.64C135.2 61.95 135.58 59.77 135.81 57.12C136.06 54.43 136.19 51.18 136.19 47.37L136.19 45.36L148.1 45.36L148.1 68.16L149.92 68.16L149.92 43.68L134.42 43.68L134.42 45.98C134.42 49.85 134.32 53.1 134.13 55.72Q133.89 59.61 133.31 61.96C132.93 63.53 132.42 64.65 131.78 65.32C131.17 66 130.42 66.33 129.52 66.33ZM160.74 43.68L158.91 43.68L158.91 68.16L160.74 68.16L160.74 56.4L176.38 56.4L176.38 68.16L178.21 68.16L178.21 43.68L176.38 43.68L176.38 54.72L160.74 54.72L160.74 43.68Z" fill="#FFFFFF" fill-opacity="1.000000" fill-rule="evenodd"/>
</svg>
