<svg width="181.587891" height="74.400024" viewBox="0 0 181.588 74.4" fill="none" xmlns="http://www.w3.org/2000/svg" xmlns:xlink="http://www.w3.org/1999/xlink">
	<desc>
			Created with Pixso.
	</desc>
	<defs>
		<linearGradient x1="93.500000" y1="-3.167969" x2="93.500000" y2="92.832031" id="paint_linear_197_37_0" gradientUnits="userSpaceOnUse">
			<stop stop-color="#EAC86B"/>
			<stop offset="1.000000" stop-color="#FFEFC1"/>
		</linearGradient>
		<linearGradient x1="93.500000" y1="-3.167969" x2="93.500000" y2="92.832031" id="paint_linear_197_37_1" gradientUnits="userSpaceOnUse">
			<stop stop-color="#10142C"/>
			<stop offset="1.000000" stop-color="#0424BF"/>
		</linearGradient>
	</defs>
	<path id="5,2млн" d="M40.51 56.92Q42.24 52.8 42.24 47.52Q42.24 42.24 40.51 38.01Q39.03 34.32 36.5 31.61Q36.07 31.15 35.61 30.72Q35.48 30.58 35.34 30.46Q32.25 27.57 27.93 26.01Q23.42 24.28 17.85 24.28C16.64 24.28 15.39 24.41 14.11 24.67C12.83 24.86 11.58 25.12 10.36 25.44C9.21 25.76 8.12 26.11 7.1 26.49Q5.56 26.97 4.51 27.45L8.16 5.47L39.36 5.47L40.8 3.05e-5L40.22 3.05e-5C39.77 0.51 39.23 0.92 38.59 1.24C38.01 1.5 36.8 1.63 34.94 1.63L7.29 1.63L2.68 29.66C2.94 29.6 3.52 29.4 4.41 29.08Q5.76 28.6 7.77 28.12Q9.79 27.55 12.38 27.16Q14.97 26.68 17.66 26.68C20.48 26.68 23.13 27.2 25.63 28.22C28.19 29.24 30.4 30.68 32.25 32.54C34.17 34.33 35.68 36.51 36.76 39.07C37.85 41.63 38.4 44.44 38.4 47.52C38.4 50.59 37.85 53.34 36.76 55.77C35.68 58.2 34.24 60.25 32.44 61.92C30.72 63.52 28.73 64.76 26.49 65.66Q24.57 66.37 22.58 66.68Q21.1 66.91 19.58 66.91C17.6 66.91 15.68 66.65 13.82 66.14Q11.13 65.28 8.83 63.93C7.29 62.97 5.88 61.88 4.6 60.67C3.32 59.39 2.24 58.08 1.34 56.73L0 57.21Q1.15 59.8 3.07 62.11C4.35 63.58 5.85 64.89 7.58 66.04C9.31 67.19 11.2 68.12 13.24 68.83Q14.28 69.14 15.33 69.35Q17.51 69.79 19.77 69.79C22.97 69.79 25.95 69.31 28.7 68.35Q32.24 67.03 34.94 64.72Q35.38 64.34 35.8 63.93Q36.5 63.27 37.13 62.55Q39.25 60.11 40.51 56.92ZM70.55 3.55C72.22 2.91 74.43 2.59 77.18 2.59C78.84 2.59 80.63 2.91 82.55 3.55C84.47 4.12 86.23 5.08 87.83 6.43C89.5 7.77 90.84 9.56 91.87 11.8C92.95 13.98 93.5 16.7 93.5 19.96C93.5 23.23 92.79 26.3 91.39 29.18Q89.37 33.5 85.15 38.59Q80.92 43.58 74.49 49.92Q68.15 56.16 59.51 64.99L56.06 68.25L56.06 68.83L99.26 68.83L99.26 58.56L98.78 58.56C98.78 58.81 98.75 59.29 98.68 60C98.62 60.7 98.39 61.44 98.01 62.2C97.69 62.91 97.21 63.55 96.57 64.12C95.93 64.7 95.03 64.99 93.88 64.99L61.53 64.99Q69.21 57.88 75.74 52.03Q82.27 46.17 87.07 40.89Q91.87 35.61 94.55 30.52C96.41 27.13 97.34 23.58 97.34 19.87C97.34 15.9 96.63 12.67 95.23 10.17Q93.21 6.43 90.14 4.32C88.09 2.91 85.88 1.95 83.51 1.44C81.21 0.92 79.1 0.67 77.18 0.67C74.36 0.67 71.83 1.05 69.59 1.82C67.35 2.59 65.4 3.61 63.74 4.89C62.14 6.11 60.86 7.48 59.9 9.02C58.94 10.49 58.33 12 58.07 13.53C57.95 14.17 58.01 14.94 58.27 15.84C58.59 16.67 59.23 17.15 60.19 17.28C61.02 17.34 61.75 17.08 62.39 16.51C63.03 15.93 63.51 14.59 63.83 12.48C64.03 11.39 64.28 10.27 64.6 9.12C64.99 7.96 65.66 6.91 66.62 5.95C67.58 4.99 68.89 4.19 70.55 3.55ZM47.46 63.64C45.54 63.64 44.58 64.54 44.58 66.33C44.58 68.12 45.54 69.02 47.46 69.02C47.78 69.02 48.04 68.99 48.23 68.92C48.42 68.92 48.64 68.89 48.9 68.83C49.28 68.7 49.48 68.8 49.48 69.12C49.54 69.5 49.41 69.95 49.09 70.46C48.84 71.04 48.42 71.64 47.84 72.28C47.33 72.92 46.72 73.47 46.02 73.92L46.4 74.4C48.07 73.37 49.25 72.28 49.96 71.13C50.66 70.04 51.01 68.83 51.01 67.48C51.01 66.4 50.72 65.5 50.15 64.8C49.57 64.03 48.68 63.64 47.46 63.64Z" fill="url(#paint_linear_197_37_0)" fill-opacity="1.000000" fill-rule="evenodd"/>
	<path id="5,2млн" d="M106.19 44.35L103.74 44.35L103.74 68.83L105.56 68.83L105.56 46.41Q105.61 46.51 105.85 47.04L106.38 48.09C106.57 48.48 106.75 48.84 106.91 49.2C107.07 49.52 107.15 49.69 107.15 49.72L114.06 62.68L115.74 62.68L122.6 49.82C122.64 49.79 122.73 49.61 122.89 49.29C123.05 48.94 123.23 48.56 123.42 48.14C123.61 47.72 123.79 47.36 123.95 47.04C124.11 46.68 124.2 46.48 124.24 46.41L124.24 68.83L126.06 68.83L126.06 44.35L123.61 44.35L114.97 60.86L106.19 44.35ZM132.89 67Q132.27 67 131.65 66.72L131.65 69.02C131.87 69.08 132.06 69.12 132.22 69.12C132.38 69.15 132.59 69.16 132.85 69.16C134.09 69.16 135.13 68.78 135.97 68.01C136.83 67.24 137.52 66.01 138.03 64.32C138.57 62.62 138.96 60.44 139.18 57.79C139.44 55.1 139.57 51.85 139.57 48.04L139.57 46.03L151.47 46.03L151.47 68.83L153.29 68.83L153.29 44.35L137.79 44.35L137.79 46.65C137.79 50.52 137.69 53.77 137.5 56.4Q137.26 60.28 136.69 62.64C136.3 64.2 135.79 65.32 135.15 66C134.54 66.67 133.79 67 132.89 67ZM164.11 44.35L162.29 44.35L162.29 68.83L164.11 68.83L164.11 57.07L179.76 57.07L179.76 68.83L181.58 68.83L181.58 44.35L179.76 44.35L179.76 55.39L164.11 55.39L164.11 44.35Z" fill="url(#paint_linear_197_37_1)" fill-opacity="1.000000" fill-rule="evenodd"/>
	<path id="5,2млн" d="M106.19 44.35L103.74 44.35L103.74 68.83L105.56 68.83L105.56 46.41Q105.61 46.51 105.85 47.04L106.38 48.09C106.57 48.48 106.75 48.84 106.91 49.2C107.07 49.52 107.15 49.69 107.15 49.72L114.06 62.68L115.74 62.68L122.6 49.82C122.64 49.79 122.73 49.61 122.89 49.29C123.05 48.94 123.23 48.56 123.42 48.14C123.61 47.72 123.79 47.36 123.95 47.04C124.11 46.68 124.2 46.48 124.24 46.41L124.24 68.83L126.06 68.83L126.06 44.35L123.61 44.35L114.97 60.86L106.19 44.35ZM132.89 67Q132.27 67 131.65 66.72L131.65 69.02C131.87 69.08 132.06 69.12 132.22 69.12C132.38 69.15 132.59 69.16 132.85 69.16C134.09 69.16 135.13 68.78 135.97 68.01C136.83 67.24 137.52 66.01 138.03 64.32C138.57 62.62 138.96 60.44 139.18 57.79C139.44 55.1 139.57 51.85 139.57 48.04L139.57 46.03L151.47 46.03L151.47 68.83L153.29 68.83L153.29 44.35L137.79 44.35L137.79 46.65C137.79 50.52 137.69 53.77 137.5 56.4Q137.26 60.28 136.69 62.64C136.3 64.2 135.79 65.32 135.15 66C134.54 66.67 133.79 67 132.89 67ZM164.11 44.35L162.29 44.35L162.29 68.83L164.11 68.83L164.11 57.07L179.76 57.07L179.76 68.83L181.58 68.83L181.58 44.35L179.76 44.35L179.76 55.39L164.11 55.39L164.11 44.35Z" fill="#FFFFFF" fill-opacity="1.000000" fill-rule="evenodd"/>
</svg>
