<svg width="112.001465" height="42.000000" viewBox="0 0 112.001 42" fill="none" xmlns="http://www.w3.org/2000/svg" xmlns:xlink="http://www.w3.org/1999/xlink">
	<desc>
			Created with Pixso.
	</desc>
	<defs/>
	<path id="Vector" d="M2.86 41.9L2.86 41.66C3.26 41.6 3.26 41.53 3.17 41.25C3.11 41.05 3.01 40.76 2.91 40.5L1.67 40.5C1.6 40.71 1.51 40.95 1.45 41.15C1.32 41.56 1.47 41.61 1.97 41.66L1.97 41.9L0.4 41.9L0.4 41.66C0.8 41.61 0.9 41.55 1.12 41L2.44 37.65L2.75 37.59C3.15 38.72 3.59 39.88 4 40.96C4.23 41.56 4.29 41.61 4.7 41.66L4.7 41.9L2.86 41.9ZM2.3 38.8C2.12 39.27 1.94 39.7 1.78 40.17L2.79 40.17L2.3 38.8ZM7.87 39.58C8.54 39.7 9.01 40.02 9.01 40.64C9.01 41.04 8.76 41.42 8.4 41.63C8.07 41.81 7.66 41.9 7.19 41.9L5.41 41.9L5.41 41.66C5.9 41.61 5.95 41.57 5.95 41.03L5.95 38.56C5.95 38.02 5.87 37.96 5.42 37.92L5.42 37.68L7.35 37.68C7.83 37.68 8.14 37.75 8.39 37.91C8.63 38.07 8.78 38.31 8.78 38.63C8.78 39.17 8.28 39.49 7.87 39.58L7.87 39.58ZM7.06 39.49C7.67 39.49 7.89 39.23 7.89 38.75C7.89 38.18 7.52 37.97 7.18 37.97C7.02 37.97 6.93 37.99 6.88 38.02C6.81 38.06 6.81 38.12 6.81 38.26L6.81 39.49L7.06 39.49L7.06 39.49ZM6.81 41.02C6.81 41.48 7.02 41.62 7.37 41.62C7.72 41.61 8.06 41.3 8.06 40.7C8.06 40.1 7.75 39.77 7.04 39.77L6.81 39.77L6.81 41.02ZM12.42 39.58C13.08 39.7 13.56 40.02 13.56 40.64C13.56 41.04 13.31 41.42 12.95 41.63C12.62 41.81 12.21 41.9 11.74 41.9L9.96 41.9L9.96 41.66C10.45 41.61 10.5 41.57 10.5 41.03L10.5 38.56C10.5 38.02 10.42 37.96 9.97 37.92L9.97 37.68L11.9 37.68C12.38 37.68 12.69 37.75 12.94 37.91C13.18 38.07 13.33 38.31 13.33 38.63C13.33 39.17 12.83 39.49 12.42 39.58L12.42 39.58ZM11.61 39.49C12.22 39.49 12.44 39.23 12.44 38.75C12.44 38.18 12.07 37.97 11.73 37.97C11.57 37.97 11.48 37.99 11.43 38.02C11.36 38.06 11.36 38.12 11.36 38.26L11.36 39.49L11.61 39.49L11.61 39.49ZM11.36 41.02C11.36 41.48 11.57 41.62 11.92 41.62C12.27 41.61 12.61 41.3 12.61 40.7C12.61 40.1 12.3 39.77 11.59 39.77L11.36 39.77L11.36 41.02ZM16.75 41.9L16.75 41.66C17.15 41.6 17.15 41.53 17.06 41.25C17 41.05 16.9 40.76 16.8 40.5L15.56 40.5C15.49 40.71 15.41 40.95 15.34 41.15C15.21 41.56 15.36 41.61 15.86 41.66L15.86 41.9L14.29 41.9L14.29 41.66C14.69 41.61 14.8 41.55 15.01 41L16.33 37.65L16.64 37.59C17.05 38.72 17.48 39.88 17.89 40.96C18.12 41.56 18.18 41.61 18.59 41.66L18.59 41.9L16.75 41.9ZM16.19 38.8C16.01 39.27 15.83 39.7 15.67 40.17L16.68 40.17L16.19 38.8ZM24.35 41.9L24.35 41.66C24.84 41.61 24.87 41.56 24.87 40.98L24.86 38.45C24.4 39.56 23.9 40.8 23.44 41.9L23.23 41.9C22.82 40.84 22.37 39.64 21.91 38.5C21.83 40.54 21.83 40.94 21.83 41.17C21.84 41.52 21.96 41.61 22.44 41.66L22.44 41.9L20.86 41.9L20.86 41.66C21.23 41.63 21.39 41.55 21.44 41.16C21.47 40.97 21.49 40.6 21.64 38.46C21.66 38.15 21.61 37.97 21.07 37.92L21.07 37.68L22.44 37.68L23.67 40.54L24.9 37.68L26.24 37.68L26.24 37.92C25.73 37.97 25.67 38.03 25.69 38.55L25.74 40.98C25.74 41.56 25.77 41.59 26.28 41.66L26.28 41.9L24.35 41.9L24.35 41.9ZM30.72 40.79C30.69 40.97 30.51 41.72 30.45 41.9L27.16 41.9L27.16 41.66C27.73 41.6 27.77 41.57 27.77 41.03L27.77 38.55C27.77 38 27.7 37.96 27.27 37.92L27.27 37.68L29.33 37.68C30 37.68 30.22 37.68 30.31 37.67C30.31 37.79 30.35 38.32 30.37 38.72L30.12 38.75C30.07 38.53 29.96 38.27 29.85 38.15C29.74 38.02 29.65 37.98 29.33 37.98L28.92 37.98C28.67 37.98 28.65 38 28.65 38.21L28.65 39.57L29.27 39.57C29.63 39.57 29.69 39.47 29.79 39.01L30.03 39.01L30.03 40.46L29.79 40.46C29.68 39.98 29.63 39.9 29.26 39.9L28.65 39.9L28.65 41.02C28.65 41.46 28.66 41.6 29.06 41.61L29.51 41.61C29.86 41.61 29.96 41.56 30.1 41.39C30.26 41.2 30.38 40.96 30.48 40.74L30.72 40.8L30.72 40.79ZM34.94 40.76C34.89 41.04 34.71 41.72 34.65 41.9L31.5 41.9L31.5 41.66C32.06 41.62 32.11 41.57 32.11 41.03L32.11 38.56C32.11 38.02 32.05 37.96 31.57 37.92L31.57 37.68L33.56 37.68L33.56 37.92C33.06 37.97 33 38.02 33 38.56L33 41.07C33 41.43 33.01 41.59 33.36 41.6C33.37 41.6 33.66 41.6 33.69 41.6C34.05 41.6 34.14 41.53 34.3 41.35C34.42 41.22 34.58 40.94 34.7 40.68L34.94 40.76L34.94 40.76ZM38.12 41.9L38.12 41.66C38.52 41.6 38.52 41.53 38.43 41.25C38.36 41.05 38.26 40.76 38.17 40.5L36.93 40.5C36.86 40.71 36.77 40.95 36.71 41.15C36.57 41.56 36.73 41.61 37.23 41.66L37.23 41.9L35.66 41.9L35.66 41.66C36.06 41.61 36.16 41.55 36.38 41L37.7 37.65L38 37.59C38.41 38.72 38.84 39.88 39.25 40.96C39.49 41.56 39.55 41.61 39.96 41.66L39.96 41.9L38.12 41.9ZM37.56 38.8C37.37 39.27 37.2 39.7 37.04 40.17L38.05 40.17L37.56 38.8ZM43.14 38.75C43.02 38.34 42.84 37.86 42.25 37.86C41.88 37.86 41.64 38.13 41.64 38.49C41.64 38.86 41.88 39.06 42.44 39.35C43.12 39.69 43.55 40.03 43.55 40.67C43.55 41.44 42.93 41.99 42.02 41.99C41.61 41.99 41.25 41.88 40.95 41.79C40.91 41.64 40.8 40.97 40.76 40.66L41.01 40.61C41.13 41.01 41.49 41.72 42.11 41.72C42.5 41.72 42.73 41.48 42.73 41.06C42.73 40.68 42.51 40.46 41.97 40.17C41.31 39.81 40.88 39.48 40.88 38.81C40.88 38.14 41.4 37.59 42.35 37.59C42.79 37.59 43.12 37.69 43.26 37.71C43.29 37.95 43.33 38.28 43.38 38.69L43.14 38.75L43.14 38.75ZM48.01 38.8C47.94 38.51 47.8 38.26 47.74 38.17C47.63 38.03 47.58 37.98 47.2 37.98L46.79 37.98L46.79 41.03C46.79 41.57 46.86 41.61 47.42 41.66L47.42 41.9L45.31 41.9L45.31 41.66C45.85 41.61 45.91 41.57 45.91 41.03L45.91 37.98L45.52 37.98C45.17 37.98 45.06 38.04 44.94 38.2C44.85 38.32 44.77 38.55 44.68 38.81L44.44 38.81C44.49 38.34 44.53 37.83 44.54 37.52L44.73 37.52C44.83 37.67 44.91 37.68 45.1 37.68L47.64 37.68C47.81 37.68 47.9 37.64 48.01 37.52L48.19 37.52C48.2 37.79 48.22 38.36 48.25 38.78L48.01 38.8ZM49.17 41.9L49.17 41.66C49.66 41.61 49.72 41.57 49.72 41.03L49.72 38.56C49.72 38.02 49.65 37.96 49.17 37.92L49.17 37.68L51.14 37.68L51.14 37.92C50.66 37.97 50.6 38.02 50.6 38.56L50.6 41.03C50.6 41.57 50.66 41.61 51.14 41.66L51.14 41.9L49.17 41.9ZM58 41.94C57.96 41.94 57.89 41.94 57.81 41.93C57 41.89 56.77 41.72 56.58 41.44C56.32 41.09 56.14 40.69 55.92 40.3C55.83 40.13 55.74 40.09 55.53 40.09L55.41 40.08L55.41 41.03C55.41 41.55 55.47 41.6 55.95 41.66L55.95 41.9L54 41.9L54 41.66C54.49 41.6 54.54 41.55 54.54 41.03L54.54 38.54C54.54 38.03 54.48 37.96 54 37.92L54 37.68L55.85 37.68C56.41 37.68 56.74 37.75 56.99 37.93C57.25 38.1 57.42 38.39 57.42 38.79C57.42 39.37 57.05 39.67 56.63 39.84C56.72 40.04 56.97 40.46 57.16 40.76C57.38 41.11 57.52 41.29 57.64 41.43C57.79 41.6 57.86 41.65 58.04 41.72L58 41.94L58 41.94ZM55.58 39.82C55.85 39.82 56.06 39.77 56.2 39.65C56.41 39.47 56.5 39.22 56.5 38.89C56.5 38.2 56.11 37.95 55.76 37.95C55.59 37.95 55.5 37.98 55.47 38.02C55.42 38.06 55.41 38.14 55.41 38.27L55.41 39.82L55.58 39.82L55.58 39.82ZM62.23 40.79C62.2 40.97 62.02 41.72 61.97 41.9L58.67 41.9L58.67 41.66C59.25 41.6 59.29 41.57 59.29 41.03L59.29 38.55C59.29 38 59.21 37.96 58.78 37.92L58.78 37.68L60.84 37.68C61.51 37.68 61.73 37.68 61.82 37.67C61.83 37.79 61.86 38.32 61.89 38.72L61.64 38.75C61.58 38.53 61.47 38.27 61.36 38.15C61.25 38.02 61.17 37.98 60.84 37.98L60.43 37.98C60.19 37.98 60.16 38 60.16 38.21L60.16 39.57L60.79 39.57C61.14 39.57 61.2 39.47 61.3 39.01L61.55 39.01L61.55 40.46L61.3 40.46C61.2 39.98 61.15 39.9 60.78 39.9L60.16 39.9L60.16 41.02C60.16 41.46 60.17 41.6 60.57 41.61L61.02 41.61C61.37 41.61 61.47 41.56 61.61 41.39C61.77 41.2 61.9 40.96 62 40.74L62.23 40.8L62.23 40.79ZM65.56 38.75C65.43 38.34 65.25 37.86 64.67 37.86C64.3 37.86 64.06 38.13 64.06 38.49C64.06 38.86 64.29 39.06 64.85 39.35C65.53 39.69 65.96 40.03 65.96 40.67C65.96 41.44 65.34 41.99 64.43 41.99C64.02 41.99 63.66 41.88 63.36 41.79C63.33 41.64 63.22 40.97 63.17 40.66L63.42 40.61C63.55 41.01 63.9 41.72 64.52 41.72C64.91 41.72 65.15 41.48 65.15 41.06C65.15 40.68 64.92 40.46 64.38 40.17C63.72 39.81 63.29 39.48 63.29 38.81C63.29 38.14 63.81 37.59 64.76 37.59C65.2 37.59 65.53 37.69 65.67 37.71C65.7 37.95 65.74 38.28 65.79 38.69L65.55 38.75L65.56 38.75ZM66.94 41.9L66.94 41.66C67.43 41.61 67.48 41.57 67.48 41.03L67.48 38.56C67.48 38.02 67.42 37.96 66.94 37.92L66.94 37.68L68.91 37.68L68.91 37.92C68.43 37.97 68.37 38.02 68.37 38.56L68.37 41.03C68.37 41.57 68.42 41.61 68.91 41.66L68.91 41.9L66.94 41.9ZM71.87 37.68C72.69 37.68 73.28 37.86 73.69 38.25C74.02 38.55 74.26 39.01 74.26 39.66C74.26 40.4 73.96 40.98 73.47 41.35C73 41.72 72.39 41.9 71.67 41.9L69.92 41.9L69.92 41.66C70.41 41.62 70.46 41.56 70.46 41.02L70.46 38.56C70.46 38.01 70.39 37.96 69.92 37.92L69.92 37.68L71.87 37.68L71.87 37.68ZM71.35 40.98C71.35 41.44 71.46 41.59 71.92 41.59C72.78 41.59 73.28 40.98 73.28 39.76C73.28 39.14 73.11 38.6 72.82 38.33C72.55 38.05 72.22 37.96 71.8 37.96C71.56 37.96 71.45 38.01 71.42 38.05C71.36 38.11 71.35 38.22 71.35 38.41L71.35 40.98L71.35 40.98ZM78.78 40.79C78.75 40.97 78.57 41.72 78.51 41.9L75.22 41.9L75.22 41.66C75.8 41.6 75.83 41.57 75.83 41.03L75.83 38.55C75.83 38 75.76 37.96 75.33 37.92L75.33 37.68L77.39 37.68C78.06 37.68 78.28 37.68 78.37 37.67C78.38 37.79 78.41 38.32 78.43 38.72L78.19 38.75C78.13 38.53 78.02 38.27 77.91 38.15C77.8 38.02 77.72 37.98 77.39 37.98L76.98 37.98C76.74 37.98 76.71 38 76.71 38.21L76.71 39.57L77.33 39.57C77.69 39.57 77.75 39.47 77.85 39.01L78.09 39.01L78.09 40.46L77.85 40.46C77.75 39.98 77.69 39.9 77.33 39.9L76.71 39.9L76.71 41.02C76.71 41.46 76.72 41.6 77.12 41.61L77.57 41.61C77.92 41.61 78.02 41.56 78.16 41.39C78.32 41.2 78.44 40.96 78.55 40.74L78.78 40.8L78.78 40.79ZM84.06 37.92C83.67 37.97 83.55 38.06 83.53 38.35C83.52 38.6 83.5 38.82 83.5 39.39L83.5 41.97L83.14 41.97L80.49 38.73L80.49 40.19C80.49 40.75 80.5 41.01 80.52 41.2C80.55 41.48 80.68 41.63 81.15 41.66L81.15 41.9L79.58 41.9L79.58 41.66C79.94 41.62 80.1 41.53 80.14 41.22C80.16 40.99 80.17 40.76 80.17 40.19L80.17 38.65C80.17 38.44 80.16 38.3 80.04 38.13C79.93 37.97 79.77 37.95 79.51 37.92L79.51 37.68L80.75 37.68L83.17 40.55L83.17 39.39C83.17 38.82 83.16 38.61 83.14 38.37C83.12 38.09 83.02 37.95 82.49 37.92L82.49 37.68L84.06 37.68L84.06 37.92L84.06 37.92ZM88.9 40.78C88.82 41.11 88.65 41.6 88.55 41.83C88.38 41.87 87.86 42 87.38 42C85.67 42 84.97 40.87 84.97 39.84C84.97 38.5 85.97 37.59 87.5 37.59C88.05 37.59 88.54 37.73 88.7 37.75C88.73 38.05 88.77 38.53 88.82 38.82L88.56 38.86C88.43 38.36 88.24 38.12 87.9 37.98C87.75 37.92 87.52 37.89 87.35 37.89C86.43 37.89 85.96 38.68 85.96 39.69C85.96 40.88 86.56 41.68 87.43 41.68C87.97 41.68 88.32 41.4 88.66 40.69L88.91 40.78L88.9 40.78ZM93.41 40.79C93.38 40.97 93.2 41.72 93.14 41.9L89.85 41.9L89.85 41.66C90.42 41.6 90.46 41.57 90.46 41.03L90.46 38.55C90.46 38 90.39 37.96 89.96 37.92L89.96 37.68L92.02 37.68C92.69 37.68 92.91 37.68 93 37.67C93 37.79 93.04 38.32 93.06 38.72L92.81 38.75C92.76 38.53 92.65 38.27 92.54 38.15C92.43 38.02 92.34 37.98 92.02 37.98L91.61 37.98C91.37 37.98 91.34 38 91.34 38.21L91.34 39.57L91.96 39.57C92.32 39.57 92.38 39.47 92.48 39.01L92.72 39.01L92.72 40.46L92.48 40.46C92.37 39.98 92.32 39.9 91.95 39.9L91.34 39.9L91.34 41.02C91.34 41.46 91.35 41.6 91.75 41.61L92.2 41.61C92.55 41.61 92.65 41.56 92.79 41.39C92.95 41.2 93.07 40.96 93.18 40.74L93.41 40.8L93.41 40.79ZM98.6 39.58C99.27 39.7 99.74 40.02 99.74 40.64C99.74 41.04 99.49 41.42 99.13 41.63C98.8 41.81 98.39 41.9 97.92 41.9L96.14 41.9L96.14 41.66C96.63 41.61 96.68 41.57 96.68 41.03L96.68 38.56C96.68 38.02 96.6 37.96 96.15 37.92L96.15 37.68L98.08 37.68C98.56 37.68 98.87 37.75 99.12 37.91C99.36 38.07 99.51 38.31 99.51 38.63C99.51 39.17 99.02 39.49 98.6 39.58L98.6 39.58ZM97.79 39.49C98.4 39.49 98.62 39.23 98.62 38.75C98.62 38.18 98.26 37.97 97.91 37.97C97.76 37.97 97.66 37.99 97.61 38.02C97.54 38.06 97.55 38.12 97.55 38.26L97.55 39.49L97.79 39.49L97.79 39.49ZM97.55 41.02C97.55 41.48 97.76 41.62 98.1 41.62C98.45 41.61 98.79 41.3 98.79 40.7C98.79 40.1 98.48 39.77 97.77 39.77L97.55 39.77L97.55 41.02ZM102.94 41.9L102.94 41.66C103.34 41.6 103.34 41.53 103.25 41.25C103.18 41.05 103.08 40.76 102.99 40.5L101.75 40.5C101.68 40.71 101.59 40.95 101.53 41.15C101.39 41.56 101.54 41.61 102.05 41.66L102.05 41.9L100.48 41.9L100.48 41.66C100.88 41.61 100.98 41.55 101.2 41L102.52 37.65L102.82 37.59C103.23 38.72 103.66 39.88 104.07 40.96C104.31 41.56 104.37 41.61 104.78 41.66L104.78 41.9L102.94 41.9ZM102.38 38.8C102.19 39.27 102.01 39.7 101.86 40.17L102.87 40.17L102.38 38.8ZM108.85 40.76C108.8 41.04 108.62 41.72 108.57 41.9L105.41 41.9L105.41 41.66C105.97 41.62 106.03 41.57 106.03 41.03L106.03 38.56C106.03 38.02 105.96 37.96 105.48 37.92L105.48 37.68L107.47 37.68L107.47 37.92C106.97 37.97 106.91 38.02 106.91 38.56L106.91 41.07C106.91 41.43 106.92 41.59 107.27 41.6C107.28 41.6 107.57 41.6 107.6 41.6C107.96 41.6 108.06 41.53 108.21 41.35C108.33 41.22 108.5 40.94 108.61 40.68L108.85 40.76L108.85 40.76ZM109.63 41.9L109.63 41.66C110.11 41.61 110.17 41.57 110.17 41.03L110.17 38.56C110.17 38.02 110.11 37.96 109.63 37.92L109.63 37.68L111.59 37.68L111.59 37.92C111.12 37.97 111.05 38.02 111.05 38.56L111.05 41.03C111.05 41.57 111.11 41.61 111.59 41.66L111.59 41.9L109.63 41.9ZM36.57 32.61C34.34 32.61 32.69 31.41 31.65 29.01L30.3 25.96L19.66 0L17.86 0C17.37 1.25 11.1 16.5 11.1 16.5C12.01 15.88 13.07 15.49 14.23 15.42L18.29 4.86L23.06 17.88C21.32 16.84 19.62 16.43 18.47 16.27C18.36 16.25 18.24 16.24 18.11 16.23C16.74 16.11 15.35 16.26 14.01 16.61C13.41 16.76 12.83 16.93 12.57 17.05C10.29 18.07 9.12 19.67 8.33 21.49C8.22 21.73 8.12 21.98 8.03 22.23C6.54 26.24 6.27 31.06 0 33.37C2.11 34.14 4.09 34.18 5.75 33.6C7.72 32.93 9.25 31.42 10.12 29.28C10.21 29.36 10.28 29.4 10.37 29.44C14.01 31.94 18.13 30.37 18.85 27.04C19 26.33 18.99 25.53 18.79 24.68C18.05 21.64 13.88 22.23 13.77 25.01C13.7 25.89 14.09 26.57 14.78 27.01C15.16 27.25 14.99 27.83 14.55 27.83C13.89 27.83 13.15 27.63 12.13 26.95C11.92 26.75 11.73 26.54 11.58 26.28C11.17 25.64 10.99 24.81 11.01 23.82C10.94 21.78 15.06 16.87 21.07 20.32C23.62 21.78 25.15 24.01 25.7 25.1L25.72 25.14C25.72 25.14 25.72 25.14 25.72 25.14C25.85 25.41 25.96 25.68 26.05 25.96L26.31 26.77L27.06 29C27.43 30.07 27.36 30.96 26.83 31.69C26.35 32.3 25.72 32.61 24.93 32.61L24.42 32.61L24.42 33.17L37.02 33.17L37.02 32.61L36.57 32.61L36.57 32.61ZM54.14 1.5C54.53 1.19 54.96 0.97 55.43 0.83L55.43 0.18L46.44 0.18L45.91 0.2C42.26 0.32 39.38 1.13 37.25 2.65C34.98 4.23 33.84 6.38 33.84 9.1C33.84 10.36 34.09 11.52 34.58 12.59C34.58 12.59 34.57 12.59 34.57 12.59L34.58 12.6C38.54 20.82 44.94 19.48 45.03 29.08C46.49 27.29 47.23 25.39 47.3 23.55C47.4 21.39 46.6 19.36 44.99 17.74C45.09 17.7 45.15 17.64 45.21 17.57C48.76 14.92 48.83 10.32 46.1 8.44C45.51 8.04 44.79 7.76 43.96 7.65C40.96 7.29 40 11.57 42.45 12.67C43.19 13.04 43.93 12.92 44.55 12.42C44.91 12.15 45.43 12.48 45.27 12.92C45.04 13.56 44.59 14.21 43.61 14.95C43.36 15.08 43.11 15.19 42.81 15.26C42.69 15.28 42.54 15.29 42.37 15.28C41.04 15.21 39.32 14 38.78 12.76C38.2 11.42 38.04 9.96 38.04 9.43C38.04 7.03 38.81 5.18 40.38 3.88C41.88 2.64 43.84 1.8 46.43 1.7L49.43 1.7L49.43 31.65L46.58 31.65L45.2 31.62C42.33 31.62 40.06 30.99 38.45 29.67C36.88 28.37 36.11 26.52 36.11 24.12C36.11 22.01 36.75 20.3 38 19C37.46 18.54 36.92 18.07 36.38 17.62C36.23 17.5 36.09 17.37 35.93 17.25C35.41 17.59 34.92 17.95 34.48 18.38C32.77 20.06 31.91 22.09 31.91 24.45C31.91 27.16 33.05 29.32 35.32 30.9C37.56 32.49 40.61 33.31 44.52 33.35C44.66 33.37 44.8 33.37 44.95 33.37L45.85 33.36L45.85 33.37L55.43 33.37L55.43 32.72C54.96 32.58 54.52 32.35 54.13 32.03C53.46 31.47 53.1 30.77 53.07 29.95L53.07 3.59C53.07 2.77 53.42 2.08 54.13 1.5L54.14 1.5ZM74.97 32.61L74.97 33.18L87.57 33.18L87.57 32.61L87.06 32.61C86.27 32.61 85.64 32.31 85.16 31.7C84.64 30.97 84.56 30.07 84.93 29.01L85.68 26.77L85.94 25.96C86.03 25.68 86.14 25.41 86.27 25.15C86.27 25.15 86.27 25.14 86.27 25.14L86.29 25.1C86.84 24.01 88.37 21.79 90.92 20.33C96.93 16.88 101.05 21.79 100.98 23.83C101 24.82 100.82 25.65 100.41 26.29C100.26 26.55 100.07 26.76 99.86 26.95C98.84 27.64 98.1 27.84 97.44 27.84C97 27.84 96.84 27.25 97.21 27.01C97.9 26.57 98.29 25.89 98.22 25.01C98.11 22.23 93.94 21.64 93.2 24.69C93 25.54 92.99 26.33 93.14 27.04C93.86 30.37 97.98 31.94 101.62 29.45C101.71 29.41 101.79 29.36 101.87 29.29C102.74 31.42 104.27 32.94 106.24 33.6C107.9 34.18 109.88 34.15 112 33.37C105.72 31.06 105.45 26.24 103.96 22.23C103.87 21.98 103.77 21.73 103.66 21.49C102.87 19.67 101.7 18.07 99.42 17.06C99.16 16.93 98.59 16.77 97.98 16.61C96.64 16.26 95.26 16.11 93.88 16.24C93.75 16.25 93.63 16.26 93.52 16.27C92.37 16.43 90.67 16.85 88.93 17.88L93.7 4.87L97.76 15.43C98.92 15.49 99.98 15.88 100.89 16.51C100.89 16.51 94.62 1.25 94.13 0L92.33 0L81.69 25.97L80.34 29.01C79.3 31.42 77.66 32.62 75.42 32.62L74.97 32.62L74.97 32.61ZM58.92 3.59L58.92 29.94C58.89 30.77 58.54 31.47 57.86 32.03C57.47 32.35 57.03 32.58 56.56 32.72L56.56 33.36L66.14 33.36L66.14 33.36L67.04 33.36C67.19 33.36 67.33 33.36 67.48 33.35C71.38 33.31 74.43 32.48 76.67 30.89C78.94 29.32 80.08 27.16 80.08 24.45C80.08 22.08 79.22 20.06 77.51 18.38C77.07 17.95 76.57 17.58 76.06 17.24C75.9 17.37 75.76 17.5 75.61 17.62C75.06 18.07 74.53 18.54 73.99 19C75.24 20.3 75.88 22.01 75.88 24.11C75.88 26.52 75.11 28.36 73.54 29.67C71.93 30.99 69.66 31.62 66.79 31.62L65.41 31.65L62.56 31.65L62.56 1.7L65.56 1.7C68.15 1.8 70.11 2.64 71.61 3.88C73.18 5.18 73.95 7.03 73.95 9.43C73.95 9.96 73.79 11.42 73.21 12.76C72.67 14 70.95 15.21 69.62 15.28C69.45 15.29 69.3 15.28 69.18 15.26C68.88 15.19 68.63 15.08 68.38 14.95C67.4 14.21 66.95 13.56 66.72 12.92C66.56 12.48 67.08 12.15 67.44 12.42C68.06 12.92 68.8 13.04 69.54 12.67C71.99 11.57 71.03 7.28 68.03 7.65C67.19 7.76 66.48 8.04 65.89 8.44C63.17 10.32 63.23 14.92 66.78 17.57C66.84 17.64 66.9 17.69 67 17.74C65.39 19.36 64.59 21.39 64.69 23.55C64.76 25.39 65.5 27.29 66.96 29.08C67.05 19.48 73.45 20.81 77.41 12.6L77.42 12.59C77.42 12.59 77.41 12.59 77.41 12.59C77.9 11.52 78.15 10.36 78.15 9.1C78.15 6.38 77.01 4.23 74.74 2.65C72.61 1.13 69.73 0.32 66.08 0.2L65.55 0.18L56.56 0.18L56.56 0.83C57.03 0.97 57.46 1.19 57.85 1.5C58.57 2.08 58.92 2.77 58.92 3.59L58.92 3.59Z" fill="#EAC86B" fill-opacity="1.000000" fill-rule="nonzero"/>
</svg>
