<svg width="292.957031" height="130.518738" viewBox="0 0 292.957 130.519" fill="none" xmlns="http://www.w3.org/2000/svg" xmlns:xlink="http://www.w3.org/1999/xlink">
	<desc>
			Created with Pixso.
	</desc>
	<defs>
		<linearGradient x1="155.500000" y1="-7.200012" x2="155.500000" y2="148.799988" id="paint_linear_150_79_0" gradientUnits="userSpaceOnUse">
			<stop stop-color="#0F1538"/>
			<stop offset="1.000000" stop-color="#0622A6"/>
		</linearGradient>
		<linearGradient x1="155.500000" y1="-7.200012" x2="155.500000" y2="148.799988" id="paint_linear_150_79_1" gradientUnits="userSpaceOnUse">
			<stop stop-color="#10142C"/>
			<stop offset="1.000000" stop-color="#0424BF"/>
		</linearGradient>
	</defs>
	<path id="100%" d="M115.26 4.85C110.22 1.61 104.7 -1.53e-5 98.7 -1.53e-5C92.7 -1.53e-5 87.12 1.61 81.96 4.85Q74.4 9.53 68.82 18.18Q63.42 26.82 60.18 38.7Q57.12 50.58 57.12 64.8Q57.12 79.01 60.18 90.9Q63.42 102.78 68.82 111.42Q74.4 120.06 81.96 124.92C87.12 128.03 92.7 129.6 98.7 129.6C104.7 129.6 110.22 128.03 115.26 124.92C120.42 121.68 124.86 117.18 128.58 111.42C132.3 105.66 135.18 98.82 137.22 90.9C139.26 83.42 140.34 75.25 140.45 66.38C140.56 75.25 141.58 83.42 143.5 90.9C145.66 98.82 148.54 105.66 152.14 111.42C155.86 117.18 160.24 121.68 165.28 124.92C170.44 128.03 176.02 129.6 182.02 129.6C188.02 129.6 193.54 128.03 198.58 124.92C203.74 121.68 208.18 117.18 211.9 111.42C215.62 105.66 218.5 98.82 220.54 90.9C222.7 82.98 223.78 74.28 223.78 64.8C223.78 55.32 222.7 46.62 220.54 38.7C218.5 30.78 215.62 23.94 211.9 18.18C208.18 12.42 203.74 7.97 198.58 4.85C193.54 1.61 188.02 -1.53e-5 182.02 -1.53e-5C176.02 -1.53e-5 170.44 1.61 165.28 4.85C160.24 7.97 155.86 12.42 152.14 18.18C148.54 23.94 145.66 30.78 143.5 38.7C141.58 46.17 140.56 54.34 140.45 63.21C140.34 54.34 139.26 46.17 137.22 38.7C135.18 30.78 132.3 23.94 128.58 18.18C124.86 12.42 120.42 7.97 115.26 4.85ZM33.84 113.58L33.84 1.79L33.48 1.79L0 32.04L1.8 34.02L18 19.44C19.92 17.64 21.6 16.74 23.04 16.74C24.36 16.74 25.26 17.52 25.74 19.08C26.34 20.64 26.64 22.38 26.64 24.3L26.64 113.58C26.64 116.7 25.56 119.16 23.4 120.96C21.24 122.76 18.78 124.14 16.02 125.1C13.26 125.94 10.62 126.48 8.1 126.72C5.7 126.84 4.14 126.9 3.42 126.9L3.42 127.8L57.06 127.8L57.06 126.9C56.34 126.9 54.72 126.84 52.2 126.72C49.8 126.48 47.22 125.94 44.46 125.1C41.7 124.14 39.24 122.76 37.08 120.96C34.91 119.16 33.84 116.7 33.84 113.58ZM112.38 121.86C108.18 125.22 103.62 126.9 98.7 126.9C93.78 126.9 89.22 125.22 85.02 121.86C80.82 118.38 77.16 113.76 74.04 108C71.04 102.24 68.64 95.64 66.84 88.2C65.16 80.64 64.32 72.83 64.32 64.8C64.32 56.64 65.16 48.84 66.84 41.4C68.64 33.96 71.04 27.36 74.04 21.6C77.16 15.84 80.82 11.28 85.02 7.91Q89.56 4.16 94.65 3.11Q96.63 2.69 98.7 2.69C103.62 2.69 108.18 4.43 112.38 7.91C116.7 11.28 120.36 15.84 123.36 21.6C126.48 27.36 128.88 33.96 130.56 41.4C132.36 48.84 133.26 56.64 133.26 64.8C133.26 72.83 132.36 80.64 130.56 88.2C128.88 95.64 126.48 102.24 123.36 108Q118.86 116.64 112.38 121.86ZM195.7 121.86C191.5 125.22 186.94 126.9 182.02 126.9C177.1 126.9 172.54 125.22 168.34 121.86C164.14 118.38 160.48 113.76 157.36 108C154.36 102.24 151.96 95.64 150.16 88.2C148.48 80.64 147.64 72.83 147.64 64.8C147.64 56.64 148.48 48.84 150.16 41.4C151.96 33.96 154.36 27.36 157.36 21.6C160.48 15.84 164.14 11.28 168.34 7.91C172.54 4.43 177.1 2.69 182.02 2.69C186.94 2.69 191.5 4.43 195.7 7.91C200.02 11.28 203.68 15.84 206.68 21.6C209.8 27.36 212.2 33.96 213.88 41.4C215.68 48.84 216.58 56.64 216.58 64.8C216.58 72.83 215.68 80.64 213.88 88.2C212.2 95.64 209.8 102.24 206.68 108C203.68 113.76 200.02 118.38 195.7 121.86Z" fill="url(#paint_linear_150_79_0)" fill-opacity="1.000000" fill-rule="evenodd"/>
	<path id="100%" d="M238.67 128.73L241.48 130.51L282.45 70.61L279.73 68.73L238.67 128.73ZM249.67 71.34Q246.87 70.14 243.55 70.14Q238.8 70.14 235.55 72.34Q233.14 73.97 231.55 76.8Q229.39 80.55 229.39 85.61Q229.39 93.36 233.26 97.51Q234.53 98.88 236.23 99.86Q237.19 100.39 238.21 100.77Q240.57 101.64 243.27 101.64Q247.97 101.64 251.22 99.46Q253.72 97.78 255.36 94.8Q257.42 90.95 257.42 85.89Q257.42 78.01 253.48 73.97Q251.99 72.43 249.92 71.45Q249.8 71.39 249.67 71.34ZM245.54 99.31Q244.59 99.75 243.45 99.76Q241.63 99.76 240.31 98.95Q238.09 97.59 237.27 93.95Q236.61 90.86 236.61 85.89Q236.61 74.55 240.64 72.58Q241.86 72.01 243.36 72.01Q245.05 72.01 246.31 72.75Q248.6 74.1 249.45 77.92Q250.11 80.92 250.11 85.61Q250.03 97.23 245.54 99.31ZM285.2 98.43Q282.4 97.23 279.08 97.23Q274.33 97.23 271.08 99.43Q268.67 101.06 267.08 103.89Q264.92 107.64 264.92 112.7Q264.92 120.45 268.79 124.6Q270.06 125.97 271.76 126.95Q272.72 127.49 273.74 127.86Q276.1 128.73 278.8 128.73Q283.5 128.73 286.75 126.55Q289.26 124.87 290.89 121.89Q292.95 118.05 292.95 112.98Q292.95 105.1 289.01 101.06Q287.52 99.53 285.45 98.55Q285.33 98.49 285.2 98.43ZM281.07 126.4Q280.12 126.84 278.98 126.86Q277.16 126.86 275.84 126.05Q273.62 124.69 272.8 121.05Q272.14 117.95 272.14 112.98Q272.14 101.64 276.17 99.67Q277.39 99.11 278.89 99.11Q280.58 99.11 281.84 99.85Q284.14 101.2 284.98 105.01Q285.64 108.01 285.64 112.7Q285.56 124.32 281.07 126.4Z" fill="url(#paint_linear_150_79_1)" fill-opacity="1.000000" fill-rule="evenodd"/>
	<path id="100%" d="M238.67 128.73L241.48 130.51L282.45 70.61L279.73 68.73L238.67 128.73ZM249.67 71.34Q246.87 70.14 243.55 70.14Q238.8 70.14 235.55 72.34Q233.14 73.97 231.55 76.8Q229.39 80.55 229.39 85.61Q229.39 93.36 233.26 97.51Q234.53 98.88 236.23 99.86Q237.19 100.39 238.21 100.77Q240.57 101.64 243.27 101.64Q247.97 101.64 251.22 99.46Q253.72 97.78 255.36 94.8Q257.42 90.95 257.42 85.89Q257.42 78.01 253.48 73.97Q251.99 72.43 249.92 71.45Q249.8 71.39 249.67 71.34ZM245.54 99.31Q244.59 99.75 243.45 99.76Q241.63 99.76 240.31 98.95Q238.09 97.59 237.27 93.95Q236.61 90.86 236.61 85.89Q236.61 74.55 240.64 72.58Q241.86 72.01 243.36 72.01Q245.05 72.01 246.31 72.75Q248.6 74.1 249.45 77.92Q250.11 80.92 250.11 85.61Q250.03 97.23 245.54 99.31ZM285.2 98.43Q282.4 97.23 279.08 97.23Q274.33 97.23 271.08 99.43Q268.67 101.06 267.08 103.89Q264.92 107.64 264.92 112.7Q264.92 120.45 268.79 124.6Q270.06 125.97 271.76 126.95Q272.72 127.49 273.74 127.86Q276.1 128.73 278.8 128.73Q283.5 128.73 286.75 126.55Q289.26 124.87 290.89 121.89Q292.95 118.05 292.95 112.98Q292.95 105.1 289.01 101.06Q287.52 99.53 285.45 98.55Q285.33 98.49 285.2 98.43ZM281.07 126.4Q280.12 126.84 278.98 126.86Q277.16 126.86 275.84 126.05Q273.62 124.69 272.8 121.05Q272.14 117.95 272.14 112.98Q272.14 101.64 276.17 99.67Q277.39 99.11 278.89 99.11Q280.58 99.11 281.84 99.85Q284.14 101.2 284.98 105.01Q285.64 108.01 285.64 112.7Q285.56 124.32 281.07 126.4Z" fill="#9B9B9B" fill-opacity="1.000000" fill-rule="evenodd"/>
</svg>
