<svg width="203.308594" height="130.518799" viewBox="0 0 203.309 130.519" fill="none" xmlns="http://www.w3.org/2000/svg" xmlns:xlink="http://www.w3.org/1999/xlink">
	<desc>
			Created with Pixso.
	</desc>
	<defs>
		<linearGradient x1="106.999985" y1="-7.199951" x2="106.999985" y2="148.800049" id="paint_linear_105_6_0" gradientUnits="userSpaceOnUse">
			<stop stop-color="#10142C"/>
			<stop offset="1.000000" stop-color="#0424BF"/>
		</linearGradient>
		<linearGradient x1="107.000000" y1="-7.199951" x2="107.000000" y2="148.800049" id="paint_linear_105_6_1" gradientUnits="userSpaceOnUse">
			<stop stop-color="#10142C"/>
			<stop offset="1.000000" stop-color="#0424BF"/>
		</linearGradient>
	</defs>
	<path id="19%" d="M134.52 61.56Q135.06 51.48 134.16 41.76C132.84 28.56 128.88 18.29 122.28 10.98Q119.43 7.75 115.96 5.48Q107.6 4.57e-5 95.64 4.57e-5C90.12 4.57e-5 84.96 0.96 80.16 2.88Q76.6 4.25 73.5 6.31Q70.49 8.32 67.92 10.98C64.56 14.58 61.92 18.95 60 24.12Q57.12 31.86 57.12 41.76C57.12 48.36 58.08 54.24 60 59.4C61.92 64.56 64.56 68.94 67.92 72.54Q70.22 74.91 72.86 76.79Q76.23 79.2 80.16 80.82C84.96 82.62 90.12 83.52 95.64 83.52C98.64 83.52 101.7 83.04 104.82 82.08C107.94 81 110.88 79.44 113.64 77.4C116.52 75.36 119.16 72.9 121.56 70.02C123.96 67.02 125.88 63.66 127.32 59.94L127.5 59.94C127.5 62.22 127.26 65.4 126.78 69.48C126.42 73.56 125.58 78.06 124.26 82.98Q122.28 90.18 118.32 97.92Q114.54 105.48 108.06 111.78C103.74 115.98 98.4 119.52 92.04 122.4Q82.5 126.54 69.18 126.9L69.18 129.6Q83.76 129.24 94.38 125.28Q105.18 121.14 112.74 114.66Q117.67 110.44 121.29 105.3Q123.24 102.55 124.8 99.54C127.92 93.78 130.26 87.72 131.82 81.36Q132.48 78.63 132.98 75.88Q134.27 68.81 134.52 61.56ZM33.84 113.58L33.84 1.8L33.48 1.8L0 32.04L1.8 34.02L18 19.44C19.92 17.64 21.6 16.74 23.04 16.74C24.36 16.74 25.26 17.52 25.74 19.08C26.34 20.64 26.64 22.38 26.64 24.3L26.64 113.58C26.64 116.7 25.56 119.16 23.4 120.96C21.24 122.76 18.78 124.14 16.02 125.1C13.26 125.94 10.62 126.48 8.1 126.72C5.7 126.84 4.14 126.9 3.42 126.9L3.42 127.8L57.06 127.8L57.06 126.9C56.34 126.9 54.72 126.84 52.2 126.72C49.8 126.48 47.22 125.94 44.46 125.1C41.7 124.14 39.24 122.76 37.08 120.96C34.91 119.16 33.84 116.7 33.84 113.58ZM107.16 77.94C103.44 79.86 99.6 80.82 95.64 80.82C91.68 80.82 87.78 79.86 83.94 77.94C80.22 76.02 76.92 73.37 74.04 70.02C71.16 66.54 68.82 62.4 67.02 57.6Q64.32 50.4 64.32 41.76Q64.32 33.12 67.02 25.92C68.82 21.12 71.16 17.04 74.04 13.68Q78.19 8.67 83.49 5.82Q83.71 5.69 83.94 5.58C87.78 3.66 91.68 2.7 95.64 2.7C99.6 2.7 103.44 3.66 107.16 5.58C111 7.5 114.36 10.2 117.24 13.68C120.12 17.04 122.46 21.12 124.26 25.92C126.06 30.72 126.96 36 126.96 41.76C126.96 47.52 126.06 52.8 124.26 57.6C122.46 62.4 120.12 66.54 117.24 70.02C114.36 73.37 111 76.02 107.16 77.94Z" fill="url(#paint_linear_105_6_0)" fill-opacity="1.000000" fill-rule="evenodd"/>
	<path id="19%" d="M149.02 128.73L151.84 130.51L192.8 70.61L190.09 68.73L149.02 128.73ZM160.02 71.34Q157.22 70.14 153.9 70.14Q149.15 70.14 145.9 72.34Q143.49 73.97 141.9 76.8Q139.74 80.55 139.74 85.61Q139.74 93.36 143.61 97.51Q144.88 98.88 146.59 99.86Q147.54 100.39 148.56 100.77Q150.92 101.64 153.62 101.64Q158.32 101.64 161.57 99.46Q164.08 97.78 165.71 94.8Q167.77 90.95 167.77 85.89Q167.77 78.01 163.83 73.97Q162.34 72.43 160.27 71.45Q160.15 71.39 160.02 71.34ZM155.89 99.31Q154.94 99.75 153.8 99.76Q151.98 99.76 150.66 98.95Q148.44 97.59 147.62 93.95Q146.96 90.86 146.96 85.89Q146.96 74.55 150.99 72.58Q152.21 72.01 153.71 72.01Q155.4 72.01 156.66 72.75Q158.96 74.1 159.8 77.92Q160.46 80.92 160.46 85.61Q160.38 97.23 155.89 99.31ZM195.55 98.43Q192.75 97.23 189.43 97.23Q184.68 97.23 181.43 99.43Q179.02 101.06 177.43 103.89Q175.27 107.64 175.27 112.7Q175.27 120.45 179.14 124.6Q180.42 125.97 182.12 126.95Q183.07 127.49 184.09 127.86Q186.46 128.73 189.15 128.73Q193.86 128.73 197.1 126.55Q199.61 124.87 201.24 121.89Q203.3 118.05 203.3 112.98Q203.3 105.1 199.36 101.06Q197.87 99.53 195.8 98.55Q195.68 98.49 195.55 98.43ZM191.42 126.4Q190.47 126.84 189.34 126.86Q187.51 126.86 186.19 126.05Q183.97 124.69 183.15 121.05Q182.49 117.95 182.49 112.98Q182.49 101.64 186.52 99.67Q187.74 99.11 189.24 99.11Q190.93 99.11 192.19 99.85Q194.49 101.2 195.34 105.01Q195.99 108.01 195.99 112.7Q195.91 124.32 191.42 126.4Z" fill="url(#paint_linear_105_6_1)" fill-opacity="1.000000" fill-rule="evenodd"/>
	<path id="19%" d="M149.02 128.73L151.84 130.51L192.8 70.61L190.09 68.73L149.02 128.73ZM160.02 71.34Q157.22 70.14 153.9 70.14Q149.15 70.14 145.9 72.34Q143.49 73.97 141.9 76.8Q139.74 80.55 139.74 85.61Q139.74 93.36 143.61 97.51Q144.88 98.88 146.59 99.86Q147.54 100.39 148.56 100.77Q150.92 101.64 153.62 101.64Q158.32 101.64 161.57 99.46Q164.08 97.78 165.71 94.8Q167.77 90.95 167.77 85.89Q167.77 78.01 163.83 73.97Q162.34 72.43 160.27 71.45Q160.15 71.39 160.02 71.34ZM155.89 99.31Q154.94 99.75 153.8 99.76Q151.98 99.76 150.66 98.95Q148.44 97.59 147.62 93.95Q146.96 90.86 146.96 85.89Q146.96 74.55 150.99 72.58Q152.21 72.01 153.71 72.01Q155.4 72.01 156.66 72.75Q158.96 74.1 159.8 77.92Q160.46 80.92 160.46 85.61Q160.38 97.23 155.89 99.31ZM195.55 98.43Q192.75 97.23 189.43 97.23Q184.68 97.23 181.43 99.43Q179.02 101.06 177.43 103.89Q175.27 107.64 175.27 112.7Q175.27 120.45 179.14 124.6Q180.42 125.97 182.12 126.95Q183.07 127.49 184.09 127.86Q186.46 128.73 189.15 128.73Q193.86 128.73 197.1 126.55Q199.61 124.87 201.24 121.89Q203.3 118.05 203.3 112.98Q203.3 105.1 199.36 101.06Q197.87 99.53 195.8 98.55Q195.68 98.49 195.55 98.43ZM191.42 126.4Q190.47 126.84 189.34 126.86Q187.51 126.86 186.19 126.05Q183.97 124.69 183.15 121.05Q182.49 117.95 182.49 112.98Q182.49 101.64 186.52 99.67Q187.74 99.11 189.24 99.11Q190.93 99.11 192.19 99.85Q194.49 101.2 195.34 105.01Q195.99 108.01 195.99 112.7Q195.91 124.32 191.42 126.4Z" fill="#9B9B9B" fill-opacity="1.000000" fill-rule="evenodd"/>
</svg>
