<svg width="508.597656" height="128.760010" viewBox="0 0 508.598 128.76" fill="none" xmlns="http://www.w3.org/2000/svg" xmlns:xlink="http://www.w3.org/1999/xlink">
	<desc>
			Created with Pixso.
	</desc>
	<defs>
		<linearGradient x1="278.500000" y1="-7.200012" x2="278.500000" y2="148.799988" id="paint_linear_159_86_0" gradientUnits="userSpaceOnUse">
			<stop stop-color="#071F92"/>
			<stop offset="1.000000" stop-color="#0E1641"/>
		</linearGradient>
		<linearGradient x1="278.500000" y1="-7.200012" x2="278.500000" y2="148.799988" id="paint_linear_159_86_1" gradientUnits="userSpaceOnUse">
			<stop stop-color="#10142C"/>
			<stop offset="1.000000" stop-color="#0424BF"/>
		</linearGradient>
	</defs>
	<path id="2+1бассейна" d="M27.18 5.39C30.3 4.19 34.43 3.59 39.59 3.59C42.72 3.59 46.08 4.19 49.68 5.39C53.28 6.47 56.58 8.27 59.58 10.8Q64.26 14.58 67.14 20.88C69.18 24.96 70.19 30.06 70.19 36.18Q70.19 41.58 68.82 46.61Q67.86 50.12 66.24 53.46Q62.46 61.56 54.54 71.1Q46.62 80.46 34.56 92.34Q22.68 104.04 6.48 120.6L0 126.72L0 127.8L81 127.8L81 108.54L80.1 108.54C80.1 109.02 80.04 109.92 79.92 111.24C79.8 112.56 79.37 113.94 78.66 115.38C78.06 116.7 77.16 117.9 75.96 118.98Q75.94 118.99 75.93 119Q74.13 120.6 70.92 120.6L10.26 120.6Q24.66 107.28 36.9 96.3C45.06 88.98 52.14 82.02 58.14 75.42C64.14 68.82 68.82 62.34 72.18 55.98Q75.65 49.63 76.81 42.89Q77.4 39.49 77.4 36Q77.4 24.84 73.44 17.82Q69.66 10.8 63.9 6.83C60.06 4.19 55.92 2.39 51.48 1.43C47.16 0.47 43.2 -1.53e-5 39.59 -1.53e-5Q31.68 -1.53e-5 25.38 2.15C21.18 3.59 17.52 5.51 14.4 7.91C11.4 10.2 9 12.78 7.2 15.66Q4.5 19.79 3.78 24.12C3.54 25.32 3.66 26.76 4.14 28.44Q4.51 29.42 5.21 30.05Q6.17 30.93 7.74 31.14C9.3 31.26 10.68 30.78 11.88 29.7C13.08 28.62 13.98 26.1 14.58 22.14C14.94 20.1 15.42 18 16.02 15.84C16.74 13.68 18 11.7 19.79 9.89C21.6 8.09 24.06 6.59 27.18 5.39ZM156.12 113.58L156.12 1.79L155.76 1.79L122.28 32.04L124.08 34.02L140.28 19.44C142.2 17.64 143.88 16.74 145.32 16.74C146.64 16.74 147.54 17.52 148.02 19.08C148.62 20.64 148.92 22.38 148.92 24.3L148.92 113.58Q148.92 116.58 147.58 118.77Q146.84 119.99 145.68 120.96C143.52 122.76 141.06 124.14 138.3 125.1C135.54 125.94 132.9 126.48 130.38 126.72C127.98 126.84 126.42 126.9 125.7 126.9L125.7 127.8L179.34 127.8L179.34 126.9C178.62 126.9 177 126.84 174.48 126.72C172.08 126.48 169.5 125.94 166.74 125.1C163.98 124.14 161.52 122.76 159.36 120.96C157.2 119.16 156.12 116.7 156.12 113.58ZM99.75 95.64L83.91 95.64L83.91 99.48L99.75 99.48L99.75 115.32L103.59 115.32L103.59 99.48L119.43 99.48L119.43 95.64L103.59 95.64L103.59 79.8L99.75 79.8L99.75 95.64Z" fill="url(#paint_linear_159_86_0)" fill-opacity="1.000000" fill-rule="evenodd"/>
	<path id="2+1бассейна" d="M208.79 80.66Q204.95 78.83 200.15 78.83C195.73 78.83 191.86 80.08 188.53 82.58C185.27 85.08 182.9 88.5 181.43 92.85L181.33 92.85Q182.29 86.04 184.5 81.43C185.97 78.36 187.86 75.8 190.16 73.75C192.47 71.7 195.22 70.07 198.42 68.85C201.62 67.57 205.23 66.45 209.27 65.49C211.57 64.98 213.36 64.28 214.64 63.38C215.99 62.48 216.95 61.56 217.52 60.6C218.16 59.64 218.55 58.71 218.67 57.81C218.87 56.92 218.96 56.24 218.96 55.8L218.48 55.8C218.16 56.88 217.43 57.78 216.27 58.48C215.12 59.19 213.71 59.76 212.05 60.21C206.67 61.68 201.94 63.28 197.84 65.01C193.75 66.74 190.32 69.11 187.57 72.12C184.88 75.06 182.83 78.9 181.43 83.64C180.08 88.37 179.41 94.45 179.41 101.88C179.41 105.97 179.89 109.68 180.85 113.01C181.81 116.34 183.19 119.19 184.98 121.56C186.77 123.86 188.95 125.65 191.51 126.93C194.07 128.15 196.95 128.75 200.15 128.75Q204.95 128.75 208.79 126.93C211.35 125.65 213.52 123.92 215.31 121.75C217.17 119.51 218.58 116.88 219.54 113.88C220.5 110.8 220.98 107.44 220.98 103.8C220.98 100.15 220.5 96.79 219.54 93.72C218.58 90.64 217.17 88.02 215.31 85.84C213.52 83.6 211.35 81.87 208.79 80.66ZM407.79 74.42Q406.35 75 404.14 75C402.67 75 401.42 74.8 400.4 74.42C399.44 73.97 398.67 73.59 398.09 73.27C396.62 72.5 395.57 71.7 394.93 70.87C394.35 70.04 394.06 69.3 394.06 68.66C394.13 67.96 394.38 67.35 394.83 66.83C395.28 66.32 395.79 66.07 396.37 66.07C397.01 66 397.58 66.19 398.09 66.64C398.67 67.09 399.05 67.89 399.25 69.04C399.5 70.58 400.11 71.73 401.07 72.5C402.03 73.2 403.05 73.56 404.14 73.56C405.23 73.56 406.25 73.2 407.21 72.5C408.17 71.73 408.78 70.58 409.04 69.04C409.23 67.89 409.58 67.09 410.09 66.64C410.67 66.19 411.25 66 411.82 66.07C412.4 66.07 412.91 66.32 413.36 66.83C413.87 67.35 414.13 67.96 414.13 68.66C414.19 69.3 413.93 70.04 413.36 70.87C412.78 71.7 411.73 72.5 410.19 73.27C409.61 73.59 408.81 73.97 407.79 74.42ZM255.26 127.6L255.46 127.8L264 123.76L263.81 123.28C263.74 123.35 263.46 123.41 262.94 123.48C262.43 123.48 261.89 123.41 261.31 123.28C260.74 123.09 260.22 122.84 259.78 122.52C259.33 122.13 259.1 121.59 259.1 120.88L259.1 95.35C259.1 92.47 258.62 90 257.66 87.96C256.7 85.84 255.42 84.12 253.82 82.77C252.22 81.43 250.4 80.44 248.35 79.8C246.3 79.16 244.16 78.83 241.92 78.83C237.57 78.83 234.11 79.48 231.55 80.76C229.06 82.04 227.17 83.51 225.89 85.17C225.5 85.68 225.25 86.39 225.12 87.28C225.06 88.18 225.47 88.88 226.37 89.4C227.07 89.78 227.81 89.91 228.58 89.78C229.34 89.59 229.98 89.04 230.5 88.15C231.78 85.52 233.38 83.6 235.3 82.39C237.22 81.17 239.33 80.56 241.63 80.56C245.86 80.56 249.18 81.84 251.62 84.4C254.05 86.96 255.26 90.61 255.26 95.35L255.26 95.44C252 96.47 248.48 97.46 244.7 98.42C240.93 99.38 237.41 100.6 234.14 102.07C230.88 103.54 228.16 105.4 225.98 107.64Q225.11 108.53 224.48 109.57Q222.82 112.32 222.82 116.08C222.82 117.81 223.1 119.44 223.68 120.98C224.32 122.52 225.22 123.86 226.37 125.01C227.52 126.16 228.96 127.09 230.69 127.8C232.42 128.44 234.37 128.75 236.54 128.75C238.59 128.75 240.42 128.5 242.02 127.99C243.68 127.54 245.22 126.87 246.62 125.97C248.03 125.08 249.41 123.99 250.75 122.71C252.16 121.36 253.66 119.86 255.26 118.2L255.26 127.6ZM255.26 96.88L255.26 116.18C253.98 117.52 252.67 118.84 251.33 120.12C250.05 121.33 248.7 122.45 247.3 123.48C245.89 124.44 244.42 125.2 242.88 125.78C241.34 126.36 239.71 126.64 237.98 126.64C236.13 126.64 234.46 126.36 232.99 125.78C231.58 125.2 230.4 124.44 229.44 123.48C228.48 122.52 227.78 121.4 227.33 120.12C226.88 118.84 226.66 117.49 226.66 116.08C226.72 113.01 227.58 110.48 229.25 108.5C230.98 106.45 233.18 104.76 235.87 103.41C238.56 102 241.6 100.82 244.99 99.86C248.38 98.9 251.81 97.91 255.26 96.88ZM499.86 127.6L500.05 127.8L508.59 123.76L508.4 123.28C508.34 123.35 508.05 123.41 507.54 123.48C507.03 123.48 506.48 123.41 505.91 123.28C505.33 123.09 504.82 122.84 504.37 122.52C503.92 122.13 503.7 121.59 503.7 120.88L503.7 95.35C503.7 92.47 503.22 90 502.26 87.96C501.3 85.84 500.02 84.12 498.42 82.77C496.82 81.43 494.99 80.44 492.95 79.8C490.9 79.16 488.75 78.83 486.51 78.83C482.16 78.83 478.71 79.48 476.15 80.76C473.65 82.04 471.76 83.51 470.48 85.17C470.1 85.68 469.84 86.39 469.71 87.28C469.65 88.18 470.07 88.88 470.96 89.4C471.67 89.78 472.4 89.91 473.17 89.78C473.94 89.59 474.58 89.04 475.09 88.15C476.37 85.52 477.97 83.6 479.89 82.39C481.81 81.17 483.92 80.56 486.23 80.56C490.45 80.56 493.78 81.84 496.21 84.4C498.64 86.96 499.86 90.61 499.86 95.35L499.86 95.44C496.59 96.47 493.07 97.46 489.3 98.42C485.52 99.38 482 100.6 478.74 102.07C475.47 103.54 472.75 105.4 470.58 107.64Q469.71 108.53 469.08 109.57Q467.41 112.32 467.41 116.08C467.41 117.81 467.7 119.44 468.27 120.98C468.91 122.52 469.81 123.86 470.96 125.01C472.11 126.16 473.55 127.09 475.28 127.8C477.01 128.44 478.96 128.75 481.14 128.75C483.19 128.75 485.01 128.5 486.61 127.99C488.27 127.54 489.81 126.87 491.22 125.97C492.63 125.08 494 123.99 495.35 122.71C496.75 121.36 498.26 119.86 499.86 118.2L499.86 127.6ZM499.86 96.88L499.86 116.18C498.58 117.52 497.27 118.84 495.92 120.12C494.64 121.33 493.3 122.45 491.89 123.48C490.48 124.44 489.01 125.2 487.47 125.78C485.94 126.36 484.31 126.64 482.58 126.64C480.72 126.64 479.06 126.36 477.59 125.78C476.18 125.2 474.99 124.44 474.03 123.48C473.07 122.52 472.37 121.4 471.92 120.12C471.47 118.84 471.25 117.49 471.25 116.08C471.31 113.01 472.18 110.48 473.84 108.5C475.57 106.45 477.78 104.76 480.47 103.41C483.15 102 486.19 100.82 489.59 99.86C492.98 98.9 496.4 97.91 499.86 96.88ZM270 112.82C269.17 110 268.75 107.06 268.75 103.99C268.75 100.92 269.1 98 269.81 95.25C270.57 92.44 271.66 89.97 273.07 87.86C274.54 85.68 276.33 83.99 278.45 82.77C280.62 81.49 283.09 80.85 285.84 80.85C287.18 80.85 288.27 80.98 289.1 81.24C289.93 81.49 290.76 81.81 291.6 82.2C292.69 82.71 293.52 83.35 294.09 84.12C294.73 84.82 295.18 85.56 295.44 86.32C295.76 87.09 295.95 87.83 296.01 88.53C296.14 89.24 296.27 89.81 296.4 90.26C296.72 91.35 297.13 92.12 297.65 92.56C298.22 92.95 298.93 93.11 299.76 93.04C300.72 92.92 301.32 92.44 301.58 91.6C301.9 90.71 302 89.94 301.87 89.3C301.61 87.7 300.88 86.26 299.66 84.98C298.51 83.64 297.52 82.71 296.69 82.2C295.53 81.49 294.13 80.85 292.46 80.28C290.86 79.64 288.65 79.32 285.84 79.32C282.89 79.32 280.14 79.92 277.58 81.14C275.09 82.36 272.88 84.05 270.96 86.23C269.1 88.4 267.63 91.03 266.54 94.1C265.45 97.11 264.91 100.4 264.91 103.99Q264.91 109.27 266.25 113.88C267.15 116.88 268.49 119.51 270.29 121.75C272.08 123.92 274.25 125.65 276.81 126.93C279.44 128.15 282.45 128.75 285.84 128.75C290.13 128.75 293.58 127.8 296.21 125.88C298.89 123.89 301.07 121.46 302.73 118.58L301.49 117.91C299.63 121.04 297.45 123.32 294.96 124.72C292.53 126.13 289.49 126.84 285.84 126.84C283.41 126.84 281.13 126.23 279.02 125.01C276.97 123.8 275.18 122.16 273.65 120.12C272.11 118 270.89 115.57 270 112.82ZM310.22 112.82C309.38 110 308.97 107.06 308.97 103.99C308.97 100.92 309.32 98 310.02 95.25C310.79 92.44 311.88 89.97 313.29 87.86C314.76 85.68 316.55 83.99 318.66 82.77C320.84 81.49 323.3 80.85 326.06 80.85C327.4 80.85 328.49 80.98 329.32 81.24C330.15 81.49 330.98 81.81 331.82 82.2C332.9 82.71 333.74 83.35 334.31 84.12C334.95 84.82 335.4 85.56 335.66 86.32C335.98 87.09 336.17 87.83 336.23 88.53C336.36 89.24 336.49 89.81 336.62 90.26C336.94 91.35 337.35 92.12 337.86 92.56C338.44 92.95 339.14 93.11 339.98 93.04C340.94 92.92 341.54 92.44 341.8 91.6C342.12 90.71 342.22 89.94 342.09 89.3C341.83 87.7 341.1 86.26 339.88 84.98C338.73 83.64 337.74 82.71 336.9 82.2C335.75 81.49 334.34 80.85 332.68 80.28C331.08 79.64 328.87 79.32 326.06 79.32C323.11 79.32 320.36 79.92 317.8 81.14C315.3 82.36 313.1 84.05 311.18 86.23C309.32 88.4 307.85 91.03 306.76 94.1C305.67 97.11 305.13 100.4 305.13 103.99Q305.13 109.27 306.47 113.88C307.37 116.88 308.71 119.51 310.5 121.75C312.3 123.92 314.47 125.65 317.03 126.93C319.66 128.15 322.66 128.75 326.06 128.75C330.34 128.75 333.8 127.8 336.42 125.88C339.11 123.89 341.29 121.46 342.95 118.58L341.7 117.91C339.85 121.04 337.67 123.32 335.18 124.72C332.74 126.13 329.7 126.84 326.06 126.84C323.62 126.84 321.35 126.23 319.24 125.01C317.19 123.8 315.4 122.16 313.86 120.12C312.33 118 311.11 115.57 310.22 112.82ZM349.12 112.82C348.48 110 348.16 107.06 348.16 103.99C348.16 102.27 348.29 100.55 348.57 98.8L377.34 98.8C378.62 98.8 379.55 98.71 380.12 98.52C380.76 98.32 381.18 98.04 381.37 97.65C381.63 97.27 381.72 96.79 381.66 96.21C381.66 95.64 381.6 94.93 381.47 94.1C381.21 92.12 380.64 90.23 379.74 88.44C378.84 86.64 377.66 85.08 376.19 83.73C374.78 82.39 373.08 81.33 371.1 80.56C369.18 79.73 367.07 79.32 364.76 79.32C361.95 79.32 359.29 79.92 356.8 81.14C354.36 82.36 352.22 84.05 350.36 86.23C348.51 88.4 347.04 91.03 345.95 94.1C344.86 97.11 344.32 100.4 344.32 103.99C344.32 107.64 344.8 110.96 345.76 113.97Q347.2 118.48 349.79 121.84C351.58 124.02 353.76 125.72 356.32 126.93C358.88 128.15 361.72 128.75 364.86 128.75C367.04 128.75 368.96 128.44 370.62 127.8C372.28 127.22 373.79 126.45 375.13 125.49C376.48 124.47 377.66 123.32 378.68 122.04C379.77 120.76 380.76 119.44 381.66 118.1L380.99 117.43Q379.45 119.44 377.82 121.27C376.73 122.42 375.55 123.44 374.27 124.34C372.99 125.17 371.58 125.84 370.04 126.36C368.51 126.8 366.78 127.03 364.86 127.03C362.04 127.03 359.58 126.42 357.47 125.2C355.36 123.92 353.6 122.23 352.19 120.12C350.84 118 349.82 115.57 349.12 112.82ZM348.82 97.36L377.92 97.36C377.92 95.38 377.66 93.43 377.15 91.51C376.64 89.52 375.8 87.76 374.65 86.23Q374.42 85.9 374.16 85.58Q372.63 83.72 370.33 82.48C368.6 81.52 366.52 81.04 364.09 81.04C361.34 81.04 358.97 81.75 356.99 83.16C355 84.56 353.34 86.39 352 88.63C350.72 90.8 349.76 93.27 349.12 96.02C349.01 96.47 348.91 96.92 348.82 97.36ZM386.38 82.68C386.7 83.19 386.86 83.8 386.86 84.5L386.86 123.09Q386.86 123.89 386.58 124.58Q386.5 124.8 386.38 125.01Q385.9 125.78 385.23 126.26C384.78 126.71 384.24 127.06 383.6 127.32L383.6 127.8L393.97 127.8L393.97 127.32C393.33 127.06 392.78 126.71 392.33 126.26C391.95 125.94 391.57 125.52 391.18 125.01Q391.07 124.8 390.98 124.58Q390.7 123.89 390.7 123.09L417.49 86.96L417.49 123.09Q417.49 123.89 417.21 124.58Q417.12 124.8 417.01 125.01C416.69 125.52 416.3 125.94 415.85 126.26C415.41 126.71 414.86 127.06 414.22 127.32L414.22 127.8L434.93 127.8L434.93 127.32C434.29 127.06 433.75 126.71 433.3 126.26C432.92 125.94 432.53 125.52 432.15 125.01Q432.03 124.8 431.95 124.58Q431.67 123.89 431.67 123.09L431.67 102.64L458.45 102.64L458.45 123.09Q458.45 123.89 458.18 124.58Q458.09 124.8 457.97 125.01C457.65 125.52 457.27 125.94 456.82 126.26C456.37 126.71 455.83 127.06 455.19 127.32L455.19 127.8L465.56 127.8L465.56 127.32C464.92 127.06 464.37 126.71 463.93 126.26C463.54 125.94 463.16 125.52 462.77 125.01Q462.66 124.8 462.57 124.58Q462.29 123.89 462.29 123.09L462.29 84.5C462.29 83.8 462.45 83.19 462.77 82.68C463.16 82.1 463.54 81.65 463.93 81.33C464.37 80.88 464.92 80.53 465.56 80.28L465.56 79.8L455.19 79.8L455.19 80.28C455.83 80.53 456.37 80.88 456.82 81.33C457.27 81.65 457.65 82.1 457.97 82.68C458.29 83.19 458.45 83.8 458.45 84.5L458.45 101.2L431.67 101.2L431.67 84.5C431.67 83.8 431.83 83.19 432.15 82.68C432.53 82.1 432.92 81.65 433.3 81.33C433.75 80.88 434.29 80.53 434.93 80.28L434.93 79.8L414.22 79.8L414.22 80.28C414.86 80.53 415.41 80.88 415.85 81.33C416.3 81.65 416.69 82.1 417.01 82.68C417.33 83.19 417.49 83.8 417.49 84.5L390.7 120.63L390.7 84.5C390.7 83.8 390.86 83.19 391.18 82.68C391.57 82.1 391.95 81.65 392.33 81.33C392.78 80.88 393.33 80.53 393.97 80.28L393.97 79.8L383.6 79.8L383.6 80.28C384.24 80.53 384.78 80.88 385.23 81.33C385.68 81.65 386.06 82.1 386.38 82.68ZM424.58 80.28C423.94 80.54 423.4 80.89 422.96 81.33C422.57 81.65 422.19 82.1 421.81 82.68C421.49 83.19 421.33 83.8 421.33 84.5L421.33 123.09Q421.33 123.89 421.6 124.58Q421.69 124.8 421.81 125.01C422.19 125.52 422.57 125.94 422.96 126.26C423.4 126.7 423.94 127.06 424.58 127.31C425.21 127.06 425.75 126.7 426.2 126.26Q426.87 125.78 427.35 125.01Q427.47 124.8 427.55 124.58Q427.83 123.89 427.83 123.09L427.83 84.5C427.83 83.8 427.67 83.19 427.35 82.68C427.03 82.1 426.65 81.65 426.2 81.33C425.75 80.89 425.21 80.54 424.58 80.28ZM207.59 125.42Q204.43 127.32 200.15 127.32C197.27 127.32 194.77 126.68 192.66 125.4C190.55 124.12 188.79 122.36 187.38 120.12C186.03 117.81 185.01 115.12 184.31 112.05C183.6 108.92 183.25 105.52 183.25 101.88C183.25 99.25 183.6 96.66 184.31 94.1C185.01 91.48 186.03 89.14 187.38 87.09C188.79 85.04 190.55 83.41 192.66 82.2C194.77 80.92 197.27 80.28 200.15 80.28Q204.43 80.28 207.59 82.17Q207.61 82.18 207.63 82.2C209.75 83.48 211.51 85.2 212.91 87.38C214.32 89.49 215.38 91.99 216.08 94.87C216.79 97.68 217.14 100.66 217.14 103.8C217.14 106.93 216.79 109.94 216.08 112.82Q215.03 117.04 212.91 120.31C211.51 122.42 209.75 124.12 207.63 125.4Q207.61 125.41 207.59 125.42Z" fill="url(#paint_linear_159_86_1)" fill-opacity="1.000000" fill-rule="evenodd"/>
	<path id="2+1бассейна" d="M208.79 80.66Q204.95 78.83 200.15 78.83C195.73 78.83 191.86 80.08 188.53 82.58C185.27 85.08 182.9 88.5 181.43 92.85L181.33 92.85Q182.29 86.04 184.5 81.43C185.97 78.36 187.86 75.8 190.16 73.75C192.47 71.7 195.22 70.07 198.42 68.85C201.62 67.57 205.23 66.45 209.27 65.49C211.57 64.98 213.36 64.28 214.64 63.38C215.99 62.48 216.95 61.56 217.52 60.6C218.16 59.64 218.55 58.71 218.67 57.81C218.87 56.92 218.96 56.24 218.96 55.8L218.48 55.8C218.16 56.88 217.43 57.78 216.27 58.48C215.12 59.19 213.71 59.76 212.05 60.21C206.67 61.68 201.94 63.28 197.84 65.01C193.75 66.74 190.32 69.11 187.57 72.12C184.88 75.06 182.83 78.9 181.43 83.64C180.08 88.37 179.41 94.45 179.41 101.88C179.41 105.97 179.89 109.68 180.85 113.01C181.81 116.34 183.19 119.19 184.98 121.56C186.77 123.86 188.95 125.65 191.51 126.93C194.07 128.15 196.95 128.75 200.15 128.75Q204.95 128.75 208.79 126.93C211.35 125.65 213.52 123.92 215.31 121.75C217.17 119.51 218.58 116.88 219.54 113.88C220.5 110.8 220.98 107.44 220.98 103.8C220.98 100.15 220.5 96.79 219.54 93.72C218.58 90.64 217.17 88.02 215.31 85.84C213.52 83.6 211.35 81.87 208.79 80.66ZM407.79 74.42Q406.35 75 404.14 75C402.67 75 401.42 74.8 400.4 74.42C399.44 73.97 398.67 73.59 398.09 73.27C396.62 72.5 395.57 71.7 394.93 70.87C394.35 70.04 394.06 69.3 394.06 68.66C394.13 67.96 394.38 67.35 394.83 66.83C395.28 66.32 395.79 66.07 396.37 66.07C397.01 66 397.58 66.19 398.09 66.64C398.67 67.09 399.05 67.89 399.25 69.04C399.5 70.58 400.11 71.73 401.07 72.5C402.03 73.2 403.05 73.56 404.14 73.56C405.23 73.56 406.25 73.2 407.21 72.5C408.17 71.73 408.78 70.58 409.04 69.04C409.23 67.89 409.58 67.09 410.09 66.64C410.67 66.19 411.25 66 411.82 66.07C412.4 66.07 412.91 66.32 413.36 66.83C413.87 67.35 414.13 67.96 414.13 68.66C414.19 69.3 413.93 70.04 413.36 70.87C412.78 71.7 411.73 72.5 410.19 73.27C409.61 73.59 408.81 73.97 407.79 74.42ZM255.26 127.6L255.46 127.8L264 123.76L263.81 123.28C263.74 123.35 263.46 123.41 262.94 123.48C262.43 123.48 261.89 123.41 261.31 123.28C260.74 123.09 260.22 122.84 259.78 122.52C259.33 122.13 259.1 121.59 259.1 120.88L259.1 95.35C259.1 92.47 258.62 90 257.66 87.96C256.7 85.84 255.42 84.12 253.82 82.77C252.22 81.43 250.4 80.44 248.35 79.8C246.3 79.16 244.16 78.83 241.92 78.83C237.57 78.83 234.11 79.48 231.55 80.76C229.06 82.04 227.17 83.51 225.89 85.17C225.5 85.68 225.25 86.39 225.12 87.28C225.06 88.18 225.47 88.88 226.37 89.4C227.07 89.78 227.81 89.91 228.58 89.78C229.34 89.59 229.98 89.04 230.5 88.15C231.78 85.52 233.38 83.6 235.3 82.39C237.22 81.17 239.33 80.56 241.63 80.56C245.86 80.56 249.18 81.84 251.62 84.4C254.05 86.96 255.26 90.61 255.26 95.35L255.26 95.44C252 96.47 248.48 97.46 244.7 98.42C240.93 99.38 237.41 100.6 234.14 102.07C230.88 103.54 228.16 105.4 225.98 107.64Q225.11 108.53 224.48 109.57Q222.82 112.32 222.82 116.08C222.82 117.81 223.1 119.44 223.68 120.98C224.32 122.52 225.22 123.86 226.37 125.01C227.52 126.16 228.96 127.09 230.69 127.8C232.42 128.44 234.37 128.75 236.54 128.75C238.59 128.75 240.42 128.5 242.02 127.99C243.68 127.54 245.22 126.87 246.62 125.97C248.03 125.08 249.41 123.99 250.75 122.71C252.16 121.36 253.66 119.86 255.26 118.2L255.26 127.6ZM255.26 96.88L255.26 116.18C253.98 117.52 252.67 118.84 251.33 120.12C250.05 121.33 248.7 122.45 247.3 123.48C245.89 124.44 244.42 125.2 242.88 125.78C241.34 126.36 239.71 126.64 237.98 126.64C236.13 126.64 234.46 126.36 232.99 125.78C231.58 125.2 230.4 124.44 229.44 123.48C228.48 122.52 227.78 121.4 227.33 120.12C226.88 118.84 226.66 117.49 226.66 116.08C226.72 113.01 227.58 110.48 229.25 108.5C230.98 106.45 233.18 104.76 235.87 103.41C238.56 102 241.6 100.82 244.99 99.86C248.38 98.9 251.81 97.91 255.26 96.88ZM499.86 127.6L500.05 127.8L508.59 123.76L508.4 123.28C508.34 123.35 508.05 123.41 507.54 123.48C507.03 123.48 506.48 123.41 505.91 123.28C505.33 123.09 504.82 122.84 504.37 122.52C503.92 122.13 503.7 121.59 503.7 120.88L503.7 95.35C503.7 92.47 503.22 90 502.26 87.96C501.3 85.84 500.02 84.12 498.42 82.77C496.82 81.43 494.99 80.44 492.95 79.8C490.9 79.16 488.75 78.83 486.51 78.83C482.16 78.83 478.71 79.48 476.15 80.76C473.65 82.04 471.76 83.51 470.48 85.17C470.1 85.68 469.84 86.39 469.71 87.28C469.65 88.18 470.07 88.88 470.96 89.4C471.67 89.78 472.4 89.91 473.17 89.78C473.94 89.59 474.58 89.04 475.09 88.15C476.37 85.52 477.97 83.6 479.89 82.39C481.81 81.17 483.92 80.56 486.23 80.56C490.45 80.56 493.78 81.84 496.21 84.4C498.64 86.96 499.86 90.61 499.86 95.35L499.86 95.44C496.59 96.47 493.07 97.46 489.3 98.42C485.52 99.38 482 100.6 478.74 102.07C475.47 103.54 472.75 105.4 470.58 107.64Q469.71 108.53 469.08 109.57Q467.41 112.32 467.41 116.08C467.41 117.81 467.7 119.44 468.27 120.98C468.91 122.52 469.81 123.86 470.96 125.01C472.11 126.16 473.55 127.09 475.28 127.8C477.01 128.44 478.96 128.75 481.14 128.75C483.19 128.75 485.01 128.5 486.61 127.99C488.27 127.54 489.81 126.87 491.22 125.97C492.63 125.08 494 123.99 495.35 122.71C496.75 121.36 498.26 119.86 499.86 118.2L499.86 127.6ZM499.86 96.88L499.86 116.18C498.58 117.52 497.27 118.84 495.92 120.12C494.64 121.33 493.3 122.45 491.89 123.48C490.48 124.44 489.01 125.2 487.47 125.78C485.94 126.36 484.31 126.64 482.58 126.64C480.72 126.64 479.06 126.36 477.59 125.78C476.18 125.2 474.99 124.44 474.03 123.48C473.07 122.52 472.37 121.4 471.92 120.12C471.47 118.84 471.25 117.49 471.25 116.08C471.31 113.01 472.18 110.48 473.84 108.5C475.57 106.45 477.78 104.76 480.47 103.41C483.15 102 486.19 100.82 489.59 99.86C492.98 98.9 496.4 97.91 499.86 96.88ZM270 112.82C269.17 110 268.75 107.06 268.75 103.99C268.75 100.92 269.1 98 269.81 95.25C270.57 92.44 271.66 89.97 273.07 87.86C274.54 85.68 276.33 83.99 278.45 82.77C280.62 81.49 283.09 80.85 285.84 80.85C287.18 80.85 288.27 80.98 289.1 81.24C289.93 81.49 290.76 81.81 291.6 82.2C292.69 82.71 293.52 83.35 294.09 84.12C294.73 84.82 295.18 85.56 295.44 86.32C295.76 87.09 295.95 87.83 296.01 88.53C296.14 89.24 296.27 89.81 296.4 90.26C296.72 91.35 297.13 92.12 297.65 92.56C298.22 92.95 298.93 93.11 299.76 93.04C300.72 92.92 301.32 92.44 301.58 91.6C301.9 90.71 302 89.94 301.87 89.3C301.61 87.7 300.88 86.26 299.66 84.98C298.51 83.64 297.52 82.71 296.69 82.2C295.53 81.49 294.13 80.85 292.46 80.28C290.86 79.64 288.65 79.32 285.84 79.32C282.89 79.32 280.14 79.92 277.58 81.14C275.09 82.36 272.88 84.05 270.96 86.23C269.1 88.4 267.63 91.03 266.54 94.1C265.45 97.11 264.91 100.4 264.91 103.99Q264.91 109.27 266.25 113.88C267.15 116.88 268.49 119.51 270.29 121.75C272.08 123.92 274.25 125.65 276.81 126.93C279.44 128.15 282.45 128.75 285.84 128.75C290.13 128.75 293.58 127.8 296.21 125.88C298.89 123.89 301.07 121.46 302.73 118.58L301.49 117.91C299.63 121.04 297.45 123.32 294.96 124.72C292.53 126.13 289.49 126.84 285.84 126.84C283.41 126.84 281.13 126.23 279.02 125.01C276.97 123.8 275.18 122.16 273.65 120.12C272.11 118 270.89 115.57 270 112.82ZM310.22 112.82C309.38 110 308.97 107.06 308.97 103.99C308.97 100.92 309.32 98 310.02 95.25C310.79 92.44 311.88 89.97 313.29 87.86C314.76 85.68 316.55 83.99 318.66 82.77C320.84 81.49 323.3 80.85 326.06 80.85C327.4 80.85 328.49 80.98 329.32 81.24C330.15 81.49 330.98 81.81 331.82 82.2C332.9 82.71 333.74 83.35 334.31 84.12C334.95 84.82 335.4 85.56 335.66 86.32C335.98 87.09 336.17 87.83 336.23 88.53C336.36 89.24 336.49 89.81 336.62 90.26C336.94 91.35 337.35 92.12 337.86 92.56C338.44 92.95 339.14 93.11 339.98 93.04C340.94 92.92 341.54 92.44 341.8 91.6C342.12 90.71 342.22 89.94 342.09 89.3C341.83 87.7 341.1 86.26 339.88 84.98C338.73 83.64 337.74 82.71 336.9 82.2C335.75 81.49 334.34 80.85 332.68 80.28C331.08 79.64 328.87 79.32 326.06 79.32C323.11 79.32 320.36 79.92 317.8 81.14C315.3 82.36 313.1 84.05 311.18 86.23C309.32 88.4 307.85 91.03 306.76 94.1C305.67 97.11 305.13 100.4 305.13 103.99Q305.13 109.27 306.47 113.88C307.37 116.88 308.71 119.51 310.5 121.75C312.3 123.92 314.47 125.65 317.03 126.93C319.66 128.15 322.66 128.75 326.06 128.75C330.34 128.75 333.8 127.8 336.42 125.88C339.11 123.89 341.29 121.46 342.95 118.58L341.7 117.91C339.85 121.04 337.67 123.32 335.18 124.72C332.74 126.13 329.7 126.84 326.06 126.84C323.62 126.84 321.35 126.23 319.24 125.01C317.19 123.8 315.4 122.16 313.86 120.12C312.33 118 311.11 115.57 310.22 112.82ZM349.12 112.82C348.48 110 348.16 107.06 348.16 103.99C348.16 102.27 348.29 100.55 348.57 98.8L377.34 98.8C378.62 98.8 379.55 98.71 380.12 98.52C380.76 98.32 381.18 98.04 381.37 97.65C381.63 97.27 381.72 96.79 381.66 96.21C381.66 95.64 381.6 94.93 381.47 94.1C381.21 92.12 380.64 90.23 379.74 88.44C378.84 86.64 377.66 85.08 376.19 83.73C374.78 82.39 373.08 81.33 371.1 80.56C369.18 79.73 367.07 79.32 364.76 79.32C361.95 79.32 359.29 79.92 356.8 81.14C354.36 82.36 352.22 84.05 350.36 86.23C348.51 88.4 347.04 91.03 345.95 94.1C344.86 97.11 344.32 100.4 344.32 103.99C344.32 107.64 344.8 110.96 345.76 113.97Q347.2 118.48 349.79 121.84C351.58 124.02 353.76 125.72 356.32 126.93C358.88 128.15 361.72 128.75 364.86 128.75C367.04 128.75 368.96 128.44 370.62 127.8C372.28 127.22 373.79 126.45 375.13 125.49C376.48 124.47 377.66 123.32 378.68 122.04C379.77 120.76 380.76 119.44 381.66 118.1L380.99 117.43Q379.45 119.44 377.82 121.27C376.73 122.42 375.55 123.44 374.27 124.34C372.99 125.17 371.58 125.84 370.04 126.36C368.51 126.8 366.78 127.03 364.86 127.03C362.04 127.03 359.58 126.42 357.47 125.2C355.36 123.92 353.6 122.23 352.19 120.12C350.84 118 349.82 115.57 349.12 112.82ZM348.82 97.36L377.92 97.36C377.92 95.38 377.66 93.43 377.15 91.51C376.64 89.52 375.8 87.76 374.65 86.23Q374.42 85.9 374.16 85.58Q372.63 83.72 370.33 82.48C368.6 81.52 366.52 81.04 364.09 81.04C361.34 81.04 358.97 81.75 356.99 83.16C355 84.56 353.34 86.39 352 88.63C350.72 90.8 349.76 93.27 349.12 96.02C349.01 96.47 348.91 96.92 348.82 97.36ZM386.38 82.68C386.7 83.19 386.86 83.8 386.86 84.5L386.86 123.09Q386.86 123.89 386.58 124.58Q386.5 124.8 386.38 125.01Q385.9 125.78 385.23 126.26C384.78 126.71 384.24 127.06 383.6 127.32L383.6 127.8L393.97 127.8L393.97 127.32C393.33 127.06 392.78 126.71 392.33 126.26C391.95 125.94 391.57 125.52 391.18 125.01Q391.07 124.8 390.98 124.58Q390.7 123.89 390.7 123.09L417.49 86.96L417.49 123.09Q417.49 123.89 417.21 124.58Q417.12 124.8 417.01 125.01C416.69 125.52 416.3 125.94 415.85 126.26C415.41 126.71 414.86 127.06 414.22 127.32L414.22 127.8L434.93 127.8L434.93 127.32C434.29 127.06 433.75 126.71 433.3 126.26C432.92 125.94 432.53 125.52 432.15 125.01Q432.03 124.8 431.95 124.58Q431.67 123.89 431.67 123.09L431.67 102.64L458.45 102.64L458.45 123.09Q458.45 123.89 458.18 124.58Q458.09 124.8 457.97 125.01C457.65 125.52 457.27 125.94 456.82 126.26C456.37 126.71 455.83 127.06 455.19 127.32L455.19 127.8L465.56 127.8L465.56 127.32C464.92 127.06 464.37 126.71 463.93 126.26C463.54 125.94 463.16 125.52 462.77 125.01Q462.66 124.8 462.57 124.58Q462.29 123.89 462.29 123.09L462.29 84.5C462.29 83.8 462.45 83.19 462.77 82.68C463.16 82.1 463.54 81.65 463.93 81.33C464.37 80.88 464.92 80.53 465.56 80.28L465.56 79.8L455.19 79.8L455.19 80.28C455.83 80.53 456.37 80.88 456.82 81.33C457.27 81.65 457.65 82.1 457.97 82.68C458.29 83.19 458.45 83.8 458.45 84.5L458.45 101.2L431.67 101.2L431.67 84.5C431.67 83.8 431.83 83.19 432.15 82.68C432.53 82.1 432.92 81.65 433.3 81.33C433.75 80.88 434.29 80.53 434.93 80.28L434.93 79.8L414.22 79.8L414.22 80.28C414.86 80.53 415.41 80.88 415.85 81.33C416.3 81.65 416.69 82.1 417.01 82.68C417.33 83.19 417.49 83.8 417.49 84.5L390.7 120.63L390.7 84.5C390.7 83.8 390.86 83.19 391.18 82.68C391.57 82.1 391.95 81.65 392.33 81.33C392.78 80.88 393.33 80.53 393.97 80.28L393.97 79.8L383.6 79.8L383.6 80.28C384.24 80.53 384.78 80.88 385.23 81.33C385.68 81.65 386.06 82.1 386.38 82.68ZM424.58 80.28C423.94 80.54 423.4 80.89 422.96 81.33C422.57 81.65 422.19 82.1 421.81 82.68C421.49 83.19 421.33 83.8 421.33 84.5L421.33 123.09Q421.33 123.89 421.6 124.58Q421.69 124.8 421.81 125.01C422.19 125.52 422.57 125.94 422.96 126.26C423.4 126.7 423.94 127.06 424.58 127.31C425.21 127.06 425.75 126.7 426.2 126.26Q426.87 125.78 427.35 125.01Q427.47 124.8 427.55 124.58Q427.83 123.89 427.83 123.09L427.83 84.5C427.83 83.8 427.67 83.19 427.35 82.68C427.03 82.1 426.65 81.65 426.2 81.33C425.75 80.89 425.21 80.54 424.58 80.28ZM207.59 125.42Q204.43 127.32 200.15 127.32C197.27 127.32 194.77 126.68 192.66 125.4C190.55 124.12 188.79 122.36 187.38 120.12C186.03 117.81 185.01 115.12 184.31 112.05C183.6 108.92 183.25 105.52 183.25 101.88C183.25 99.25 183.6 96.66 184.31 94.1C185.01 91.48 186.03 89.14 187.38 87.09C188.79 85.04 190.55 83.41 192.66 82.2C194.77 80.92 197.27 80.28 200.15 80.28Q204.43 80.28 207.59 82.17Q207.61 82.18 207.63 82.2C209.75 83.48 211.51 85.2 212.91 87.38C214.32 89.49 215.38 91.99 216.08 94.87C216.79 97.68 217.14 100.66 217.14 103.8C217.14 106.93 216.79 109.94 216.08 112.82Q215.03 117.04 212.91 120.31C211.51 122.42 209.75 124.12 207.63 125.4Q207.61 125.41 207.59 125.42Z" fill="#9B9B9B" fill-opacity="1.000000" fill-rule="evenodd"/>
</svg>
