<svg width="294.103027" height="127.800003" viewBox="0 0 294.103 127.8" fill="none" xmlns="http://www.w3.org/2000/svg" xmlns:xlink="http://www.w3.org/1999/xlink">
	<desc>
			Created with Pixso.
	</desc>
	<defs>
		<linearGradient x1="190.000000" y1="-7.199997" x2="190.000000" y2="148.800003" id="paint_linear_159_78_0" gradientUnits="userSpaceOnUse">
			<stop stop-color="#071F92"/>
			<stop offset="1.000000" stop-color="#0E1641"/>
		</linearGradient>
	</defs>
	<path id="24/7" d="M27.18 5.4C30.3 4.19 34.43 3.59 39.59 3.59C42.72 3.59 46.08 4.19 49.68 5.4C53.28 6.48 56.58 8.28 59.58 10.8Q64.26 14.58 67.14 20.88C69.18 24.96 70.19 30.06 70.19 36.18Q70.19 41.58 68.82 46.61Q67.86 50.12 66.24 53.46Q62.46 61.56 54.54 71.1Q46.62 80.46 34.56 92.34Q22.68 104.04 6.48 120.6L0 126.72L0 127.8L81 127.8L81 108.54L80.1 108.54C80.1 109.02 80.04 109.92 79.92 111.24C79.8 112.56 79.37 113.94 78.66 115.38C78.06 116.7 77.16 117.9 75.96 118.98Q75.94 118.99 75.93 119Q74.13 120.6 70.92 120.6L10.26 120.6Q24.66 107.28 36.9 96.3C45.06 88.98 52.14 82.02 58.14 75.42C64.14 68.82 68.82 62.34 72.18 55.98Q75.65 49.63 76.81 42.89Q77.4 39.49 77.4 36Q77.4 24.84 73.44 17.82Q69.66 10.8 63.9 6.84C60.06 4.19 55.92 2.4 51.48 1.44C47.16 0.47 43.2 0 39.59 0Q31.68 0 25.38 2.16C21.18 3.59 17.52 5.52 14.4 7.92C11.4 10.2 9 12.78 7.2 15.66Q4.5 19.79 3.78 24.12C3.54 25.32 3.66 26.76 4.14 28.44Q4.51 29.42 5.21 30.05Q6.17 30.93 7.74 31.14C9.3 31.26 10.68 30.78 11.88 29.7C13.08 28.62 13.98 26.1 14.58 22.14C14.94 20.1 15.42 18 16.02 15.84C16.74 13.68 18 11.7 19.79 9.89C21.6 8.1 24.06 6.6 27.18 5.4ZM146.01 120.96C144.57 119.16 143.85 116.7 143.85 113.58L143.85 96.48L161.67 96.48L161.67 93.42L143.85 93.42L143.85 0L142.05 0L81.03 93.42L81.03 96.48L136.65 96.48L136.65 113.58C136.65 116.7 135.57 119.16 133.41 120.96C131.25 122.76 128.79 124.14 126.03 125.1C123.27 125.94 120.63 126.48 118.11 126.72C115.71 126.84 114.15 126.9 113.43 126.9L113.43 127.8L159.87 127.8L159.87 126.9C159.15 126.9 157.89 126.84 156.09 126.72C154.41 126.48 152.67 125.94 150.87 125.1C149.07 124.14 147.45 122.76 146.01 120.96ZM220.21 1.8L213.01 1.8L167.11 127.8L174.31 127.8L220.21 1.8ZM258.28 127.8L294.1 8.82L294.1 1.8L225.7 1.8L225.7 21.24L226.78 21.24C226.78 20.76 226.84 19.86 226.96 18.54C227.08 17.21 227.44 15.9 228.04 14.58C228.64 13.14 229.54 11.88 230.74 10.8C231.94 9.72 233.62 9.17 235.78 9.17L291.4 8.82L249.28 127.8L258.28 127.8ZM85.17 93.42L136.47 15.3L136.65 15.48L136.65 93.42L85.17 93.42Z" fill="url(#paint_linear_159_78_0)" fill-opacity="1.000000" fill-rule="evenodd"/>
</svg>
