<svg width="216.667969" height="128.718750" viewBox="0 0 216.668 128.719" fill="none" xmlns="http://www.w3.org/2000/svg" xmlns:xlink="http://www.w3.org/1999/xlink">
	<desc>
			Created with Pixso.
	</desc>
	<defs>
		<linearGradient x1="116.500000" y1="-9.000000" x2="116.500000" y2="147.000000" id="paint_linear_160_91_0" gradientUnits="userSpaceOnUse">
			<stop stop-color="#10142C"/>
			<stop offset="1.000000" stop-color="#0424BF"/>
		</linearGradient>
		<linearGradient x1="116.500000" y1="-9.000000" x2="116.500000" y2="147.000000" id="paint_linear_160_91_1" gradientUnits="userSpaceOnUse">
			<stop stop-color="#10142C"/>
			<stop offset="1.000000" stop-color="#0424BF"/>
		</linearGradient>
	</defs>
	<path id="37%" d="M48.78 120.24C44.7 121.68 40.68 122.4 36.72 122.4Q31.63 122.4 26.84 121.2Q26.38 121.08 25.92 120.96C22.56 119.88 19.44 118.5 16.56 116.82Q12.24 114.12 8.64 110.7C6.24 108.3 4.19 105.84 2.52 103.32L0 104.22Q2.16 109.08 5.76 113.4Q9.35 117.54 14.22 120.78C17.45 122.94 21 124.68 24.84 126C28.8 127.2 32.88 127.8 37.08 127.8C42.72 127.8 48.06 126.9 53.1 125.1C58.14 123.18 62.58 120.48 66.42 117Q67.67 115.86 68.81 114.63Q72.92 110.17 75.6 104.4C77.87 99.48 79.01 93.96 79.01 87.84Q79.01 78.3 75.06 72.18C72.54 68.1 69.36 64.8 65.51 62.28C61.68 59.76 57.48 57.96 52.92 56.88C48.36 55.8 44.16 55.14 40.32 54.9L78.3 7.2L78.3 -7.63e-6L2.7 -7.63e-6L2.7 19.26L3.6 19.26C3.6 18.78 3.66 17.87 3.78 16.56Q3.96 14.58 4.86 12.6C5.58 11.16 6.54 9.89 7.74 8.81C8.93 7.74 10.62 7.2 12.78 7.2L74.51 7.2L36.54 54.72L36.54 57.42C40.02 57.42 43.8 58.08 47.88 59.4C52.08 60.6 55.92 62.46 59.4 64.98C62.88 67.5 65.82 70.68 68.22 74.51C70.62 78.24 71.82 82.68 71.82 87.84C71.82 93.6 70.74 98.64 68.58 102.96C66.42 107.28 63.6 110.88 60.12 113.76Q57.71 115.81 55.02 117.38Q52.07 119.11 48.78 120.24ZM111.68 126L147.5 7.02L147.5 -7.63e-6L79.1 -7.63e-6L79.1 19.44L80.18 19.44C80.18 18.95 80.24 18.06 80.36 16.74C80.48 15.42 80.84 14.1 81.44 12.78C82.04 11.34 82.94 10.08 84.14 8.99C85.34 7.92 87.02 7.37 89.18 7.37L144.8 7.02L102.68 126L111.68 126Z" fill="url(#paint_linear_160_91_0)" fill-opacity="1.000000" fill-rule="evenodd"/>
	<path id="37%" d="M162.38 126.93L165.19 128.71L206.16 68.81L203.44 66.93L162.38 126.93ZM173.38 69.54Q170.58 68.34 167.26 68.34Q162.51 68.34 159.26 70.54Q156.85 72.17 155.26 75Q153.1 78.75 153.1 83.81Q153.1 91.56 156.97 95.71Q158.24 97.08 159.94 98.06Q160.9 98.59 161.92 98.97Q164.29 99.84 166.98 99.84Q171.68 99.84 174.93 97.66Q177.44 95.98 179.07 93Q181.13 89.15 181.13 84.09Q181.13 76.21 177.19 72.17Q175.7 70.63 173.63 69.65Q173.51 69.59 173.38 69.54ZM169.25 97.51Q168.3 97.95 167.16 97.96Q165.34 97.96 164.02 97.15Q161.8 95.79 160.98 92.15Q160.32 89.06 160.32 84.09Q160.32 72.75 164.35 70.78Q165.57 70.21 167.07 70.21Q168.76 70.21 170.02 70.95Q172.31 72.3 173.16 76.12Q173.82 79.12 173.82 83.81Q173.74 95.43 169.25 97.51ZM208.91 96.63Q206.11 95.43 202.79 95.43Q198.04 95.43 194.79 97.63Q192.38 99.26 190.79 102.09Q188.63 105.84 188.63 110.9Q188.63 118.65 192.5 122.8Q193.78 124.17 195.48 125.15Q196.43 125.69 197.45 126.06Q199.82 126.93 202.51 126.93Q207.21 126.93 210.46 124.75Q212.97 123.07 214.6 120.09Q216.66 116.25 216.66 111.18Q216.66 103.3 212.72 99.26Q211.23 97.73 209.16 96.75Q209.04 96.69 208.91 96.63ZM204.78 124.6Q203.83 125.04 202.69 125.06Q200.87 125.06 199.55 124.25Q197.33 122.89 196.51 119.25Q195.85 116.15 195.85 111.18Q195.85 99.84 199.88 97.87Q201.1 97.31 202.6 97.31Q204.29 97.31 205.55 98.05Q207.85 99.4 208.69 103.21Q209.35 106.21 209.35 110.9Q209.27 122.52 204.78 124.6Z" fill="url(#paint_linear_160_91_1)" fill-opacity="1.000000" fill-rule="evenodd"/>
	<path id="37%" d="M162.38 126.93L165.19 128.71L206.16 68.81L203.44 66.93L162.38 126.93ZM173.38 69.54Q170.58 68.34 167.26 68.34Q162.51 68.34 159.26 70.54Q156.85 72.17 155.26 75Q153.1 78.75 153.1 83.81Q153.1 91.56 156.97 95.71Q158.24 97.08 159.94 98.06Q160.9 98.59 161.92 98.97Q164.29 99.84 166.98 99.84Q171.68 99.84 174.93 97.66Q177.44 95.98 179.07 93Q181.13 89.15 181.13 84.09Q181.13 76.21 177.19 72.17Q175.7 70.63 173.63 69.65Q173.51 69.59 173.38 69.54ZM169.25 97.51Q168.3 97.95 167.16 97.96Q165.34 97.96 164.02 97.15Q161.8 95.79 160.98 92.15Q160.32 89.06 160.32 84.09Q160.32 72.75 164.35 70.78Q165.57 70.21 167.07 70.21Q168.76 70.21 170.02 70.95Q172.31 72.3 173.16 76.12Q173.82 79.12 173.82 83.81Q173.74 95.43 169.25 97.51ZM208.91 96.63Q206.11 95.43 202.79 95.43Q198.04 95.43 194.79 97.63Q192.38 99.26 190.79 102.09Q188.63 105.84 188.63 110.9Q188.63 118.65 192.5 122.8Q193.78 124.17 195.48 125.15Q196.43 125.69 197.45 126.06Q199.82 126.93 202.51 126.93Q207.21 126.93 210.46 124.75Q212.97 123.07 214.6 120.09Q216.66 116.25 216.66 111.18Q216.66 103.3 212.72 99.26Q211.23 97.73 209.16 96.75Q209.04 96.69 208.91 96.63ZM204.78 124.6Q203.83 125.04 202.69 125.06Q200.87 125.06 199.55 124.25Q197.33 122.89 196.51 119.25Q195.85 116.15 195.85 111.18Q195.85 99.84 199.88 97.87Q201.1 97.31 202.6 97.31Q204.29 97.31 205.55 98.05Q207.85 99.4 208.69 103.21Q209.35 106.21 209.35 110.9Q209.27 122.52 204.78 124.6Z" fill="#9B9B9B" fill-opacity="1.000000" fill-rule="evenodd"/>
</svg>
