<svg width="387.925781" height="133.667999" viewBox="0 0 387.926 133.668" fill="none" xmlns="http://www.w3.org/2000/svg" xmlns:xlink="http://www.w3.org/1999/xlink">
	<desc>
			Created with Pixso.
	</desc>
	<defs>
		<linearGradient x1="278.499969" y1="-5.940002" x2="278.499969" y2="150.059998" id="paint_linear_207_21_0" gradientUnits="userSpaceOnUse">
			<stop stop-color="#071F92"/>
			<stop offset="1.000000" stop-color="#0E1641"/>
		</linearGradient>
	</defs>
	<path id="5☆отели" d="M207.93 81.92Q204.09 80.1 199.29 80.1C196.09 80.1 193.21 80.7 190.65 81.92C188.09 83.14 185.91 84.86 184.12 87.1C182.33 89.28 180.95 91.9 179.99 94.98C179.03 98.05 178.55 101.41 178.55 105.06C178.55 108.7 179.03 112.06 179.99 115.14C180.95 118.14 182.33 120.77 184.12 123.01C185.91 125.18 188.09 126.91 190.65 128.19C193.21 129.41 196.09 130.02 199.29 130.02Q204.09 130.02 207.93 128.19C210.49 126.91 212.67 125.18 214.46 123.01C216.31 120.77 217.72 118.14 218.68 115.14C219.64 112.06 220.12 108.7 220.12 105.06C220.12 101.41 219.64 98.05 218.68 94.98C217.72 91.9 216.31 89.28 214.46 87.1C212.67 84.86 210.49 83.14 207.93 81.92ZM268.95 114.08C268.31 111.26 267.99 108.32 267.99 105.25C267.99 103.53 268.12 101.81 268.4 100.06L297.17 100.06C298.45 100.06 299.38 99.97 299.96 99.78C300.6 99.58 301.01 99.3 301.2 98.91C301.46 98.53 301.56 98.05 301.49 97.47C301.49 96.9 301.43 96.19 301.3 95.36C301.04 93.38 300.47 91.49 299.57 89.7C298.68 87.9 297.49 86.34 296.02 84.99C294.61 83.65 292.92 82.59 290.93 81.82C289.01 80.99 286.9 80.58 284.6 80.58C281.78 80.58 279.12 81.18 276.63 82.4C274.2 83.62 272.05 85.31 270.2 87.49C268.34 89.66 266.87 92.29 265.78 95.36C264.69 98.37 264.15 101.66 264.15 105.25C264.15 108.9 264.63 112.22 265.59 115.23Q267.03 119.74 269.62 123.1C271.41 125.28 273.59 126.98 276.15 128.19C278.71 129.41 281.56 130.02 284.69 130.02C286.87 130.02 288.79 129.7 290.45 129.06C292.12 128.48 293.62 127.71 294.96 126.75C296.31 125.73 297.49 124.58 298.51 123.3C299.6 122.02 300.6 120.7 301.49 119.36L300.82 118.69Q299.28 120.7 297.65 122.53C296.56 123.68 295.38 124.7 294.1 125.6C292.82 126.43 291.41 127.1 289.88 127.62C288.34 128.06 286.61 128.29 284.69 128.29C281.88 128.29 279.41 127.68 277.3 126.46C275.19 125.18 273.43 123.49 272.02 121.38C270.68 119.26 269.65 116.83 268.95 114.08ZM268.65 98.62L297.75 98.62C297.75 96.64 297.49 94.69 296.98 92.77C296.47 90.78 295.64 89.02 294.48 87.49Q294.25 87.16 293.99 86.84Q292.47 84.98 290.16 83.74C288.44 82.78 286.35 82.3 283.92 82.3C281.17 82.3 278.8 83.01 276.82 84.42C274.84 85.82 273.17 87.65 271.83 89.89C270.55 92.06 269.59 94.53 268.95 97.28C268.84 97.73 268.74 98.18 268.65 98.62ZM224.65 83.74C225.35 82.91 226.28 82.5 227.43 82.5L240.68 82.5L240.68 124.35C240.68 125.06 240.52 125.7 240.2 126.27Q239.72 127.04 239.05 127.52C238.6 127.97 238.06 128.32 237.42 128.58L237.42 129.06L247.78 129.06L247.78 128.58C247.14 128.32 246.6 127.97 246.15 127.52C245.77 127.2 245.38 126.78 245 126.27Q244.88 126.06 244.8 125.84Q244.52 125.15 244.52 124.35L244.52 82.5L257.77 82.5C258.92 82.5 259.82 82.91 260.46 83.74C261.16 84.58 261.67 85.5 261.99 86.53C262.31 87.55 262.5 88.54 262.57 89.5Q262.76 90.94 262.76 91.33L263.24 91.33L263.24 81.06L221.96 81.06L221.96 91.33L222.44 91.33C222.44 91.07 222.47 90.46 222.54 89.5C222.66 88.54 222.89 87.55 223.21 86.53C223.53 85.5 224.01 84.58 224.65 83.74ZM301.38 128.58C301.9 129.22 302.7 129.53 303.78 129.53C306.47 129.53 308.62 128.86 310.22 127.52C311.88 126.11 313.19 124.35 314.15 122.24Q315.69 119.07 316.36 115.33C316.87 112.83 317.32 110.46 317.7 108.22C317.83 107.39 317.99 106.24 318.18 104.77C318.38 103.3 318.54 101.6 318.66 99.68C318.79 97.76 318.89 95.68 318.95 93.44C319.08 91.2 319.14 88.9 319.14 86.53L319.14 82.5L335.85 82.5L335.85 123.68C335.85 124.58 335.69 125.34 335.37 125.98C335.05 126.56 334.7 127.04 334.31 127.42C333.8 127.87 333.26 128.25 332.68 128.58L332.68 129.06L343.05 129.06L343.05 128.58Q342.09 128.1 341.42 127.42C340.97 127.04 340.55 126.56 340.17 125.98C339.85 125.34 339.69 124.58 339.69 123.68L339.69 86.53Q339.69 85.18 340.17 84.32C340.49 83.68 340.84 83.17 341.22 82.78Q341.8 82.11 342.38 81.82Q342.95 81.54 343.05 81.54L343.05 81.06L313.38 81.06L313.38 81.54Q313.58 81.54 314.25 81.82C314.7 82.02 315.18 82.34 315.69 82.78C316.26 83.17 316.74 83.68 317.13 84.32Q317.16 84.37 317.2 84.41Q317.8 85.26 317.8 86.53C317.67 92.99 317.35 98.37 316.84 102.66C316.39 106.88 316.04 109.44 315.78 110.34C315.27 112.32 314.82 114.14 314.44 115.81C314.06 117.47 313.48 118.91 312.71 120.13Q312.36 120.68 311.93 121.16Q310.95 122.27 309.54 123.01C308.2 123.65 306.28 123.97 303.78 123.97C302.82 123.97 302.06 124.22 301.48 124.74C300.9 125.18 300.62 125.89 300.62 126.85C300.62 127.36 300.87 127.94 301.38 128.58ZM349.71 83.94C350.03 84.45 350.19 85.06 350.19 85.76L350.19 124.35Q350.19 125.15 349.92 125.84Q349.83 126.06 349.71 126.27Q349.23 127.04 348.56 127.52C348.11 127.97 347.57 128.32 346.93 128.58L346.93 129.06L357.3 129.06L357.3 128.58C356.66 128.32 356.11 127.97 355.67 127.52C355.28 127.2 354.9 126.78 354.51 126.27Q354.4 126.06 354.31 125.84Q354.03 125.15 354.03 124.35L380.82 88.22L380.82 124.35Q380.82 125.15 380.54 125.84Q380.45 126.06 380.34 126.27C380.02 126.78 379.63 127.2 379.19 127.52C378.74 127.97 378.19 128.32 377.55 128.58L377.55 129.06L387.92 129.06L387.92 128.58C387.28 128.32 386.74 127.97 386.29 127.52C385.91 127.2 385.52 126.78 385.14 126.27Q385.02 126.06 384.93 125.84Q384.66 125.15 384.66 124.35L384.66 85.76C384.66 85.06 384.82 84.45 385.14 83.94C385.52 83.36 385.91 82.91 386.29 82.59C386.74 82.14 387.28 81.79 387.92 81.54L387.92 81.06L377.55 81.06L377.55 81.54C378.19 81.79 378.74 82.14 379.19 82.59C379.63 82.91 380.02 83.36 380.34 83.94C380.66 84.45 380.82 85.06 380.82 85.76L354.03 121.89L354.03 85.76C354.03 85.06 354.19 84.45 354.51 83.94C354.9 83.36 355.28 82.91 355.67 82.59C356.11 82.14 356.66 81.79 357.3 81.54L357.3 81.06L346.93 81.06L346.93 81.54C347.57 81.79 348.11 82.14 348.56 82.59C349.01 82.91 349.39 83.36 349.71 83.94ZM206.73 126.68Q203.58 128.58 199.29 128.58C196.41 128.58 193.91 127.94 191.8 126.66C189.69 125.38 187.93 123.68 186.52 121.57C185.18 119.39 184.15 116.9 183.45 114.08C182.75 111.2 182.39 108.19 182.39 105.06C182.39 101.92 182.75 98.94 183.45 96.13C184.15 93.25 185.18 90.75 186.52 88.64C187.93 86.46 189.69 84.74 191.8 83.46C193.91 82.18 196.41 81.54 199.29 81.54Q203.58 81.54 206.73 83.43Q206.75 83.44 206.78 83.46C208.89 84.74 210.65 86.46 212.06 88.64C213.47 90.75 214.52 93.25 215.23 96.13C215.93 98.94 216.28 101.92 216.28 105.06C216.28 108.19 215.93 111.2 215.23 114.08Q214.17 118.3 212.06 121.57C210.65 123.68 208.89 125.38 206.78 126.66Q206.75 126.67 206.73 126.68Z" fill="#9B9B9B" fill-opacity="1.000000" fill-rule="evenodd"/>
	<path id="5☆отели" d="M75.96 106.74C78.12 101.58 79.19 95.7 79.19 89.1C79.19 82.5 78.12 76.56 75.96 71.28C73.8 65.87 70.74 61.32 66.78 57.6Q66.52 57.35 66.26 57.11Q60.47 51.7 52.38 48.78Q43.92 45.54 33.48 45.54C31.2 45.54 28.86 45.78 26.46 46.26C24.06 46.62 21.72 47.1 19.44 47.7C17.28 48.3 15.24 48.96 13.32 49.68C11.4 50.28 9.78 50.88 8.46 51.48L15.3 10.26L73.8 10.26L76.5 0L75.42 0C74.58 0.95 73.56 1.73 72.36 2.33C71.28 2.81 69 3.05 65.51 3.05L13.68 3.05L5.04 55.62Q5.76 55.44 8.28 54.54C9.96 53.94 12.06 53.34 14.58 52.74Q18.36 51.66 23.22 50.94C26.46 50.34 29.76 50.04 33.12 50.04C38.4 50.04 43.38 51 48.06 52.92C52.86 54.84 57 57.54 60.48 61.02Q61.41 61.88 62.27 62.82Q66.4 67.3 68.94 73.26C70.98 78.06 72 83.34 72 89.1C72 94.86 70.98 100.02 68.94 104.58C66.9 109.14 64.19 112.98 60.84 116.1Q59.29 117.53 57.59 118.76Q53.97 121.4 49.68 123.12Q46.07 124.45 42.35 125.03Q39.56 125.46 36.72 125.46Q31.63 125.46 26.84 124.26Q26.38 124.14 25.92 124.02C22.56 122.94 19.44 121.56 16.56 119.88Q12.24 117.18 8.64 113.76C6.24 111.36 4.19 108.9 2.52 106.38L0 107.28Q2.16 112.14 5.76 116.46Q9.35 120.6 14.22 123.84C17.45 126 21 127.74 24.84 129.06C28.8 130.25 32.88 130.86 37.08 130.86C43.08 130.86 48.66 129.96 53.82 128.16C58.98 126.24 63.42 123.48 67.14 119.88C70.98 116.28 73.92 111.9 75.96 106.74ZM111.05 100.45L99.82 133.66L128.9 112.35L157.8 133.66L146.76 100.45L173.64 82.59L140.9 82.59L128.9 46.88L116.9 82.59L84.17 82.59L111.05 100.45ZM128.9 105.15L110.38 119.17L117.96 98.24L100.87 87.3L121.22 87.3L128.9 64.16L136.49 87.3L156.74 87.3L139.85 98.24L147.43 119.17L128.9 105.15Z" fill="url(#paint_linear_207_21_0)" fill-opacity="1.000000" fill-rule="evenodd"/>
</svg>
