<svg width="349.218750" height="129.600006" viewBox="0 0 349.219 129.6" fill="none" xmlns="http://www.w3.org/2000/svg" xmlns:xlink="http://www.w3.org/1999/xlink">
	<desc>
			Created with Pixso.
	</desc>
	<defs>
		<linearGradient x1="190.720215" y1="-7.199997" x2="190.720215" y2="148.800003" id="paint_linear_150_87_0" gradientUnits="userSpaceOnUse">
			<stop stop-color="#071F92"/>
			<stop offset="1.000000" stop-color="#0E1641"/>
		</linearGradient>
		<linearGradient x1="190.720215" y1="-7.199997" x2="190.720215" y2="148.800003" id="paint_linear_150_87_1" gradientUnits="userSpaceOnUse">
			<stop stop-color="#10142C"/>
			<stop offset="1.000000" stop-color="#0424BF"/>
		</linearGradient>
	</defs>
	<path id="60+ лет" d="M19.44 124.74C24.6 127.98 31.2 129.6 39.24 129.6C44.88 129.6 50.04 128.7 54.72 126.9C59.4 124.98 63.42 122.22 66.78 118.62C70.26 115.02 72.96 110.64 74.88 105.48C76.8 100.32 77.76 94.44 77.76 87.84C77.76 81.24 76.8 75.36 74.88 70.19C72.96 65.04 70.26 60.66 66.78 57.06C63.42 53.46 59.4 50.76 54.72 48.96Q47.7 46.08 39.24 46.08C36.24 46.08 33.18 46.62 30.06 47.7C26.94 48.66 23.94 50.16 21.06 52.2C18.3 54.24 15.72 56.7 13.32 59.58Q9.72 63.9 7.56 69.66L7.38 69.66C7.38 67.37 7.56 64.19 7.92 60.12C8.4 56.04 9.3 51.6 10.62 46.8Q12.6 39.41 16.38 31.86C19.02 26.7 22.5 22.02 26.82 17.82C31.14 13.62 36.48 10.14 42.84 7.38C49.2 4.5 56.82 2.93 65.7 2.7L65.7 0C52.74 0.36 42 2.81 33.48 7.38Q21.31 13.81 13.84 23.76Q13.57 24.12 13.32 24.48Q12.26 25.96 11.3 27.5Q5.5 36.79 2.88 48.06Q1.63 53.64 0.93 59.29Q0 66.75 0 74.33C0 80.82 0.54 87.36 1.62 93.96Q3.24 103.68 7.56 111.78Q9.58 115.49 12.32 118.57Q15.42 122.06 19.44 124.74ZM135.85 4.86C130.81 1.62 125.29 0 119.29 0C113.29 0 107.71 1.62 102.55 4.86Q94.99 9.54 89.41 18.18Q84.01 26.82 80.77 38.7C78.73 46.62 77.71 55.32 77.71 64.8C77.71 74.28 78.73 82.98 80.77 90.9C82.93 98.82 85.81 105.66 89.41 111.42Q94.99 120.06 102.55 124.92C107.71 128.03 113.29 129.6 119.29 129.6C125.29 129.6 130.81 128.03 135.85 124.92C141.01 121.68 145.45 117.18 149.17 111.42C152.89 105.66 155.77 98.82 157.81 90.9C159.97 82.98 161.05 74.28 161.05 64.8C161.05 55.32 159.97 46.62 157.81 38.7C155.77 30.78 152.89 23.94 149.17 18.18C145.45 12.42 141.01 7.98 135.85 4.86ZM132.97 121.86C128.77 125.22 124.21 126.9 119.29 126.9C114.37 126.9 109.81 125.22 105.61 121.86C101.41 118.38 97.75 113.76 94.63 108C91.63 102.24 89.23 95.64 87.43 88.2C85.75 80.64 84.91 72.83 84.91 64.8C84.91 56.64 85.75 48.84 87.43 41.4C89.23 33.96 91.63 27.36 94.63 21.6C97.75 15.84 101.41 11.28 105.61 7.92Q110.14 4.16 115.23 3.11Q117.22 2.7 119.29 2.7C124.21 2.7 128.77 4.43 132.97 7.92C137.29 11.28 140.95 15.84 143.95 21.6C147.07 27.36 149.47 33.96 151.15 41.4C152.95 48.84 153.85 56.64 153.85 64.8C153.85 72.83 152.95 80.64 151.15 88.2C149.47 95.64 147.07 102.24 143.95 108C140.95 113.76 137.29 118.38 132.97 121.86ZM50.76 124.02C47.04 125.94 43.2 126.9 39.24 126.9C35.28 126.9 31.38 125.94 27.54 124.02Q26.81 123.64 26.11 123.23Q21.4 120.48 17.64 116.1Q13.32 110.88 10.62 103.68Q7.92 96.48 7.92 87.84Q7.92 79.19 10.62 72Q13.32 64.8 17.64 59.76Q21.78 54.75 27.08 51.9Q27.3 51.77 27.54 51.66C31.38 49.74 35.28 48.78 39.24 48.78C43.2 48.78 47.04 49.74 50.76 51.66C54.6 53.58 57.96 56.28 60.84 59.76Q65.16 64.8 67.86 72C69.66 76.8 70.56 82.08 70.56 87.84C70.56 93.6 69.66 98.88 67.86 103.68Q65.16 110.88 60.84 116.1Q57.84 119.58 54.16 122.04Q52.53 123.13 50.76 124.02Z" fill="url(#paint_linear_150_87_0)" fill-opacity="1.000000" fill-rule="evenodd"/>
	<path id="60+ лет" d="M272.42 112.82C271.78 110 271.46 107.06 271.46 103.99C271.46 102.27 271.6 100.55 271.87 98.8L300.65 98.8C301.93 98.8 302.85 98.71 303.43 98.52C304.07 98.32 304.49 98.04 304.68 97.65C304.93 97.27 305.03 96.79 304.97 96.21C304.97 95.64 304.9 94.93 304.77 94.1C304.52 92.12 303.94 90.23 303.04 88.44C302.15 86.64 300.97 85.08 299.49 83.73C298.09 82.39 296.39 81.33 294.41 80.56C292.49 79.73 290.37 79.32 288.07 79.32C285.25 79.32 282.6 79.92 280.1 81.14C277.67 82.36 275.53 84.05 273.67 86.23C271.81 88.4 270.34 91.03 269.25 94.1C268.17 97.11 267.62 100.4 267.62 103.99C267.62 107.64 268.1 110.96 269.06 113.97Q270.5 118.48 273.09 121.84C274.89 124.02 277.06 125.72 279.62 126.93C282.18 128.15 285.03 128.75 288.17 128.75C290.34 128.75 292.26 128.44 293.93 127.8C295.59 127.22 297.09 126.45 298.44 125.49C299.78 124.47 300.97 123.32 301.99 122.04C303.08 120.76 304.07 119.44 304.97 118.1L304.29 117.43Q302.76 119.44 301.13 121.27C300.04 122.42 298.85 123.44 297.57 124.34C296.29 125.17 294.89 125.84 293.35 126.36C291.81 126.8 290.09 127.03 288.17 127.03C285.35 127.03 282.89 126.42 280.77 125.2C278.66 123.92 276.9 122.23 275.49 120.12C274.15 118 273.13 115.57 272.42 112.82ZM272.13 97.36L301.22 97.36C301.22 95.38 300.97 93.43 300.45 91.51C299.94 89.52 299.11 87.76 297.96 86.23Q297.72 85.9 297.47 85.58Q295.94 83.72 293.64 82.48C291.91 81.52 289.83 81.04 287.4 81.04C284.65 81.04 282.28 81.75 280.29 83.16C278.31 84.56 276.65 86.39 275.3 88.63C274.02 90.8 273.06 93.27 272.42 96.02C272.32 96.47 272.22 96.92 272.13 97.36ZM224.05 127.32C224.56 127.96 225.36 128.28 226.45 128.28C229.13 128.28 231.28 127.6 232.88 126.26C234.54 124.85 235.85 123.09 236.81 120.98C237.84 118.87 238.57 116.56 239.02 114.07C239.53 111.57 239.98 109.2 240.37 106.96C240.49 106.13 240.65 104.98 240.85 103.51C241.04 102.04 241.2 100.34 241.33 98.42C241.45 96.5 241.55 94.42 241.61 92.18C241.74 89.94 241.81 87.64 241.81 85.27L241.81 81.24L258.51 81.24L258.51 122.42C258.51 123.32 258.35 124.08 258.03 124.72C257.71 125.3 257.36 125.78 256.97 126.16C256.46 126.61 255.92 127 255.34 127.32L255.34 127.8L265.71 127.8L265.71 127.32Q264.75 126.84 264.08 126.16C263.63 125.78 263.21 125.3 262.83 124.72C262.51 124.08 262.35 123.32 262.35 122.42L262.35 85.27Q262.35 83.92 262.83 83.06C263.15 82.42 263.5 81.91 263.89 81.52Q264.46 80.85 265.04 80.56Q265.61 80.28 265.71 80.28L265.71 79.8L236.05 79.8L236.05 80.28C236.17 80.28 236.46 80.37 236.91 80.56C237.36 80.76 237.84 81.08 238.35 81.52C238.93 81.91 239.41 82.42 239.79 83.06C240.24 83.64 240.46 84.37 240.46 85.27C240.33 91.73 240.01 97.11 239.5 101.4C239.05 105.62 238.7 108.18 238.45 109.08C237.93 111.06 237.49 112.88 237.1 114.55C236.72 116.21 236.14 117.65 235.37 118.87C234.61 120.08 233.55 121.04 232.21 121.75C230.86 122.39 228.94 122.71 226.45 122.71C225.49 122.71 224.72 122.96 224.14 123.48C223.57 123.92 223.28 124.63 223.28 125.59C223.28 126.1 223.53 126.68 224.05 127.32ZM310.62 82.48C311.33 81.65 312.25 81.24 313.41 81.24L326.65 81.24L326.65 123.09Q326.65 123.89 326.38 124.58Q326.29 124.8 326.17 125.01C325.85 125.52 325.47 125.94 325.02 126.26C324.57 126.71 324.03 127.06 323.39 127.32L323.39 127.8L333.76 127.8L333.76 127.32C333.12 127.06 332.57 126.71 332.13 126.26Q331.55 125.78 330.97 125.01Q330.86 124.8 330.77 124.58Q330.49 123.89 330.49 123.09L330.49 81.24L343.74 81.24C344.89 81.24 345.79 81.65 346.43 82.48C347.13 83.32 347.65 84.24 347.97 85.27C348.29 86.29 348.48 87.28 348.54 88.24Q348.73 89.68 348.73 90.07L349.21 90.07L349.21 79.8L307.93 79.8L307.93 90.07L308.41 90.07C308.41 89.81 308.45 89.2 308.51 88.24C308.64 87.28 308.86 86.29 309.18 85.27C309.5 84.24 309.98 83.32 310.62 82.48ZM185.12 107.55L200.78 107.55L200.78 104.17L185.12 104.17L185.12 87.48L180.9 87.48L180.9 104.17L165.25 104.17L165.25 107.55L180.9 107.55L180.9 124.23L185.12 124.23L185.12 107.55Z" fill="url(#paint_linear_150_87_1)" fill-opacity="1.000000" fill-rule="evenodd"/>
	<path id="60+ лет" d="M272.42 112.82C271.78 110 271.46 107.06 271.46 103.99C271.46 102.27 271.6 100.55 271.87 98.8L300.65 98.8C301.93 98.8 302.85 98.71 303.43 98.52C304.07 98.32 304.49 98.04 304.68 97.65C304.93 97.27 305.03 96.79 304.97 96.21C304.97 95.64 304.9 94.93 304.77 94.1C304.52 92.12 303.94 90.23 303.04 88.44C302.15 86.64 300.97 85.08 299.49 83.73C298.09 82.39 296.39 81.33 294.41 80.56C292.49 79.73 290.37 79.32 288.07 79.32C285.25 79.32 282.6 79.92 280.1 81.14C277.67 82.36 275.53 84.05 273.67 86.23C271.81 88.4 270.34 91.03 269.25 94.1C268.17 97.11 267.62 100.4 267.62 103.99C267.62 107.64 268.1 110.96 269.06 113.97Q270.5 118.48 273.09 121.84C274.89 124.02 277.06 125.72 279.62 126.93C282.18 128.15 285.03 128.75 288.17 128.75C290.34 128.75 292.26 128.44 293.93 127.8C295.59 127.22 297.09 126.45 298.44 125.49C299.78 124.47 300.97 123.32 301.99 122.04C303.08 120.76 304.07 119.44 304.97 118.1L304.29 117.43Q302.76 119.44 301.13 121.27C300.04 122.42 298.85 123.44 297.57 124.34C296.29 125.17 294.89 125.84 293.35 126.36C291.81 126.8 290.09 127.03 288.17 127.03C285.35 127.03 282.89 126.42 280.77 125.2C278.66 123.92 276.9 122.23 275.49 120.12C274.15 118 273.13 115.57 272.42 112.82ZM272.13 97.36L301.22 97.36C301.22 95.38 300.97 93.43 300.45 91.51C299.94 89.52 299.11 87.76 297.96 86.23Q297.72 85.9 297.47 85.58Q295.94 83.72 293.64 82.48C291.91 81.52 289.83 81.04 287.4 81.04C284.65 81.04 282.28 81.75 280.29 83.16C278.31 84.56 276.65 86.39 275.3 88.63C274.02 90.8 273.06 93.27 272.42 96.02C272.32 96.47 272.22 96.92 272.13 97.36ZM224.05 127.32C224.56 127.96 225.36 128.28 226.45 128.28C229.13 128.28 231.28 127.6 232.88 126.26C234.54 124.85 235.85 123.09 236.81 120.98C237.84 118.87 238.57 116.56 239.02 114.07C239.53 111.57 239.98 109.2 240.37 106.96C240.49 106.13 240.65 104.98 240.85 103.51C241.04 102.04 241.2 100.34 241.33 98.42C241.45 96.5 241.55 94.42 241.61 92.18C241.74 89.94 241.81 87.64 241.81 85.27L241.81 81.24L258.51 81.24L258.51 122.42C258.51 123.32 258.35 124.08 258.03 124.72C257.71 125.3 257.36 125.78 256.97 126.16C256.46 126.61 255.92 127 255.34 127.32L255.34 127.8L265.71 127.8L265.71 127.32Q264.75 126.84 264.08 126.16C263.63 125.78 263.21 125.3 262.83 124.72C262.51 124.08 262.35 123.32 262.35 122.42L262.35 85.27Q262.35 83.92 262.83 83.06C263.15 82.42 263.5 81.91 263.89 81.52Q264.46 80.85 265.04 80.56Q265.61 80.28 265.71 80.28L265.71 79.8L236.05 79.8L236.05 80.28C236.17 80.28 236.46 80.37 236.91 80.56C237.36 80.76 237.84 81.08 238.35 81.52C238.93 81.91 239.41 82.42 239.79 83.06C240.24 83.64 240.46 84.37 240.46 85.27C240.33 91.73 240.01 97.11 239.5 101.4C239.05 105.62 238.7 108.18 238.45 109.08C237.93 111.06 237.49 112.88 237.1 114.55C236.72 116.21 236.14 117.65 235.37 118.87C234.61 120.08 233.55 121.04 232.21 121.75C230.86 122.39 228.94 122.71 226.45 122.71C225.49 122.71 224.72 122.96 224.14 123.48C223.57 123.92 223.28 124.63 223.28 125.59C223.28 126.1 223.53 126.68 224.05 127.32ZM310.62 82.48C311.33 81.65 312.25 81.24 313.41 81.24L326.65 81.24L326.65 123.09Q326.65 123.89 326.38 124.58Q326.29 124.8 326.17 125.01C325.85 125.52 325.47 125.94 325.02 126.26C324.57 126.71 324.03 127.06 323.39 127.32L323.39 127.8L333.76 127.8L333.76 127.32C333.12 127.06 332.57 126.71 332.13 126.26Q331.55 125.78 330.97 125.01Q330.86 124.8 330.77 124.58Q330.49 123.89 330.49 123.09L330.49 81.24L343.74 81.24C344.89 81.24 345.79 81.65 346.43 82.48C347.13 83.32 347.65 84.24 347.97 85.27C348.29 86.29 348.48 87.28 348.54 88.24Q348.73 89.68 348.73 90.07L349.21 90.07L349.21 79.8L307.93 79.8L307.93 90.07L308.41 90.07C308.41 89.81 308.45 89.2 308.51 88.24C308.64 87.28 308.86 86.29 309.18 85.27C309.5 84.24 309.98 83.32 310.62 82.48ZM185.12 107.55L200.78 107.55L200.78 104.17L185.12 104.17L185.12 87.48L180.9 87.48L180.9 104.17L165.25 104.17L165.25 107.55L180.9 107.55L180.9 124.23L185.12 124.23L185.12 107.55Z" fill="#9B9B9B" fill-opacity="1.000000" fill-rule="evenodd"/>
</svg>
