<svg width="411.010742" height="134.231995" viewBox="0 0 411.011 134.232" fill="none" xmlns="http://www.w3.org/2000/svg" xmlns:xlink="http://www.w3.org/1999/xlink">
	<desc>
			Created with Pixso.
	</desc>
	<defs>
		<linearGradient x1="227.000000" y1="-6.999992" x2="227.000000" y2="129.000000" id="paint_linear_207_26_0" gradientUnits="userSpaceOnUse">
			<stop stop-color="#071F92"/>
			<stop offset="1.000000" stop-color="#0E1641"/>
		</linearGradient>
	</defs>
	<path id="Доступ" d="M0 95.9L0 116.06L0.7 116.06C0.7 115.5 0.74 114.24 0.84 112.28C1.02 110.41 1.44 108.4 2.09 106.26C2.84 104.11 3.92 102.2 5.32 100.52C6.72 98.84 8.63 98 11.06 98L83.3 98C85.72 98 87.64 98.84 89.04 100.52C90.44 102.2 91.46 104.11 92.12 106.26C92.86 108.4 93.28 110.41 93.38 112.28C93.56 114.24 93.66 115.5 93.66 116.06L94.36 116.06L94.36 95.9L77.14 95.9L77.14 11.06C77.14 9.28 77.46 7.74 78.12 6.44C78.86 5.13 79.7 4.06 80.64 3.22C81.57 2.38 82.41 1.77 83.16 1.4C84 0.93 84.51 0.69 84.7 0.69L84.7 0L24.78 0L24.78 0.69C24.96 0.69 25.52 0.93 26.46 1.4C27.39 1.77 28.37 2.38 29.4 3.22C30.52 4.06 31.5 5.13 32.34 6.44C33.18 7.74 33.59 9.28 33.59 11.06C33.59 16 33.41 21.23 33.04 26.74C32.66 32.24 32.1 37.75 31.36 43.26C30.7 48.76 29.86 54.22 28.84 59.64Q27.44 67.62 25.62 74.62C24.4 79.19 23.05 83.34 21.56 87.08Q19.45 92.54 17.08 95.9L0 95.9ZM71.54 95.9L19.87 95.9C21.37 93.66 22.82 90.72 24.22 87.08Q26.32 81.48 28.14 74.62C29.35 69.95 30.42 64.96 31.36 59.64Q32.9 51.52 33.88 43.26C34.53 37.75 35.04 32.24 35.41 26.74C35.79 21.23 35.98 16 35.98 11.06L35.98 2.09L71.54 2.09L71.54 95.9ZM134.44 29.26C130.7 27.48 126.5 26.6 121.84 26.6C117.17 26.6 112.97 27.48 109.24 29.26C105.5 31.03 102.33 33.55 99.72 36.82Q95.8 41.58 93.7 48.3C92.3 52.78 91.6 57.68 91.6 63C91.6 68.32 92.3 73.22 93.7 77.69C95.1 82.08 97.1 85.91 99.72 89.18C102.33 92.35 105.5 94.87 109.24 96.74C112.97 98.51 117.17 99.4 121.84 99.4C126.5 99.4 130.7 98.51 134.44 96.74C138.17 94.87 141.34 92.35 143.96 89.18C146.66 85.91 148.72 82.08 150.12 77.69C151.52 73.22 152.22 68.32 152.22 63C152.22 57.68 151.52 52.78 150.12 48.3C148.72 43.82 146.66 39.99 143.96 36.82C141.34 33.55 138.17 31.03 134.44 29.26ZM165.19 76.16C163.98 72.05 163.37 67.76 163.37 63.28C163.37 58.8 163.88 54.55 164.91 50.54C166.03 46.43 167.62 42.84 169.67 39.75C171.82 36.58 174.43 34.11 177.51 32.34C180.68 30.47 184.28 29.54 188.29 29.54C190.25 29.54 191.84 29.72 193.05 30.1Q194.87 30.66 196.69 31.5C198.28 32.24 199.49 33.18 200.33 34.3C201.26 35.32 201.92 36.4 202.29 37.52C202.76 38.64 203.04 39.71 203.13 40.74C203.32 41.76 203.5 42.6 203.69 43.26C204.16 44.84 204.76 45.96 205.51 46.62C206.35 47.18 207.38 47.41 208.59 47.32C209.99 47.13 210.88 46.43 211.25 45.22C211.72 43.91 211.86 42.79 211.67 41.86C211.3 39.52 210.22 37.42 208.45 35.56C206.77 33.59 205.32 32.24 204.11 31.5C202.43 30.47 200.38 29.54 197.95 28.7C195.62 27.76 192.4 27.3 188.29 27.3Q183.81 27.3 179.74 28.58Q177.96 29.14 176.25 29.96C172.61 31.73 169.39 34.2 166.59 37.38C163.88 40.55 161.74 44.38 160.15 48.86Q157.77 55.44 157.77 63.28C157.77 68.41 158.42 73.22 159.73 77.69C161.03 82.08 163 85.91 165.61 89.18C168.22 92.35 171.4 94.87 175.13 96.74C178.96 98.51 183.34 99.4 188.29 99.4Q197.67 99.4 203.41 95.2C207.33 92.3 210.5 88.76 212.93 84.56L211.11 83.58C208.4 88.15 205.23 91.46 201.59 93.52C198.04 95.57 193.61 96.6 188.29 96.6C184.74 96.6 181.43 95.71 178.35 93.94C175.36 92.16 172.75 89.78 170.51 86.8C168.27 83.72 166.5 80.17 165.19 76.16ZM223.18 30.7Q224.31 30.1 225.77 30.1L245.09 30.1L245.09 91.14C245.09 92.16 244.86 93.1 244.39 93.94C243.92 94.68 243.36 95.29 242.71 95.76C242.06 96.41 241.26 96.92 240.33 97.3L240.33 98L255.45 98L255.45 97.3C254.52 96.92 253.72 96.41 253.07 95.76Q252.23 95.06 251.39 93.94Q251.22 93.63 251.09 93.31Q250.69 92.3 250.69 91.14L250.69 30.1L270.01 30.1Q271.57 30.1 272.7 30.79Q273.39 31.22 273.93 31.92C274.96 33.13 275.7 34.48 276.17 35.98Q276.87 38.22 277.01 40.32C277.2 41.72 277.29 42.6 277.29 42.98L277.99 42.98L277.99 28L217.79 28L217.79 42.98L218.49 42.98C218.49 42.6 218.54 41.72 218.63 40.32C218.82 38.91 219.14 37.47 219.61 35.98Q220.08 34.46 220.88 33.14Q221.26 32.5 221.71 31.92Q222.36 31.15 223.18 30.7ZM288.34 32.62C289.28 33.46 289.93 34.53 290.3 35.84L314.24 98L309.62 112.56C306.54 122.08 301.92 126.84 295.76 126.84Q293.94 126.84 292.4 126.42C291.38 126.23 290.49 126.09 289.74 126C286.66 125.9 284.8 126.93 284.14 129.08C283.77 130.38 284.1 131.46 285.12 132.3C286.24 133.23 287.27 133.79 288.2 133.98C289.32 134.25 290.49 134.3 291.7 134.12C292.92 133.93 294.08 133.65 295.2 133.28C296.32 132.9 297.35 132.48 298.28 132.02C299.22 131.55 299.96 131.08 300.52 130.62C302.11 129.5 303.93 127.54 305.98 124.74C308.13 121.94 310.04 117.88 311.72 112.56L316.34 98L336.08 35.84C336.55 34.53 337.3 33.46 338.32 32.62C339.35 31.78 340.42 31.03 341.54 30.38C342.76 29.72 344.11 29.16 345.6 28.7L345.6 28L330.9 28L330.9 28.7Q331.04 28.7 331.74 29.12C332.21 29.4 332.63 29.86 333 30.52C333.47 31.08 333.8 31.82 333.98 32.75C334.26 33.59 334.22 34.62 333.84 35.84L316.96 89.38L296.18 35.84C295.44 33.41 295.3 31.64 295.76 30.52C296.32 29.3 296.7 28.7 296.88 28.7L296.88 28L282.18 28L282.18 28.7C283.4 29.16 284.56 29.72 285.68 30.38C286.62 31.03 287.5 31.78 288.34 32.62ZM355.29 32.2C355.75 32.94 355.99 33.83 355.99 34.86L355.99 91.14Q355.99 92.3 355.58 93.31Q355.45 93.63 355.29 93.94Q354.59 95.06 353.61 95.76C352.95 96.41 352.16 96.92 351.23 97.3L351.23 98L366.35 98L366.35 97.3C365.41 96.92 364.62 96.41 363.97 95.76Q363.13 95.06 362.29 93.94Q362.12 93.63 361.99 93.31Q361.59 92.3 361.59 91.14L361.59 30.1L400.65 30.1L400.65 91.14Q400.65 92.3 400.24 93.31Q400.11 93.63 399.95 93.94Q399.25 95.06 398.27 95.76C397.61 96.41 396.82 96.92 395.89 97.3L395.89 98L411.01 98L411.01 97.3C410.07 96.92 409.28 96.41 408.63 95.76Q407.79 95.06 406.95 93.94Q406.78 93.63 406.65 93.31Q406.25 92.3 406.25 91.14L406.25 34.86C406.25 33.83 406.48 32.94 406.95 32.2C407.51 31.36 408.07 30.7 408.63 30.24C409.28 29.58 410.07 29.07 411.01 28.7L411.01 28L351.23 28L351.23 28.7C351.41 28.7 351.74 28.84 352.21 29.12C352.77 29.3 353.33 29.68 353.89 30.24C354.45 30.7 354.91 31.36 355.29 32.2ZM132.69 94.54Q128.09 97.3 121.84 97.3Q115.58 97.3 110.99 94.54Q110.95 94.52 110.92 94.5C107.84 92.63 105.27 90.16 103.22 87.08C101.26 83.9 99.76 80.26 98.74 76.16C97.71 71.96 97.2 67.57 97.2 63C97.2 58.42 97.71 54.08 98.74 49.98C99.76 45.78 101.26 42.14 103.22 39.06C105.27 35.88 107.84 33.36 110.92 31.5Q110.95 31.47 110.99 31.45Q115.58 28.7 121.84 28.7Q128.09 28.7 132.69 31.45Q132.72 31.47 132.76 31.5C135.84 33.36 138.4 35.88 140.46 39.06C142.51 42.14 144.05 45.78 145.08 49.98C146.1 54.08 146.62 58.42 146.62 63C146.62 67.57 146.1 71.96 145.08 76.16C144.05 80.26 142.51 83.9 140.46 87.08C138.4 90.16 135.84 92.63 132.76 94.5Q132.72 94.52 132.69 94.54Z" fill="url(#paint_linear_207_26_0)" fill-opacity="1.000000" fill-rule="evenodd"/>
</svg>
