<svg width="440.688477" height="134.400024" viewBox="0 0 440.688 134.4" fill="none" xmlns="http://www.w3.org/2000/svg" xmlns:xlink="http://www.w3.org/1999/xlink">
	<desc>
			Created with Pixso.
	</desc>
	<defs>
		<linearGradient x1="220.500000" y1="-5.599976" x2="220.500000" y2="134.400024" id="paint_linear_207_51_0" gradientUnits="userSpaceOnUse">
			<stop stop-color="#071F92"/>
			<stop offset="1.000000" stop-color="#0E1641"/>
		</linearGradient>
	</defs>
	<path id="Энергия" d="M66.5 49.7C64.82 50.16 63.14 50.4 61.46 50.4Q59.22 50.4 56.28 49.56C54.41 48.9 52.5 48.25 50.54 47.6C48.58 46.85 46.66 46.2 44.8 45.64C43.02 45.08 41.44 44.8 40.04 44.8Q39.21 44.8 38.4 44.89Q34.93 45.27 31.64 47.32C28.93 49 26.5 50.86 24.36 52.92L24.64 53.34Q28 51.24 31.5 49.98C33.83 49.04 36.16 48.58 38.5 48.58C39.99 48.58 41.67 48.9 43.54 49.56C45.5 50.12 47.41 50.77 49.28 51.52C51.24 52.17 53.1 52.82 54.88 53.48C56.74 54.04 58.38 54.32 59.78 54.32C61.92 54.32 63.98 53.85 65.94 52.92C67.9 51.98 69.81 50.82 71.68 49.42L71.68 50.4C71.68 56.74 70.69 62.81 68.74 68.6C66.78 74.29 64.12 79.33 60.76 83.72Q56.71 88.99 51.5 92.56Q50.21 93.44 48.86 94.22C44.38 96.74 39.62 98 34.58 98C27.02 98 20.58 96.46 15.26 93.38Q7.42 88.76 1.82 79.1L0 80.08Q0.22 80.46 0.45 80.84Q2.8 84.76 5.74 88.34C7.98 90.86 10.5 93.05 13.3 94.92C16.1 96.69 19.22 98.14 22.68 99.26C26.22 100.28 30.19 100.8 34.58 100.8C41.48 100.8 47.6 99.54 52.92 97.02Q58.4 94.32 62.63 90.3Q64.55 88.48 66.22 86.38Q71.68 79.66 74.48 70.42Q77.28 61.18 77.28 50.26Q77.28 39.34 73.92 30.1C71.68 23.94 68.55 18.62 64.54 14.14Q61.93 11.16 58.87 8.79Q55 5.8 50.4 3.78Q49.01 3.14 47.59 2.61Q40.52 1.52e-5 32.48 1.52e-5C28.93 1.52e-5 25.8 0.42 23.1 1.26C20.39 2.1 18.01 3.12 15.96 4.34C14 5.46 12.27 6.67 10.78 7.98C9.28 9.19 7.93 10.22 6.72 11.06C6.06 11.52 5.5 11.76 5.04 11.76Q4.62 11.76 4.27 11.61Q3.43 11.26 2.94 10.08C2.56 8.86 2.38 7.46 2.38 5.88L1.68 5.88L1.68 28.7L2.38 28.7Q3.46 24 5.68 19.93Q6.04 19.26 6.44 18.62Q8.39 15.54 10.92 13.02Q12.18 11.76 13.58 10.64C16.37 8.4 19.5 6.67 22.96 5.46Q24.13 5.01 25.33 4.67Q29.43 3.5 33.88 3.5C39.48 3.5 44.52 4.66 49 7C53.57 9.33 57.49 12.55 60.76 16.66C64.02 20.67 66.59 25.34 68.46 30.66C70.32 35.98 71.4 41.67 71.68 47.74C69.9 48.58 68.18 49.23 66.5 49.7ZM263.69 79.94C265.37 75.27 266.21 69.86 266.21 63.7C266.21 57.91 265.47 52.78 263.97 48.3C262.48 43.82 260.43 40.08 257.81 37.09C255.29 34.11 252.26 31.87 248.71 30.38C245.26 28.79 241.53 28 237.51 28C234.06 28 230.98 28.56 228.27 29.68C225.57 30.8 223.23 32.2 221.27 33.88C219.31 35.46 217.73 37.19 216.51 39.06C215.3 40.92 214.41 42.56 213.85 43.96L213.71 43.96L213.71 29.68L213.43 29.4L200.97 35.28L201.25 35.98C201.44 35.88 201.86 35.84 202.51 35.84C203.26 35.74 204.05 35.84 204.89 36.12C205.73 36.3 206.48 36.68 207.13 37.24C207.79 37.7 208.11 38.45 208.11 39.48L208.11 127.54C208.11 128.56 207.88 129.45 207.41 130.2C206.95 131.03 206.39 131.69 205.73 132.16C205.08 132.81 204.29 133.32 203.35 133.7L203.35 134.39L218.47 134.39L218.47 133.7C217.54 133.32 216.75 132.81 216.09 132.16Q215.25 131.46 214.41 130.2C213.95 129.45 213.71 128.56 213.71 127.54L213.71 84.84L213.85 84.84C214.41 86.24 215.3 87.87 216.51 89.74C217.73 91.6 219.31 93.38 221.27 95.06C223.23 96.64 225.57 98 228.27 99.12C230.98 100.24 234.06 100.8 237.51 100.8C241.15 100.8 244.7 100.05 248.15 98.56C251.61 96.97 254.64 94.64 257.25 91.56C259.96 88.38 262.1 84.51 263.69 79.94ZM213.71 75.18L213.71 53.62C213.71 50.44 214.32 47.55 215.53 44.94C216.84 42.23 218.52 39.94 220.57 38.08C222.72 36.12 225.1 34.62 227.71 33.59C230.42 32.48 233.17 31.92 235.97 31.92C239.52 31.92 242.79 32.71 245.77 34.3C248.76 35.79 251.33 37.93 253.47 40.74C255.71 43.54 257.44 46.9 258.65 50.82C259.96 54.64 260.61 58.94 260.61 63.7C260.61 68.46 259.96 72.84 258.65 76.86C257.44 80.87 255.71 84.37 253.47 87.36C251.33 90.34 248.76 92.68 245.77 94.36C242.79 96.04 239.52 96.88 235.97 96.88C233.17 96.88 230.42 96.36 227.71 95.34C225.1 94.22 222.72 92.72 220.57 90.86C218.52 88.9 216.84 86.61 215.53 84C214.32 81.29 213.71 78.35 213.71 75.18ZM150.69 77.56C149.75 73.45 149.29 69.16 149.29 64.68C149.29 62.17 149.49 59.65 149.88 57.12L191.85 57.12Q194.65 57.12 195.91 56.7C196.84 56.42 197.45 56 197.73 55.44C198.1 54.88 198.24 54.18 198.15 53.34C198.15 52.5 198.05 51.47 197.87 50.26C197.49 47.36 196.65 44.61 195.35 42C194.04 39.38 192.31 37.09 190.17 35.14C188.11 33.18 185.64 31.64 182.75 30.52C179.95 29.3 176.87 28.7 173.51 28.7Q170 28.7 166.71 29.56Q164.23 30.21 161.89 31.36C158.34 33.13 155.21 35.6 152.51 38.78C149.8 41.95 147.65 45.78 146.07 50.26Q143.69 56.84 143.69 64.68C143.69 70 144.39 74.85 145.79 79.24C147.19 83.62 149.15 87.45 151.67 90.72C154.28 93.89 157.45 96.36 161.19 98.14C164.92 99.91 169.07 100.8 173.65 100.8C176.82 100.8 179.62 100.33 182.05 99.4C184.47 98.56 186.67 97.44 188.63 96.04C190.59 94.54 192.31 92.86 193.81 91C195.39 89.13 196.84 87.22 198.15 85.26L197.17 84.28C195.67 86.24 194.13 88.1 192.55 89.88C190.96 91.56 189.23 93.05 187.37 94.36C185.5 95.57 183.45 96.55 181.21 97.3C178.97 97.95 176.45 98.28 173.65 98.28C169.54 98.28 165.95 97.39 162.87 95.62C159.79 93.75 157.22 91.28 155.17 88.2Q152.23 83.58 150.69 77.56ZM150.26 55.02L192.69 55.02C192.69 52.12 192.31 49.28 191.57 46.48C190.82 43.58 189.61 41.02 187.93 38.78C186.34 36.54 184.24 34.72 181.63 33.32C179.11 31.92 176.07 31.22 172.53 31.22C168.51 31.22 165.06 32.24 162.17 34.3Q161.78 34.57 161.4 34.86Q157.56 37.81 154.89 42.28C153.02 45.45 151.62 49.04 150.69 53.06C150.53 53.71 150.39 54.36 150.26 55.02ZM85.27 33.59C85.73 34.34 85.97 35.23 85.97 36.25L85.97 92.54C85.97 93.56 85.73 94.5 85.27 95.34C84.8 96.08 84.24 96.69 83.59 97.16C82.93 97.81 82.14 98.32 81.21 98.7L81.21 99.4L96.33 99.4L96.33 98.7C95.39 98.32 94.6 97.81 93.95 97.16C93.39 96.69 92.83 96.08 92.27 95.34C91.8 94.5 91.57 93.56 91.57 92.54L91.57 62.72L130.63 62.72L130.63 92.54C130.63 93.56 130.39 94.5 129.93 95.34C129.46 96.08 128.9 96.69 128.25 97.16C127.59 97.81 126.8 98.32 125.87 98.7L125.87 99.4L140.99 99.4L140.99 98.7C140.05 98.32 139.26 97.81 138.61 97.16C138.05 96.69 137.49 96.08 136.93 95.34C136.46 94.5 136.23 93.56 136.23 92.54L136.23 36.25C136.23 35.23 136.46 34.34 136.93 33.59C137.49 32.75 138.05 32.1 138.61 31.64C139.26 30.98 140.05 30.47 140.99 30.1L140.99 29.4L125.87 29.4L125.87 30.1C126.8 30.47 127.59 30.98 128.25 31.64C128.9 32.1 129.46 32.75 129.93 33.59C130.39 34.34 130.63 35.23 130.63 36.25L130.63 60.62L91.57 60.62L91.57 36.25C91.57 35.23 91.8 34.34 92.27 33.59C92.83 32.75 93.39 32.1 93.95 31.64C94.6 30.98 95.39 30.47 96.33 30.1L96.33 29.4L81.21 29.4L81.21 30.1C82.14 30.47 82.93 30.98 83.59 31.64C84.24 32.1 84.8 32.75 85.27 33.59ZM270.25 33.59C270.71 34.34 270.95 35.23 270.95 36.25L270.95 92.54Q270.95 93.7 270.54 94.71Q270.42 95.03 270.25 95.34Q269.55 96.46 268.57 97.16C267.91 97.81 267.12 98.32 266.19 98.7L266.19 99.4L281.31 99.4L281.31 98.7C280.37 98.32 279.58 97.81 278.93 97.16Q278.09 96.46 277.25 95.34Q277.08 95.03 276.95 94.71Q276.55 93.7 276.55 92.54L276.55 31.5L308.47 31.5Q310.02 31.5 311.15 32.19Q311.85 32.62 312.39 33.32C313.41 34.53 314.16 35.88 314.63 37.38Q315.33 39.62 315.47 41.72C315.65 43.12 315.75 44 315.75 44.38L316.45 44.38L316.45 29.4L266.19 29.4L266.19 30.1C266.37 30.1 266.7 30.24 267.17 30.52C267.73 30.7 268.29 31.08 268.85 31.64C269.41 32.1 269.87 32.75 270.25 33.59ZM324.8 33.59C325.26 34.34 325.5 35.23 325.5 36.25L325.5 92.54Q325.5 93.7 325.09 94.71Q324.97 95.03 324.8 95.34Q324.1 96.46 323.12 97.16C322.46 97.81 321.67 98.32 320.74 98.7L320.74 99.4L335.86 99.4L335.86 98.7C334.92 98.32 334.13 97.81 333.48 97.16Q332.64 96.46 331.8 95.34Q331.63 95.03 331.5 94.71Q331.1 93.7 331.1 92.54L370.16 39.84L370.16 92.54Q370.16 93.7 369.75 94.71Q369.63 95.03 369.46 95.34Q368.76 96.46 367.78 97.16C367.12 97.81 366.33 98.32 365.4 98.7L365.4 99.4L389.72 99.4C391.59 99.4 393.27 98.65 394.76 97.16C396.35 95.66 397.8 93.84 399.1 91.7C400.41 89.46 401.72 87.03 403.02 84.42Q404.98 80.5 407.08 77.14C408.48 74.8 409.98 72.84 411.56 71.26C413.24 69.67 415.06 68.78 417.02 68.6C419.36 68.41 421.55 68.36 423.6 68.46C425.75 68.55 427.76 68.6 429.62 68.6L429.62 92.54Q429.62 93.7 429.22 94.71Q429.09 95.03 428.92 95.34Q428.22 96.46 427.24 97.16C426.59 97.81 425.8 98.32 424.86 98.7L424.86 99.4L439.98 99.4L439.98 98.7C439.05 98.32 438.26 97.81 437.6 97.16Q436.76 96.46 435.92 95.34Q435.75 95.03 435.63 94.71Q435.22 93.7 435.22 92.54L435.22 37.24C435.22 35.65 435.78 34.11 436.9 32.62C438.12 31.12 439.38 30.28 440.68 30.1L440.68 29.4L416.46 29.4C413.85 29.4 410.91 29.63 407.64 30.1C404.47 30.47 401.48 31.36 398.68 32.75C395.88 34.16 393.55 36.21 391.68 38.91C389.82 41.53 388.88 45.08 388.88 49.56Q388.88 54.32 390.42 57.68C391.54 59.92 393.04 61.74 394.9 63.14C396.77 64.54 398.92 65.61 401.34 66.36C403.77 67.1 406.29 67.66 408.9 68.04L408.9 68.18C408.81 68.18 408.48 68.32 407.92 68.6C407.36 68.87 406.94 69.16 406.66 69.44C405.36 70.65 404.14 72.19 403.02 74.06C401.9 75.92 400.78 77.98 399.66 80.22C398.64 82.36 397.52 84.56 396.3 86.8Q394.48 90.02 392.24 92.68C390.75 94.36 389.02 95.76 387.06 96.88C385.2 98 383 98.56 380.48 98.56L380.48 98.68C379.57 98.31 378.78 97.8 378.14 97.16Q377.3 96.46 376.46 95.34Q376.29 95.03 376.16 94.71Q375.76 93.7 375.76 92.54L375.76 36.25C375.76 35.23 375.99 34.34 376.46 33.59C377.02 32.75 377.58 32.1 378.14 31.64C378.79 30.98 379.58 30.47 380.52 30.1L380.52 29.4L365.4 29.4L365.4 30.1C366.33 30.47 367.12 30.98 367.78 31.64C368.43 32.1 368.99 32.75 369.46 33.59C369.92 34.34 370.16 35.23 370.16 36.25L331.1 88.95L331.1 36.25C331.1 35.23 331.33 34.34 331.8 33.59C332.36 32.75 332.92 32.1 333.48 31.64C334.13 30.98 334.92 30.47 335.86 30.1L335.86 29.4L320.74 29.4L320.74 30.1C321.67 30.47 322.46 30.98 323.12 31.64C323.77 32.1 324.33 32.75 324.8 33.59ZM409.18 32.06C411.8 31.68 414.22 31.5 416.46 31.5L429.62 31.5L429.62 66.5L418.7 66.5C414.69 66.5 410.86 66.08 407.22 65.24Q403.1 64.15 399.91 61.81Q398.98 61.12 398.12 60.34C395.7 58 394.48 54.5 394.48 49.84C394.48 45.73 395.18 42.46 396.58 40.04C398.08 37.61 399.9 35.79 402.04 34.58C404.28 33.27 406.66 32.43 409.18 32.06Z" fill="url(#paint_linear_207_51_0)" fill-opacity="1.000000" fill-rule="evenodd"/>
</svg>
