<svg width="340.836914" height="133.000000" viewBox="0 0 340.837 133" fill="none" xmlns="http://www.w3.org/2000/svg" xmlns:xlink="http://www.w3.org/1999/xlink">
	<desc>
			Created with Pixso.
	</desc>
	<defs>
		<linearGradient x1="221.500000" y1="-6.999992" x2="221.500000" y2="128.000000" id="paint_linear_207_41_0" gradientUnits="userSpaceOnUse">
			<stop stop-color="#071F92"/>
			<stop offset="1.000000" stop-color="#0E1641"/>
		</linearGradient>
	</defs>
	<path id="Гольф" d="M13.16 2.09L57.54 2.09C59.96 2.09 61.88 2.93 63.28 4.62C64.68 6.3 65.7 8.21 66.36 10.36C67.1 12.5 67.52 14.56 67.62 16.52C67.8 18.38 67.9 19.6 67.9 20.16L68.6 20.16L68.6 0L0 0L0 0.69C0.18 0.69 0.65 0.93 1.4 1.4C2.24 1.77 3.12 2.38 4.06 3.22C4.99 4.06 5.78 5.13 6.44 6.44C7.18 7.74 7.56 9.28 7.56 11.06L7.56 86.94C7.56 88.71 7.18 90.25 6.44 91.56Q5.46 93.52 4.06 94.78C3.12 95.62 2.24 96.27 1.4 96.74Q0.28 97.3 0 97.3L0 98L20.72 98L20.72 97.3C19.32 96.64 18.06 95.8 16.94 94.78Q15.54 93.38 14.28 91.56C13.53 90.25 13.16 88.71 13.16 86.94L13.16 2.09ZM288.33 8.96L288.05 8.68L275.59 14.56L275.87 15.26C276.06 15.16 276.48 15.12 277.13 15.12C277.88 15.02 278.67 15.12 279.51 15.4C280.35 15.58 281.1 15.96 281.75 16.52C282.41 16.98 282.73 17.73 282.73 18.76L282.73 42.56L282.59 42.56C282.03 41.16 281.15 39.52 279.93 37.66C278.72 35.79 277.13 34.06 275.17 32.48C273.21 30.8 270.88 29.4 268.17 28.28C265.56 27.16 262.48 26.6 258.93 26.6Q254.81 26.6 251.02 27.71Q249.27 28.22 247.59 28.98C244.14 30.47 241.11 32.71 238.49 35.7Q234.71 40.18 232.47 46.9C230.98 51.38 230.23 56.51 230.23 62.3C230.23 63.05 230.24 63.8 230.27 64.53C229.73 64.08 229.15 63.66 228.54 63.28C226.39 61.88 223.87 60.85 220.98 60.2Q216.78 59.22 212.16 58.94C209.17 58.75 206.18 58.7 203.2 58.8L195.22 58.8L195.22 34.86C195.22 33.83 195.45 32.94 195.92 32.2C196.48 31.36 197.04 30.7 197.6 30.24C198.25 29.58 199.04 29.07 199.98 28.7L199.98 28L184.86 28L184.86 28.7C185.79 29.07 186.58 29.58 187.24 30.24C187.89 30.7 188.45 31.36 188.92 32.2C189.38 32.94 189.62 33.83 189.62 34.86L189.62 90.16C189.62 91.74 189.01 93.28 187.8 94.78C186.68 96.27 185.46 97.11 184.16 97.3L184.16 98L208.38 98C211.08 98 214.02 97.81 217.2 97.44Q220.72 96.92 223.95 95.63Q225.07 95.18 226.16 94.64C228.96 93.24 231.29 91.23 233.16 88.62C234.03 87.34 234.7 85.88 235.17 84.21C236.3 86.41 237.6 88.39 239.05 90.16Q242.81 94.43 247.52 96.79Q247.9 96.98 248.29 97.16C251.75 98.65 255.29 99.4 258.93 99.4C262.48 99.4 265.56 98.84 268.17 97.72C270.88 96.6 273.21 95.24 275.17 93.66C277.13 91.98 278.72 90.2 279.93 88.34C281.15 86.47 282.03 84.84 282.59 83.44L282.73 83.44L282.73 126.14C282.73 127.16 282.5 128.05 282.03 128.8Q281.33 130.06 280.35 130.75C279.79 131.32 279.23 131.69 278.67 131.88L277.97 132.3L277.97 133L293.09 133L293.09 132.3C292.16 131.92 291.37 131.41 290.71 130.75Q289.87 130.06 289.03 128.8C288.57 128.05 288.33 127.16 288.33 126.14L288.33 83.44L288.47 83.44C289.03 84.84 289.92 86.47 291.13 88.34C292.35 90.2 293.93 91.98 295.89 93.66C297.85 95.24 300.19 96.6 302.89 97.72C305.6 98.84 308.68 99.4 312.13 99.4C315.77 99.4 319.32 98.65 322.77 97.16C326.23 95.57 329.26 93.24 331.87 90.16C334.58 86.98 336.73 83.11 338.31 78.54C339.99 73.87 340.83 68.46 340.83 62.3C340.83 56.51 340.09 51.38 338.59 46.9C337.1 42.42 335.05 38.68 332.43 35.7C329.91 32.71 326.88 30.47 323.33 28.98C319.88 27.39 316.15 26.6 312.13 26.6C308.68 26.6 305.6 27.16 302.89 28.28C300.19 29.4 297.85 30.8 295.89 32.48C293.93 34.06 292.35 35.79 291.13 37.66C289.92 39.52 289.03 41.16 288.47 42.56L288.33 42.56L288.33 8.96ZM103.13 29.26C99.39 27.48 95.19 26.6 90.53 26.6C85.86 26.6 81.66 27.48 77.93 29.26C74.19 31.03 71.02 33.55 68.41 36.82Q64.49 41.58 62.39 48.3C60.99 52.78 60.29 57.68 60.29 63C60.29 68.32 60.99 73.22 62.39 77.69C63.79 82.08 65.79 85.91 68.41 89.18C71.02 92.35 74.19 94.87 77.93 96.74C81.66 98.51 85.86 99.4 90.53 99.4C95.19 99.4 99.39 98.51 103.13 96.74C106.86 94.87 110.04 92.35 112.65 89.18C115.36 85.91 117.41 82.08 118.81 77.69C120.21 73.22 120.91 68.32 120.91 63C120.91 57.68 120.21 52.78 118.81 48.3C117.41 43.82 115.36 39.99 112.65 36.82C110.04 33.55 106.86 31.03 103.13 29.26ZM117.74 97.3C118.48 98.23 119.65 98.7 121.24 98.7C125.16 98.7 128.28 97.72 130.62 95.76C133.04 93.7 134.96 91.14 136.36 88.06C137.85 84.98 138.92 81.62 139.58 77.98C140.32 74.33 140.98 70.88 141.54 67.62C141.72 66.4 141.96 64.72 142.24 62.58Q142.66 59.36 142.94 55.16Q143.22 50.96 143.36 46.06C143.54 42.79 143.64 39.43 143.64 35.98L143.64 30.1L168 30.1L168 90.16C168 91.46 167.76 92.58 167.3 93.52C166.83 94.36 166.32 95.06 165.76 95.62C165.01 96.27 164.22 96.83 163.38 97.3L163.38 98L178.5 98L178.5 97.3C177.56 96.83 176.77 96.27 176.12 95.62C175.46 95.06 174.86 94.36 174.3 93.52C173.83 92.58 173.6 91.46 173.6 90.16L173.6 35.98C173.6 34.67 173.83 33.59 174.3 32.75C174.76 31.82 175.28 31.08 175.84 30.52C176.4 29.86 176.96 29.4 177.52 29.12C178.08 28.84 178.4 28.7 178.5 28.7L178.5 28L135.24 28L135.24 28.7C135.42 28.7 135.84 28.84 136.5 29.12Q137.48 29.54 138.6 30.52C139.44 31.08 140.14 31.82 140.7 32.75C141.35 33.59 141.68 34.67 141.68 35.98C141.49 45.4 141.02 53.24 140.28 59.5Q139.3 68.74 138.74 70.69C137.99 73.59 137.34 76.25 136.78 78.68C136.22 81.1 135.38 83.2 134.26 84.98C133.14 86.75 131.6 88.15 129.64 89.18C127.68 90.11 124.88 90.58 121.24 90.58C119.84 90.58 118.72 90.95 117.88 91.7C117.04 92.35 116.62 93.38 116.62 94.78C116.62 95.52 116.99 96.36 117.74 97.3ZM101.38 94.54Q96.78 97.3 90.53 97.3Q84.27 97.3 79.68 94.54Q79.64 94.52 79.61 94.5C76.53 92.63 73.96 90.16 71.91 87.08C69.95 83.9 68.45 80.26 67.43 76.16C66.4 71.96 65.89 67.57 65.89 63C65.89 58.42 66.4 54.08 67.43 49.98C68.45 45.78 69.95 42.14 71.91 39.06C73.96 35.88 76.53 33.36 79.61 31.5Q79.64 31.47 79.68 31.45Q84.27 28.7 90.53 28.7Q96.78 28.7 101.38 31.45Q101.41 31.47 101.45 31.5C104.53 33.36 107.1 35.88 109.15 39.06C111.2 42.14 112.74 45.78 113.77 49.98C114.8 54.08 115.31 58.42 115.31 63C115.31 67.57 114.8 71.96 113.77 76.16C112.74 80.26 111.2 83.9 109.15 87.08C107.1 90.16 104.53 92.63 101.45 94.5Q101.41 94.52 101.38 94.54ZM268.59 93.94C265.98 94.96 263.27 95.48 260.47 95.48C256.93 95.48 253.66 94.64 250.67 92.96C247.69 91.28 245.07 88.94 242.83 85.96Q239.61 81.48 237.65 75.46C236.44 71.44 235.83 67.06 235.83 62.3C235.83 57.54 236.44 53.24 237.65 49.42Q239.61 43.54 242.83 39.34C245.07 36.54 247.69 34.39 250.67 32.9C253.66 31.31 256.93 30.52 260.47 30.52C263.27 30.52 265.98 31.08 268.59 32.2C271.3 33.22 273.68 34.72 275.73 36.68C277.88 38.54 279.56 40.83 280.77 43.54C282.08 46.15 282.73 49.04 282.73 52.22L282.73 73.78C282.73 76.95 282.08 79.89 280.77 82.6Q279.97 84.33 278.89 85.88Q277.53 87.82 275.73 89.46C273.68 91.32 271.3 92.82 268.59 93.94ZM290.15 82.6C288.94 79.89 288.33 76.95 288.33 73.78L288.33 52.22C288.33 49.04 288.94 46.15 290.15 43.54C291.46 40.83 293.14 38.54 295.19 36.68C297.34 34.72 299.72 33.22 302.33 32.2C305.04 31.08 307.79 30.52 310.59 30.52C314.14 30.52 317.41 31.31 320.39 32.9C323.38 34.39 325.95 36.54 328.09 39.34C330.33 42.14 332.06 45.5 333.27 49.42C334.58 53.24 335.23 57.54 335.23 62.3C335.23 67.06 334.58 71.44 333.27 75.46C332.06 79.47 330.33 82.97 328.09 85.96C325.95 88.94 323.38 91.28 320.39 92.96C317.41 94.64 314.14 95.48 310.59 95.48C307.79 95.48 305.04 94.96 302.33 93.94C299.72 92.82 297.34 91.32 295.19 89.46C293.14 87.5 291.46 85.21 290.15 82.6ZM215.52 95.34C213 95.71 210.62 95.9 208.38 95.9L195.22 95.9L195.22 60.9L206 60.9C210.1 60.9 213.93 61.36 217.48 62.3C221.12 63.14 224.15 64.72 226.58 67.06C229.1 69.39 230.36 72.89 230.36 77.56C230.36 81.66 229.61 84.93 228.12 87.36C226.72 89.78 224.9 91.65 222.66 92.96C220.51 94.17 218.13 94.96 215.52 95.34Z" fill="url(#paint_linear_207_41_0)" fill-opacity="1.000000" fill-rule="evenodd"/>
</svg>
