<svg width="343.120117" height="112.280014" viewBox="0 0 343.12 112.28" fill="none" xmlns="http://www.w3.org/2000/svg" xmlns:xlink="http://www.w3.org/1999/xlink">
	<desc>
			Created with Pixso.
	</desc>
	<defs>
		<linearGradient x1="221.500000" y1="-5.599991" x2="221.500000" y2="129.400009" id="paint_linear_207_56_0" gradientUnits="userSpaceOnUse">
			<stop stop-color="#071F92"/>
			<stop offset="1.000000" stop-color="#0E1641"/>
		</linearGradient>
	</defs>
	<path id="Отдых" d="M59.36 3.78Q51.66 0 42 0Q32.35 0 24.51 3.77Q24.5 3.77 24.5 3.78C19.36 6.2 14.98 9.66 11.34 14.14Q5.88 20.86 2.94 30.1Q0 39.34 0 50.4Q0 61.46 2.94 70.69Q5.88 79.94 11.34 86.66Q14.34 90.36 18.03 93.17Q21.04 95.46 24.5 97.16Q32.34 100.8 42 100.8Q51.66 100.8 59.36 97.16Q63.49 95.16 66.96 92.35Q70.07 89.83 72.66 86.66Q78.12 79.94 81.06 70.69C83.02 64.54 84 57.77 84 50.4C84 43.02 83.02 36.25 81.06 30.1C79.1 23.94 76.3 18.62 72.66 14.14Q69.88 10.72 66.49 8.1Q63.21 5.56 59.36 3.78ZM57.4 94.78C52.92 97.39 47.78 98.7 42 98.7C36.21 98.7 31.03 97.39 26.46 94.78Q24.52 93.6 22.75 92.21Q18.4 88.78 15.12 84Q10.5 77.28 7.98 68.6Q7.69 67.53 7.43 66.45Q5.6 58.64 5.6 50.4Q5.6 40.88 7.98 32.2C9.66 26.41 12.04 21.28 15.12 16.79Q18.55 11.8 23.15 8.35Q24.73 7.16 26.46 6.16Q27.84 5.33 29.3 4.68Q35.07 2.09 42 2.09C47.78 2.09 52.92 3.45 57.4 6.16C61.97 8.77 65.8 12.32 68.87 16.79C71.96 21.28 74.29 26.41 75.87 32.2C77.56 37.98 78.4 44.05 78.4 50.4C78.4 56.65 77.56 62.72 75.87 68.6C74.29 74.38 71.96 79.51 68.87 84Q66 88.18 62.26 91.33Q59.99 93.24 57.4 94.78ZM87.86 33.32C88.89 32.1 90.24 31.5 91.92 31.5L111.24 31.5L111.24 92.54C111.24 93.56 111.01 94.5 110.54 95.34C110.07 96.08 109.51 96.69 108.86 97.16C108.21 97.81 107.41 98.32 106.48 98.7L106.48 99.4L121.6 99.4L121.6 98.7C120.67 98.32 119.87 97.81 119.22 97.16Q118.38 96.46 117.54 95.34C117.07 94.5 116.84 93.56 116.84 92.54L116.84 31.5L136.16 31.5C137.84 31.5 139.15 32.1 140.08 33.32C141.11 34.53 141.85 35.88 142.32 37.38C142.79 38.87 143.07 40.32 143.16 41.72C143.35 43.12 143.44 44 143.44 44.38L144.14 44.38L144.14 29.4L83.94 29.4L83.94 44.38L84.64 44.38C84.64 44 84.69 43.12 84.78 41.72Q85.06 39.62 85.76 37.38C86.23 35.88 86.93 34.53 87.86 33.32ZM159.49 37.09L159.49 30.8L183.01 30.8L183.01 97.3L148.29 97.3C149.97 95.06 151.46 91.65 152.77 87.08C154.17 82.5 155.33 77.42 156.27 71.82Q157.81 63.28 158.65 54.18Q159.49 45.08 159.49 37.09ZM157.11 37.09C157.11 35.88 156.83 34.86 156.27 34.02Q155.43 32.62 154.31 31.78C153.65 31.22 153 30.8 152.35 30.52Q151.37 30.1 151.23 30.1L151.23 29.4L193.09 29.4L193.09 30.1C192.99 30.1 192.67 30.24 192.11 30.52C191.64 30.8 191.13 31.22 190.57 31.78C190.1 32.34 189.63 33.08 189.17 34.02C188.79 34.86 188.61 35.88 188.61 37.09L188.61 97.3L200.93 97.3L200.93 112.28L200.23 112.28C200.23 111.9 200.13 111.02 199.95 109.62C199.85 108.22 199.57 106.77 199.11 105.28C198.64 103.78 197.89 102.43 196.87 101.22C195.93 100 194.63 99.4 192.95 99.4L140.87 99.4Q139.41 99.4 138.28 100Q137.46 100.45 136.81 101.22Q136.35 101.8 135.97 102.44Q135.18 103.76 134.71 105.28C134.24 106.77 133.91 108.22 133.73 109.62C133.63 111.02 133.59 111.9 133.59 112.28L132.89 112.28L132.89 97.3L145.49 97.3C147.17 95.06 148.71 91.65 150.11 87.08Q152.35 80.22 153.75 71.82Q155.29 63.28 156.13 54.18C156.78 48.11 157.11 42.42 157.11 37.09ZM212.73 33.59C212.27 34.34 212.03 35.23 212.03 36.25L212.03 60.2L219.87 60.2C222.77 60.1 225.61 60.15 228.41 60.34C231.31 60.52 234.06 60.94 236.67 61.6C239.38 62.25 241.76 63.28 243.81 64.68C245.87 66.08 247.5 67.94 248.71 70.28C250.02 72.61 250.67 75.6 250.67 79.24C250.67 83.72 249.74 87.31 247.87 90.02C246.01 92.63 243.67 94.64 240.87 96.04C238.07 97.44 235.09 98.37 231.91 98.84C228.74 99.21 225.8 99.4 223.09 99.4L200.97 99.4L200.97 98.7C202.28 98.51 203.49 97.67 204.61 96.18C205.83 94.68 206.43 93.14 206.43 91.56L206.43 36.25C206.43 35.23 206.2 34.34 205.73 33.59C205.27 32.75 204.71 32.1 204.05 31.64C203.49 31.08 202.93 30.7 202.37 30.52L201.67 30.1L201.67 29.4L216.79 29.4L216.79 30.1C215.86 30.47 215.07 30.98 214.41 31.64C213.85 32.1 213.29 32.75 212.73 33.59ZM271.11 33.59C270.65 34.34 270.41 35.23 270.41 36.25L270.41 92.54Q270.41 93.7 270.81 94.71Q270.94 95.03 271.11 95.34Q271.95 96.46 272.79 97.16C273.45 97.81 274.24 98.32 275.17 98.7L275.17 99.4L260.05 99.4L260.05 98.7C260.99 98.32 261.78 97.81 262.43 97.16C263.09 96.69 263.65 96.08 264.11 95.34C264.58 94.5 264.81 93.56 264.81 92.54L264.81 36.25C264.81 35.23 264.58 34.34 264.11 33.59C263.65 32.75 263.09 32.1 262.43 31.64C261.78 30.98 260.99 30.47 260.05 30.1L260.05 29.4L275.17 29.4L275.17 30.1C274.24 30.47 273.45 30.98 272.79 31.64C272.23 32.1 271.67 32.75 271.11 33.59ZM288.1 34.02C289.03 34.86 289.87 35.93 290.62 37.24L309.66 64.96L291.46 91.56C290.71 92.77 289.73 93.84 288.51 94.78C287.3 95.62 286.09 96.36 284.88 97.02C283.57 97.67 282.22 98.23 280.82 98.7L280.82 99.4L295.66 99.4L295.66 98.7C295.56 98.7 295.28 98.56 294.82 98.28C294.35 98 293.93 97.58 293.56 97.02C293.18 96.36 293 95.62 293 94.78C293 93.84 293.32 92.77 293.98 91.56L310.92 66.78L328 91.56C328.74 92.86 329.16 93.98 329.26 94.92C329.44 95.76 329.49 96.46 329.4 97.02C329.3 97.58 329.12 98 328.84 98.28C328.65 98.56 328.46 98.7 328.28 98.7L328.28 99.4L343.12 99.4L343.12 98.7C342.09 98.23 341.06 97.67 340.04 97.02C339.2 96.36 338.26 95.62 337.24 94.78C336.3 93.84 335.46 92.77 334.72 91.56L314.28 61.88L331.08 37.24C331.82 35.93 332.8 34.86 334.02 34.02C335.23 33.18 336.4 32.43 337.52 31.78C338.82 31.12 340.22 30.56 341.72 30.1L341.72 29.4L326.88 29.4L326.88 30.1Q327.16 30.1 327.72 30.52C328.18 30.8 328.6 31.26 328.98 31.92C329.35 32.48 329.54 33.22 329.54 34.16C329.63 35 329.3 36.02 328.56 37.24L313.01 60.06L297.34 37.24C295.94 34.81 295.47 33.04 295.94 31.92C296.4 30.7 296.78 30.1 297.06 30.1L297.06 29.4L282.22 29.4L282.22 30.1C283.24 30.56 284.27 31.12 285.29 31.78C286.23 32.43 287.16 33.18 288.1 34.02ZM230.23 96.74C227.71 97.11 225.33 97.3 223.09 97.3L212.03 97.3L212.03 62.3L222.53 62.3C226.36 62.3 229.95 62.76 233.31 63.7C236.67 64.54 239.47 66.12 241.71 68.46C243.95 70.79 245.07 74.29 245.07 78.96C245.07 83.06 244.33 86.33 242.83 88.76C241.43 91.18 239.61 93.05 237.37 94.36C235.23 95.57 232.85 96.36 230.23 96.74Z" fill="url(#paint_linear_207_56_0)" fill-opacity="1.000000" fill-rule="evenodd"/>
</svg>
