<svg width="377.104492" height="98.700012" viewBox="0 0 377.104 98.7" fill="none" xmlns="http://www.w3.org/2000/svg" xmlns:xlink="http://www.w3.org/1999/xlink">
	<desc>
			Created with Pixso.
	</desc>
	<defs>
		<linearGradient x1="189.000000" y1="-7.000000" x2="189.000000" y2="133.000000" id="paint_linear_207_36_0" gradientUnits="userSpaceOnUse">
			<stop stop-color="#071F92"/>
			<stop offset="1.000000" stop-color="#0E1641"/>
		</linearGradient>
	</defs>
	<path id="Пляжи" d="M14.28 91.56C13.53 90.25 13.16 88.71 13.16 86.94L13.16 2.09L69.44 2.09L69.44 86.94C69.44 88.71 69.06 90.25 68.32 91.56C67.57 92.77 66.68 93.84 65.66 94.78C64.54 95.8 63.28 96.64 61.88 97.3L61.88 98L82.6 98L82.6 97.3C82.41 97.3 81.9 97.11 81.06 96.74C80.31 96.27 79.47 95.62 78.54 94.78C77.6 93.94 76.76 92.86 76.01 91.56C75.36 90.25 75.04 88.71 75.04 86.94L75.04 11.06C75.04 9.28 75.36 7.74 76.01 6.43C76.76 5.13 77.6 4.05 78.54 3.21C79.47 2.38 80.31 1.77 81.06 1.39C81.9 0.93 82.41 0.69 82.6 0.69L82.6 -7.63e-6L0 -7.63e-6L0 0.69C0.18 0.69 0.65 0.93 1.4 1.39C2.24 1.77 3.12 2.38 4.06 3.21C4.99 4.05 5.78 5.13 6.44 6.43C7.18 7.74 7.56 9.28 7.56 11.06L7.56 86.94C7.56 88.71 7.18 90.25 6.44 91.56Q5.46 93.52 4.06 94.78C3.12 95.62 2.24 96.27 1.4 96.74Q0.28 97.3 0 97.3L0 98L20.72 98L20.72 97.3C19.32 96.64 18.06 95.8 16.94 94.78Q15.54 93.38 14.28 91.56ZM218.28 35C219.12 35.84 220.2 36.25 221.5 36.25C222.53 36.25 223.42 36.02 224.16 35.56C224.91 35.09 225.66 34.72 226.4 34.43Q226.7 34.32 227.02 34.26Q227.86 34.09 228.78 34.3C229.62 34.48 230.6 35.23 231.72 36.54L248.66 59.78C246.89 60.52 245.44 61.55 244.32 62.86C243.3 64.07 242.13 65.47 240.82 67.06L230.04 80.36C227.9 82.78 225.98 85.07 224.3 87.22C222.62 89.27 220.99 91.04 219.4 92.54C217.91 94.03 216.32 95.2 214.64 96.04C213.06 96.88 211.14 97.3 208.9 97.3L208.9 98L217.44 98C219.31 98 220.71 97.81 221.64 97.44Q223.04 96.74 224.58 95.06C225.61 93.94 226.87 92.35 228.36 90.3C229.86 88.24 232 85.63 234.8 82.46L247.26 67.06C248.85 65.1 250.39 63.7 251.88 62.86C253.38 62.02 255.48 61.5 258.18 61.32L258.18 91.14C258.18 92.16 257.95 93.1 257.48 93.94C257.01 94.68 256.46 95.29 255.8 95.76C255.15 96.32 254.36 96.78 253.42 97.16L253.42 98L268.54 98L268.54 97.16Q267.14 96.6 266.16 95.76Q265.32 95.06 264.48 93.94Q264.31 93.63 264.18 93.31Q263.78 92.3 263.78 91.14L263.78 61.32C266.49 61.5 268.59 62.02 270.08 62.86C271.57 63.7 273.12 65.1 274.7 67.06L287.16 82.46Q291.36 87.22 293.6 90.3C295.1 92.35 296.35 93.94 297.38 95.06C298.41 96.18 299.39 96.97 300.32 97.44C301.35 97.81 302.75 98 304.52 98L313.06 98L313.06 97.3C310.82 97.3 308.86 96.88 307.18 96.04C305.6 95.2 304.01 94.03 302.42 92.54C300.93 91.04 299.34 89.27 297.66 87.22Q295.14 84 291.92 80.36L281.14 67.06C279.84 65.47 278.62 64.07 277.5 62.86C276.48 61.55 275.07 60.52 273.3 59.78L290.24 36.54C291.36 35.23 292.34 34.48 293.18 34.3Q294.1 34.09 294.95 34.26Q295.26 34.32 295.56 34.43C296.31 34.72 297.06 35.09 297.8 35.56C298.64 36.02 299.53 36.25 300.46 36.25C301.77 36.25 302.84 35.84 303.68 35C304.52 34.16 304.94 33.08 304.94 31.78C304.94 30.47 304.52 29.4 303.68 28.56Q303.25 28.13 302.75 27.84Q301.76 27.3 300.46 27.3Q299.39 27.3 298.38 27.52Q296.99 27.83 295.7 28.56C294.3 29.4 293.04 30.38 291.92 31.5C290.8 32.52 289.87 33.55 289.12 34.58C288.47 35.6 288 36.25 287.72 36.54L274.7 54.04C273.86 54.97 273.16 55.76 272.6 56.42C272.04 57.07 271.39 57.68 270.64 58.24C269.9 58.7 269.01 59.08 267.98 59.36C266.96 59.54 265.56 59.68 263.78 59.78L263.78 34.86C263.78 33.83 264.01 32.94 264.48 32.2C265.04 31.36 265.6 30.7 266.16 30.24C266.82 29.58 267.61 29.07 268.54 28.7L268.54 28L253.42 28L253.42 28.7C254.36 29.07 255.15 29.58 255.8 30.24C256.46 30.7 257.01 31.36 257.48 32.2C257.95 32.94 258.18 33.83 258.18 34.86L258.18 59.78C256.41 59.68 255.01 59.54 253.98 59.36C252.96 59.08 252.07 58.7 251.32 58.24C250.58 57.68 249.92 57.07 249.36 56.42C248.8 55.76 248.1 54.97 247.26 54.04L234.24 36.54C233.96 36.25 233.45 35.6 232.7 34.58C232.05 33.55 231.16 32.52 230.04 31.5C228.92 30.38 227.62 29.4 226.12 28.56C224.72 27.72 223.18 27.3 221.5 27.3Q220.21 27.3 219.22 27.84Q218.71 28.13 218.28 28.56C217.44 29.4 217.02 30.47 217.02 31.78C217.02 33.08 217.44 34.16 218.28 35ZM83.69 97.3C84.44 98.23 85.61 98.7 87.19 98.7C91.11 98.7 94.24 97.72 96.57 95.76C99 93.7 100.91 91.14 102.31 88.06C103.81 84.98 104.88 81.62 105.53 77.98C106.28 74.33 106.93 70.88 107.49 67.62C107.68 66.4 107.91 64.72 108.19 62.58C108.47 60.43 108.71 57.96 108.89 55.16C109.08 52.36 109.22 49.32 109.31 46.06C109.5 42.79 109.59 39.43 109.59 35.98L109.59 30.1L133.95 30.1L133.95 90.16C133.95 91.46 133.72 92.58 133.25 93.52C132.79 94.36 132.27 95.06 131.71 95.62C130.97 96.27 130.17 96.83 129.33 97.3L129.33 98L144.45 98L144.45 97.3C143.52 96.83 142.73 96.27 142.07 95.62C141.42 95.06 140.81 94.36 140.25 93.52C139.79 92.58 139.55 91.46 139.55 90.16L139.55 35.98C139.55 34.67 139.79 33.59 140.25 32.75C140.72 31.82 141.23 31.08 141.79 30.52C142.35 29.86 142.91 29.4 143.47 29.12C144.03 28.84 144.36 28.7 144.45 28.7L144.45 28L101.19 28L101.19 28.7C101.38 28.7 101.8 28.84 102.45 29.12C103.11 29.4 103.81 29.86 104.55 30.52C105.39 31.08 106.09 31.82 106.65 32.75C107.31 33.59 107.63 34.67 107.63 35.98C107.45 45.4 106.98 53.24 106.23 59.5C105.58 65.66 105.07 69.39 104.69 70.69C103.95 73.59 103.29 76.25 102.73 78.68C102.17 81.1 101.33 83.2 100.21 84.98C99.09 86.75 97.55 88.15 95.59 89.18C93.63 90.11 90.83 90.58 87.19 90.58C85.79 90.58 84.67 90.95 83.83 91.7C82.99 92.35 82.57 93.38 82.57 94.78C82.57 95.52 82.95 96.36 83.69 97.3ZM177.17 66.64L177.17 66.78C177.07 66.78 176.75 66.92 176.19 67.19C175.63 67.48 175.21 67.76 174.93 68.04C173.62 69.25 172.41 70.79 171.29 72.66C170.17 74.52 169.05 76.58 167.93 78.82C166.9 80.96 165.78 83.16 164.57 85.4C163.35 87.54 162 89.5 160.5 91.28C159.01 92.96 157.28 94.36 155.33 95.48C153.46 96.6 151.27 97.16 148.75 97.16L148.75 98L157.99 98C159.85 98 161.53 97.25 163.03 95.76C164.61 94.26 166.06 92.44 167.37 90.3C168.67 88.06 169.98 85.63 171.29 83.02Q173.25 79.1 175.35 75.74Q177.45 72.24 179.83 69.86C181.51 68.27 183.33 67.38 185.29 67.19C187.62 67.01 189.81 66.96 191.87 67.06C194.01 67.15 196.02 67.19 197.89 67.19L197.89 91.14C197.89 92.16 197.65 93.1 197.19 93.94Q196.49 95.06 195.51 95.76C194.85 96.41 194.06 96.92 193.13 97.3L193.13 98L208.25 98L208.25 97.3C207.31 96.92 206.52 96.41 205.87 95.76Q205.03 95.06 204.19 93.94C203.72 93.1 203.49 92.16 203.49 91.14L203.49 35.84C203.49 34.25 204.05 32.71 205.17 31.22C206.38 29.72 207.64 28.88 208.95 28.7L208.95 28L184.73 28C182.11 28 179.17 28.23 175.91 28.7C172.73 29.07 169.75 29.96 166.95 31.36C164.15 32.75 161.81 34.81 159.95 37.52Q157.14 41.44 157.14 48.16Q157.14 52.92 158.69 56.28C159.81 58.52 161.3 60.34 163.17 61.74Q165.97 63.84 169.61 64.96C172.03 65.7 174.55 66.26 177.17 66.64ZM321.38 32.2C321.85 32.94 322.08 33.83 322.08 34.86L322.08 91.14Q322.08 92.3 321.68 93.31Q321.55 93.63 321.38 93.94Q320.68 95.06 319.7 95.76C319.05 96.41 318.25 96.92 317.32 97.3L317.32 98L332.44 98L332.44 97.3C331.51 96.92 330.71 96.41 330.06 95.76Q329.22 95.06 328.38 93.94Q328.21 93.63 328.08 93.31Q327.68 92.3 327.68 91.14L366.74 38.44L366.74 91.14Q366.74 92.3 366.34 93.31Q366.21 93.63 366.04 93.94Q365.34 95.06 364.36 95.76C363.71 96.41 362.91 96.92 361.98 97.3L361.98 98L377.1 98L377.1 97.3C376.17 96.92 375.37 96.41 374.72 95.76Q373.88 95.06 373.04 93.94Q372.87 93.63 372.74 93.31Q372.34 92.3 372.34 91.14L372.34 34.86C372.34 33.83 372.57 32.94 373.04 32.2C373.6 31.36 374.16 30.7 374.72 30.24C375.37 29.58 376.17 29.07 377.1 28.7L377.1 28L361.98 28L361.98 28.7C362.91 29.07 363.71 29.58 364.36 30.24C365.01 30.7 365.57 31.36 366.04 32.2C366.51 32.94 366.74 33.83 366.74 34.86L327.68 87.55L327.68 34.86C327.68 33.83 327.91 32.94 328.38 32.2C328.94 31.36 329.5 30.7 330.06 30.24C330.71 29.58 331.51 29.07 332.44 28.7L332.44 28L317.32 28L317.32 28.7C318.25 29.07 319.05 29.58 319.7 30.24C320.35 30.7 320.91 31.36 321.38 32.2ZM177.45 30.66C180.06 30.28 182.49 30.1 184.73 30.1L197.89 30.1L197.89 65.1L186.97 65.1C182.95 65.1 179.13 64.68 175.49 63.84C171.94 62.9 168.91 61.27 166.39 58.94C163.96 56.6 162.75 53.1 162.75 48.44C162.75 44.33 163.45 41.06 164.85 38.64C166.34 36.21 168.16 34.39 170.31 33.18C172.55 31.87 174.93 31.03 177.45 30.66Z" fill="url(#paint_linear_207_36_0)" fill-opacity="1.000000" fill-rule="evenodd"/>
</svg>
