<svg width="49.483887" height="46.174438" viewBox="0 0 49.4839 46.1744" fill="none" xmlns="http://www.w3.org/2000/svg" xmlns:xlink="http://www.w3.org/1999/xlink">
	<desc>
			Created with Pixso.
	</desc>
	<defs>
		<linearGradient x1="0.750000" y1="23.087219" x2="48.733650" y2="23.087219" id="paint_linear_158_40_0" gradientUnits="userSpaceOnUse">
			<stop stop-color="#EAC86B"/>
			<stop offset="1.000000" stop-color="#FFFFFF"/>
		</linearGradient>
		<linearGradient x1="8.158203" y1="15.141018" x2="41.324833" y2="15.141018" id="paint_linear_158_41_0" gradientUnits="userSpaceOnUse">
			<stop stop-color="#EAC86B"/>
			<stop offset="1.000000" stop-color="#FFFFFF"/>
		</linearGradient>
		<linearGradient x1="17.295898" y1="30.533039" x2="32.187378" y2="30.533039" id="paint_linear_158_43_0" gradientUnits="userSpaceOnUse">
			<stop stop-color="#EAC86B"/>
			<stop offset="1.000000" stop-color="#FFFFFF"/>
		</linearGradient>
		<linearGradient x1="23.241699" y1="24.328236" x2="24.741699" y2="24.328236" id="paint_linear_158_44_0" gradientUnits="userSpaceOnUse">
			<stop stop-color="#EAC86B"/>
			<stop offset="1.000000" stop-color="#FFFFFF"/>
		</linearGradient>
		<linearGradient x1="23.241699" y1="36.737785" x2="24.741699" y2="36.737785" id="paint_linear_158_45_0" gradientUnits="userSpaceOnUse">
			<stop stop-color="#EAC86B"/>
			<stop offset="1.000000" stop-color="#FFFFFF"/>
		</linearGradient>
	</defs>
	<path id="home" d="M44.59 23.91L48.73 23.91L48.73 18.95L40.46 12.67L40.46 3.23L34.66 3.23L34.66 8.27L24.74 0.75L0.75 18.95L0.75 23.91L4.88 23.91L4.88 45.42L44.59 45.42L44.59 23.91Z" stroke="url(#paint_linear_158_40_0)" stroke-opacity="1.000000" stroke-width="1.500000" stroke-linejoin="round"/>
	<path id="Vector" d="M41.32 21.43L24.74 8.84L8.15 21.43" stroke="url(#paint_linear_158_41_0)" stroke-opacity="1.000000" stroke-width="1.500000" stroke-linejoin="round" stroke-linecap="round"/>
	<path id="Vector" d="M31.35 25.56L19.77 25.56C18.4 25.56 17.29 26.67 17.29 28.05C17.29 29.42 18.4 30.53 19.77 30.53L29.7 30.53C31.07 30.53 32.18 31.64 32.18 33.01C32.18 34.38 31.07 35.49 29.7 35.49L18.12 35.49" stroke="url(#paint_linear_158_43_0)" stroke-opacity="1.000000" stroke-width="1.500000" stroke-linejoin="round" stroke-linecap="round"/>
	<path id="Vector" d="M24.74 25.56L24.74 23.08" stroke="url(#paint_linear_158_44_0)" stroke-opacity="1.000000" stroke-width="1.500000" stroke-linejoin="round" stroke-linecap="round"/>
	<path id="Vector" d="M24.74 35.49L24.74 37.97" stroke="url(#paint_linear_158_45_0)" stroke-opacity="1.000000" stroke-width="1.500000" stroke-linejoin="round" stroke-linecap="round"/>
</svg>
